{"glyphs":{"0":{"ha":822,"x_min":46,"x_max":790,"o":"m 463 707 q 613 679 547 707 q 720 601 679 651 q 776 480 761 550 q 774 325 790 410 q 723 188 758 250 q 636 81 688 126 q 520 12 585 36 q 383 -12 456 -12 q 228 17 296 -12 q 119 98 161 46 q 61 223 76 150 q 63 385 46 296 q 113 516 76 457 q 203 617 150 575 q 322 683 256 660 q 463 707 388 707 m 436 640 q 278 576 342 640 q 196 404 215 513 q 189 262 181 326 q 224 151 197 197 q 297 78 251 104 q 403 53 342 53 q 548 113 485 53 q 638 301 611 174 q 644 439 651 376 q 610 547 636 501 q 539 616 583 592 q 436 640 494 640 z "},"1":{"ha":440,"x_min":8,"x_max":443,"o":"m 194 518 q 188 610 208 588 q 111 639 168 632 q 108 667 108 653 q 110 699 107 682 q 274 694 186 694 q 443 699 360 694 q 440 667 442 682 q 431 639 438 653 q 386 628 404 635 q 356 608 368 621 q 336 573 344 594 q 322 518 328 551 l 257 176 q 251 119 250 140 q 260 84 251 97 q 289 65 269 71 q 339 56 308 60 q 342 -4 346 28 q 174 0 258 0 q 89 -1 133 0 q 8 -4 44 -1 q 19 56 8 31 q 65 65 47 58 q 95 84 83 71 q 115 119 107 97 q 129 176 122 140 l 194 518 z "},"2":{"ha":590,"x_min":-35,"x_max":581,"o":"m 564 524 q 542 463 557 490 q 505 408 528 435 q 449 353 482 381 q 375 294 417 326 q 331 261 358 282 q 273 217 304 240 q 210 168 242 193 q 154 122 179 143 q 207 125 182 125 q 260 125 232 125 q 325 123 297 125 q 376 121 353 121 q 420 138 400 121 q 454 210 440 156 q 489 208 472 211 q 517 200 506 206 q 503 110 508 154 q 499 29 499 65 q 478 5 492 14 q 442 -4 465 -4 q 352 -2 401 -4 q 231 0 303 0 q 109 -1 167 0 q -19 -4 51 -1 q -29 54 -35 21 q 47 114 6 82 q 131 178 89 146 q 210 239 172 210 q 278 290 249 268 q 376 389 338 335 q 425 499 414 443 q 410 607 438 565 q 325 649 383 649 q 226 599 271 649 q 150 446 182 550 q 89 458 115 446 q 121 639 117 546 q 238 690 179 674 q 361 707 296 707 q 525 659 469 707 q 564 524 581 611 z "},"3":{"ha":586,"x_min":-43,"x_max":556,"o":"m 546 510 q 484 401 535 454 q 350 303 433 347 q 426 275 392 296 q 481 220 460 254 q 508 139 501 186 q 501 32 514 92 q 452 -78 488 -29 q 365 -163 417 -128 q 246 -218 313 -199 q 103 -237 179 -237 q 19 -228 57 -237 q -43 -199 -19 -218 q -14 -147 -42 -162 q 35 -165 6 -158 q 110 -171 65 -171 q 278 -120 208 -171 q 368 22 349 -69 q 370 101 376 65 q 340 162 364 136 q 274 202 315 188 q 174 217 233 217 q 160 240 164 225 q 160 272 156 256 q 410 504 379 342 q 397 607 422 568 q 314 646 371 646 q 221 601 260 646 q 146 446 182 556 q 107 446 126 443 q 72 456 88 449 q 94 544 88 496 q 104 636 101 592 q 209 689 150 671 q 331 707 268 707 q 432 694 388 707 q 505 655 476 681 q 544 592 533 629 q 546 510 556 556 z "},"4":{"ha":638,"x_min":-31,"x_max":574,"o":"m 529 118 q 574 97 557 118 q 554 51 563 76 q 542 0 546 26 l 431 0 l 392 -212 q 282 -237 332 -217 q 268 -189 263 -225 l 303 -1 q 113 -4 188 -3 q -12 -8 38 -6 q -27 17 -24 4 q -31 50 -31 31 q 235 372 106 210 q 493 703 365 535 q 528 699 511 703 q 556 690 544 696 l 451 118 l 529 118 m 357 299 q 378 411 369 368 q 399 490 388 454 q 336 407 372 454 q 240 283 300 360 q 174 201 207 242 q 106 118 142 160 l 324 118 l 357 299 z "},"5":{"ha":561,"x_min":-65,"x_max":568,"o":"m 169 699 q 285 695 228 696 q 410 694 343 694 q 478 717 457 694 q 504 768 499 740 q 568 758 539 772 q 551 680 557 722 q 543 594 546 638 q 493 569 528 569 q 339 569 414 569 q 192 563 264 568 l 149 421 q 301 381 233 411 q 415 303 369 350 q 478 194 460 256 q 483 63 497 133 q 435 -60 471 -4 q 347 -155 400 -115 q 226 -216 294 -194 q 78 -237 157 -237 q 1 -228 39 -237 q -65 -199 -37 -218 q -37 -147 -61 -165 q 17 -165 -12 -158 q 92 -171 47 -171 q 182 -156 139 -171 q 260 -112 225 -140 q 318 -44 294 -83 q 351 42 342 -6 q 303 224 375 156 q 82 307 232 293 q 57 346 58 319 l 169 699 z "},"6":{"ha":663,"x_min":39,"x_max":676,"o":"m 665 886 q 671 839 676 868 q 365 715 476 803 q 208 496 254 628 q 293 538 253 526 q 381 549 333 549 q 493 527 444 549 q 571 467 542 506 q 610 374 600 429 q 607 253 619 319 q 568 144 596 193 q 501 60 540 94 q 410 6 461 25 q 303 -12 360 -12 q 174 16 228 -12 q 88 97 119 44 q 47 224 56 149 q 57 393 39 299 q 133 590 78 501 q 270 742 189 678 q 453 843 351 806 q 665 886 554 881 m 185 401 q 172 258 169 322 q 192 147 174 193 q 244 76 211 101 q 321 51 276 51 q 421 100 378 51 q 479 229 464 149 q 460 402 499 338 q 340 467 421 467 q 259 458 293 467 q 190 429 225 449 l 185 401 z "},"7":{"ha":561,"x_min":71,"x_max":599,"o":"m 274 571 q 222 567 243 571 q 185 555 201 564 q 154 528 168 546 q 126 481 140 510 q 71 497 89 481 q 101 597 88 543 q 121 699 114 650 q 184 697 150 697 q 251 695 218 696 q 315 694 285 694 q 371 694 346 694 q 417 694 396 694 q 462 695 439 694 q 513 697 485 696 q 579 699 542 697 q 599 654 596 686 q 473 472 524 546 q 388 344 422 397 q 332 256 353 292 q 294 189 311 219 q 263 117 275 153 q 241 42 250 82 q 226 -44 232 3 q 217 -150 221 -92 q 158 -189 189 -164 q 110 -236 126 -214 q 84 -217 97 -233 q 71 -153 71 -200 q 88 -43 71 -101 q 151 97 106 15 q 274 293 196 179 q 471 571 351 407 l 274 571 z "},"8":{"ha":626,"x_min":-4,"x_max":639,"o":"m 621 681 q 596 617 614 646 q 553 565 578 589 q 497 523 528 542 q 435 488 467 504 q 555 337 528 410 q 564 176 582 264 q 531 99 556 133 q 467 39 506 64 q 380 1 429 14 q 274 -12 331 -12 q 63 51 131 -12 q 19 235 -4 114 q 91 366 35 311 q 249 471 147 421 q 151 586 175 529 q 143 714 128 643 q 172 778 150 747 q 228 833 193 810 q 309 871 263 857 q 414 885 356 885 q 587 828 535 885 q 621 681 639 772 m 385 525 q 461 586 433 553 q 500 669 489 619 q 503 738 508 708 q 483 788 497 768 q 445 817 468 807 q 396 826 422 826 q 320 801 356 826 q 274 726 285 775 q 269 678 269 701 q 281 632 269 656 q 317 582 293 608 q 385 525 342 556 m 436 168 q 441 235 443 204 q 424 298 439 267 q 378 362 408 329 q 299 433 347 394 q 188 349 224 394 q 140 239 151 303 q 137 151 131 188 q 163 92 143 115 q 213 57 182 68 q 283 46 243 46 q 383 74 342 46 q 436 168 425 101 z "},"9":{"ha":658,"x_min":-18,"x_max":631,"o":"m 367 707 q 498 678 443 707 q 584 597 553 650 q 623 469 615 544 q 613 301 631 394 q 534 92 590 188 q 396 -75 478 -4 q 210 -188 314 -146 q -8 -236 107 -231 q -18 -189 -18 -221 q 285 -62 172 -156 q 450 167 399 31 q 369 128 408 139 q 286 118 331 118 q 96 206 153 118 q 67 442 39 294 q 105 551 78 501 q 171 635 132 600 q 260 688 210 669 q 367 707 310 707 m 485 293 q 496 437 499 372 q 476 547 493 501 q 426 618 458 593 q 349 643 393 643 q 250 594 292 643 q 193 457 208 544 q 188 353 182 400 q 211 272 193 307 q 259 219 229 238 q 326 200 289 200 q 405 208 371 200 q 472 235 439 215 q 485 293 481 264 z "},"Æ":{"ha":1175,"x_min":-37,"x_max":1188,"o":"m 743 474 l 801 474 q 875 478 844 474 q 926 497 906 483 q 959 532 947 510 q 976 589 971 554 q 1009 592 994 592 q 1043 590 1024 593 q 1028 523 1035 556 q 1014 436 1021 490 q 1003 349 1007 386 q 997 276 1000 311 q 962 283 978 279 q 933 294 946 286 q 910 389 939 364 q 796 414 881 414 l 732 414 l 696 199 q 690 127 689 154 q 701 85 690 100 q 738 67 713 71 q 803 63 763 63 q 908 74 867 63 q 978 108 950 86 q 1028 164 1007 131 q 1069 239 1049 197 q 1104 229 1089 236 q 1132 208 1119 222 q 1089 110 1108 164 q 1057 -4 1069 57 q 931 -1 994 -1 q 789 0 867 0 q 605 -1 688 0 q 439 -4 522 -1 q 449 56 439 28 q 500 67 481 60 q 532 90 519 75 q 551 132 544 106 q 565 199 558 158 l 603 414 q 487 413 544 414 q 376 410 429 413 l 201 169 q 164 92 164 118 q 204 56 164 67 q 208 -4 210 26 q 144 -1 175 -1 q 81 0 113 0 q 19 -1 44 0 q -37 -4 -7 -1 q -35 26 -37 11 q -26 56 -33 42 q 10 69 -7 61 q 44 91 26 76 q 83 129 61 106 q 133 190 104 153 q 348 475 243 333 q 549 747 453 617 q 504 883 638 871 q 503 943 499 910 q 583 941 546 942 q 656 940 619 940 q 733 939 693 939 q 822 939 774 939 q 991 940 903 939 q 1188 943 1079 940 q 1178 828 1181 890 q 1178 717 1175 765 q 1108 707 1151 706 q 1101 783 1107 751 q 1075 836 1094 815 q 1017 867 1056 857 q 911 876 978 876 l 811 876 l 743 474 m 685 853 q 582 699 643 788 q 422 474 521 610 l 614 474 l 656 714 q 670 790 663 754 q 686 853 678 825 l 685 853 z "},"Á":{"ha":954,"x_min":-37,"x_max":871,"o":"m 183 199 q 149 133 160 158 q 142 91 139 107 q 161 67 146 75 q 204 56 176 60 q 208 -4 210 26 q 144 -1 175 -1 q 81 0 113 0 q 19 -1 44 0 q -37 -4 -7 -1 q -35 26 -37 11 q -26 56 -33 42 q 8 71 -7 61 q 39 98 24 81 q 72 142 54 115 q 114 210 90 169 q 324 573 221 392 q 529 939 426 754 q 557 946 542 944 q 583 947 572 947 q 688 567 638 757 q 783 183 738 376 q 801 122 793 144 q 819 85 810 99 q 839 66 828 72 q 865 56 850 60 q 870 26 869 40 q 869 -4 871 11 q 791 -1 835 -1 q 715 0 747 0 q 639 -1 679 0 q 557 -4 599 -1 q 559 26 557 11 q 568 56 561 42 q 617 66 599 60 q 644 85 636 72 q 653 117 653 97 q 644 169 653 138 l 613 304 q 425 303 525 304 q 242 299 325 301 l 183 199 m 596 368 q 564 495 581 432 q 529 621 547 558 q 510 692 518 661 q 496 767 503 724 q 457 690 475 724 q 415 611 439 656 q 350 490 383 550 q 282 368 317 429 l 596 368 m 647 1297 q 726 1306 689 1308 q 790 1285 764 1303 q 679 1170 738 1235 q 568 1035 621 1106 q 518 1054 538 1038 q 597 1190 564 1126 q 647 1297 631 1253 z "},"Â":{"ha":954,"x_min":-37,"x_max":871,"o":"m 183 199 q 149 133 160 158 q 142 91 139 107 q 161 67 146 75 q 204 56 176 60 q 208 -4 210 26 q 144 -1 175 -1 q 81 0 113 0 q 19 -1 44 0 q -37 -4 -7 -1 q -35 26 -37 11 q -26 56 -33 42 q 8 71 -7 61 q 39 98 24 81 q 72 142 54 115 q 114 210 90 169 q 324 573 221 392 q 529 939 426 754 q 557 946 542 944 q 583 947 572 947 q 688 567 638 757 q 783 183 738 376 q 801 122 793 144 q 819 85 810 99 q 839 66 828 72 q 865 56 850 60 q 870 26 869 40 q 869 -4 871 11 q 791 -1 835 -1 q 715 0 747 0 q 639 -1 679 0 q 557 -4 599 -1 q 559 26 557 11 q 568 56 561 42 q 617 66 599 60 q 644 85 636 72 q 653 117 653 97 q 644 169 653 138 l 613 304 q 425 303 525 304 q 242 299 325 301 l 183 199 m 596 368 q 564 495 581 432 q 529 621 547 558 q 510 692 518 661 q 496 767 503 724 q 457 690 475 724 q 415 611 439 656 q 350 490 383 550 q 282 368 317 429 l 596 368 m 606 1282 q 658 1272 632 1286 q 725 1175 690 1222 q 797 1082 760 1128 q 781 1057 793 1068 q 756 1042 769 1046 q 676 1102 717 1074 q 592 1154 635 1131 q 494 1101 542 1129 q 401 1039 447 1072 q 390 1069 393 1051 q 389 1101 386 1086 q 501 1188 447 1143 q 606 1282 556 1233 z "},"Ä":{"ha":954,"x_min":-37,"x_max":871,"o":"m 183 199 q 149 133 160 158 q 142 91 139 107 q 161 67 146 75 q 204 56 176 60 q 208 -4 210 26 q 144 -1 175 -1 q 81 0 113 0 q 19 -1 44 0 q -37 -4 -7 -1 q -35 26 -37 11 q -26 56 -33 42 q 8 71 -7 61 q 39 98 24 81 q 72 142 54 115 q 114 210 90 169 q 324 573 221 392 q 529 939 426 754 q 557 946 542 944 q 583 947 572 947 q 688 567 638 757 q 783 183 738 376 q 801 122 793 144 q 819 85 810 99 q 839 66 828 72 q 865 56 850 60 q 870 26 869 40 q 869 -4 871 11 q 791 -1 835 -1 q 715 0 747 0 q 639 -1 679 0 q 557 -4 599 -1 q 559 26 557 11 q 568 56 561 42 q 617 66 599 60 q 644 85 636 72 q 653 117 653 97 q 644 169 653 138 l 613 304 q 425 303 525 304 q 242 299 325 301 l 183 199 m 596 368 q 564 495 581 432 q 529 621 547 558 q 510 692 518 661 q 496 767 503 724 q 457 690 475 724 q 415 611 439 656 q 350 490 383 550 q 282 368 317 429 l 596 368 m 417 1131 q 493 1192 428 1192 q 545 1169 529 1192 q 554 1110 561 1146 q 476 1042 536 1042 q 425 1066 442 1042 q 417 1131 408 1090 m 771 1114 q 744 1061 764 1079 q 692 1043 724 1043 q 640 1066 657 1043 q 631 1126 624 1089 q 711 1192 642 1192 q 761 1171 744 1192 q 771 1114 778 1150 z "},"À":{"ha":954,"x_min":-37,"x_max":871,"o":"m 183 199 q 149 133 160 158 q 142 91 139 107 q 161 67 146 75 q 204 56 176 60 q 208 -4 210 26 q 144 -1 175 -1 q 81 0 113 0 q 19 -1 44 0 q -37 -4 -7 -1 q -35 26 -37 11 q -26 56 -33 42 q 8 71 -7 61 q 39 98 24 81 q 72 142 54 115 q 114 210 90 169 q 324 573 221 392 q 529 939 426 754 q 557 946 542 944 q 583 947 572 947 q 688 567 638 757 q 783 183 738 376 q 801 122 793 144 q 819 85 810 99 q 839 66 828 72 q 865 56 850 60 q 870 26 869 40 q 869 -4 871 11 q 791 -1 835 -1 q 715 0 747 0 q 639 -1 679 0 q 557 -4 599 -1 q 559 26 557 11 q 568 56 561 42 q 617 66 599 60 q 644 85 636 72 q 653 117 653 97 q 644 169 653 138 l 613 304 q 425 303 525 304 q 242 299 325 301 l 183 199 m 596 368 q 564 495 581 432 q 529 621 547 558 q 510 692 518 661 q 496 767 503 724 q 457 690 475 724 q 415 611 439 656 q 350 490 383 550 q 282 368 317 429 l 596 368 m 403 1281 q 466 1293 431 1292 q 533 1283 501 1294 q 557 1167 543 1225 q 594 1047 571 1110 q 571 1044 585 1043 q 546 1050 557 1044 q 481 1167 519 1103 q 403 1281 442 1232 z "},"Å":{"ha":954,"x_min":-37,"x_max":871,"o":"m 183 199 q 149 133 160 158 q 142 91 139 107 q 161 67 146 75 q 204 56 176 60 q 208 -4 210 26 q 144 -1 175 -1 q 81 0 113 0 q 19 -1 44 0 q -37 -4 -7 -1 q -35 26 -37 11 q -26 56 -33 42 q 8 71 -7 61 q 39 98 24 81 q 72 142 54 115 q 114 210 90 169 q 324 573 221 392 q 529 939 426 754 q 557 946 542 944 q 583 947 572 947 q 688 567 638 757 q 783 183 738 376 q 801 122 793 144 q 819 85 810 99 q 839 66 828 72 q 865 56 850 60 q 870 26 869 40 q 869 -4 871 11 q 791 -1 835 -1 q 715 0 747 0 q 639 -1 679 0 q 557 -4 599 -1 q 559 26 557 11 q 568 56 561 42 q 617 66 599 60 q 644 85 636 72 q 653 117 653 97 q 644 169 653 138 l 613 304 q 425 303 525 304 q 242 299 325 301 l 183 199 m 596 368 q 564 495 581 432 q 529 621 547 558 q 510 692 518 661 q 496 767 503 724 q 457 690 475 724 q 415 611 439 656 q 350 490 383 550 q 282 368 317 429 l 596 368 m 461 1171 q 510 1255 469 1224 q 617 1286 550 1286 q 715 1247 682 1286 q 738 1143 749 1208 q 690 1064 731 1094 q 583 1033 650 1033 q 483 1071 517 1033 q 461 1171 450 1108 m 535 1164 q 544 1106 528 1128 q 593 1085 561 1085 q 638 1101 619 1085 q 660 1144 656 1117 q 653 1213 668 1188 q 604 1239 638 1239 q 560 1218 579 1239 q 535 1164 542 1197 z "},"Ã":{"ha":954,"x_min":-37,"x_max":871,"o":"m 183 199 q 149 133 160 158 q 142 91 139 107 q 161 67 146 75 q 204 56 176 60 q 208 -4 210 26 q 144 -1 175 -1 q 81 0 113 0 q 19 -1 44 0 q -37 -4 -7 -1 q -35 26 -37 11 q -26 56 -33 42 q 8 71 -7 61 q 39 98 24 81 q 72 142 54 115 q 114 210 90 169 q 324 573 221 392 q 529 939 426 754 q 557 946 542 944 q 583 947 572 947 q 688 567 638 757 q 783 183 738 376 q 801 122 793 144 q 819 85 810 99 q 839 66 828 72 q 865 56 850 60 q 870 26 869 40 q 869 -4 871 11 q 791 -1 835 -1 q 715 0 747 0 q 639 -1 679 0 q 557 -4 599 -1 q 559 26 557 11 q 568 56 561 42 q 617 66 599 60 q 644 85 636 72 q 653 117 653 97 q 644 169 653 138 l 613 304 q 425 303 525 304 q 242 299 325 301 l 183 199 m 596 368 q 564 495 581 432 q 529 621 547 558 q 510 692 518 661 q 496 767 503 724 q 457 690 475 724 q 415 611 439 656 q 350 490 383 550 q 282 368 317 429 l 596 368 m 513 1174 q 560 1165 538 1174 q 603 1144 582 1156 q 642 1124 624 1133 q 681 1115 661 1115 q 733 1128 708 1115 q 782 1165 758 1142 q 807 1138 799 1158 q 763 1078 783 1101 q 724 1040 742 1054 q 689 1022 706 1026 q 657 1017 672 1017 q 611 1026 633 1017 q 568 1047 589 1035 q 526 1067 547 1058 q 482 1076 504 1076 q 422 1065 450 1076 q 357 1024 393 1054 q 343 1057 340 1035 q 438 1149 396 1125 q 513 1174 481 1174 z "},"B":{"ha":821,"x_min":35,"x_max":811,"o":"m 263 769 q 267 826 268 804 q 255 859 265 847 q 226 876 244 871 q 181 883 207 881 q 176 913 178 899 q 178 943 175 926 q 260 940 226 940 q 331 939 293 939 q 431 941 381 939 q 528 943 481 943 q 742 890 674 943 q 789 711 811 836 q 709 577 774 633 q 551 508 644 521 q 744 435 685 501 q 776 236 803 368 q 658 65 754 129 q 407 0 563 0 q 319 0 367 0 q 222 -1 272 0 q 124 -2 172 -1 q 35 -4 76 -3 q 46 56 36 31 q 97 67 78 60 q 129 91 117 75 q 149 133 142 107 q 163 199 156 158 l 263 769 m 390 522 q 566 570 503 522 q 644 697 629 618 q 615 838 663 792 q 475 883 568 883 q 446 882 461 883 q 411 875 431 881 l 350 522 l 390 522 m 292 185 q 284 117 283 142 q 297 78 285 92 q 332 62 308 65 q 393 58 356 58 q 547 106 483 58 q 625 229 610 153 q 592 407 650 354 q 374 460 533 460 l 339 460 l 292 185 z "},"C":{"ha":854,"x_min":58,"x_max":911,"o":"m 617 951 q 773 931 704 951 q 911 869 842 911 q 883 771 893 822 q 865 660 872 719 q 790 657 831 646 q 792 777 800 731 q 763 849 785 824 q 706 885 740 875 q 626 894 671 894 q 466 860 538 894 q 343 768 394 826 q 260 631 292 710 q 218 463 228 551 q 222 314 210 385 q 267 190 233 243 q 358 104 301 136 q 497 72 415 72 q 643 94 574 72 q 775 153 713 115 q 797 100 794 133 q 632 15 715 42 q 460 -12 549 -12 q 274 24 353 -12 q 145 124 194 60 q 77 272 96 188 q 71 456 58 357 q 142 680 88 586 q 272 834 196 774 q 438 923 347 894 q 617 951 528 951 z "},"Ç":{"ha":854,"x_min":60,"x_max":911,"o":"m 397 -10 q 239 42 306 1 q 131 144 172 82 q 75 285 90 206 q 71 456 60 365 q 142 680 88 586 q 272 834 196 774 q 438 923 347 894 q 617 951 528 951 q 773 931 704 951 q 911 869 842 911 q 883 771 893 822 q 865 660 872 719 q 790 657 831 646 q 792 777 800 731 q 763 849 785 824 q 706 885 740 875 q 626 894 671 894 q 466 860 538 894 q 343 768 394 826 q 260 631 292 710 q 218 463 228 551 q 222 314 210 385 q 267 190 233 243 q 358 104 301 136 q 497 72 415 72 q 643 94 574 72 q 775 153 713 115 q 797 100 794 133 q 638 17 718 43 q 472 -12 557 -10 l 419 -76 q 494 -122 471 -87 q 504 -219 517 -156 q 435 -309 492 -279 q 300 -336 379 -339 q 299 -292 294 -318 q 383 -275 350 -292 q 422 -222 415 -258 q 408 -161 429 -182 q 347 -140 386 -140 q 333 -119 338 -132 q 333 -87 329 -106 l 397 -10 z "},"D":{"ha":1007,"x_min":35,"x_max":1010,"o":"m 264 769 q 267 826 269 804 q 255 859 265 847 q 226 876 244 871 q 181 885 207 882 q 176 915 176 900 q 178 943 175 929 q 274 940 222 940 q 369 939 326 939 q 458 941 414 939 q 544 943 503 943 q 669 935 607 943 q 788 906 732 926 q 889 849 843 885 q 964 758 935 813 q 1001 626 993 703 q 990 449 1010 550 q 917 249 969 333 q 787 110 865 165 q 608 27 708 54 q 388 0 507 0 l 383 0 q 301 0 346 0 q 211 -1 257 0 q 120 -2 165 -1 q 35 -4 75 -3 q 46 56 38 31 q 97 67 76 60 q 129 90 117 75 q 149 132 142 106 q 164 199 157 158 l 264 769 m 293 185 q 286 122 286 146 q 297 85 286 99 q 330 67 307 72 q 393 63 353 63 q 552 83 478 63 q 685 149 626 104 q 785 265 743 194 q 846 438 826 336 q 852 652 871 567 q 785 789 833 738 q 664 862 736 840 q 510 883 592 883 q 458 881 482 883 q 411 872 435 878 l 293 185 z "},"E":{"ha":763,"x_min":26,"x_max":775,"o":"m 336 506 l 393 506 q 467 510 436 506 q 518 528 497 515 q 551 563 539 540 q 568 619 563 585 q 601 623 586 622 q 635 621 615 624 q 619 553 626 586 q 606 467 613 521 q 595 379 599 417 q 589 307 592 342 q 553 313 569 310 q 525 325 538 317 q 501 419 531 394 q 388 443 472 443 l 325 443 l 283 199 q 276 128 276 154 q 288 87 276 101 q 322 67 299 72 q 385 63 346 63 l 390 63 q 496 74 454 63 q 566 108 538 86 q 615 164 594 131 q 657 239 636 197 q 692 229 676 236 q 719 208 707 222 q 676 110 696 164 q 644 -4 657 57 q 518 -1 582 -1 q 376 0 454 0 q 192 -1 275 0 q 26 -4 110 -1 q 36 56 26 28 q 88 67 68 60 q 119 90 107 75 q 139 132 132 106 q 153 199 146 158 l 253 769 q 258 825 258 804 q 249 858 257 846 q 223 874 240 869 q 179 883 206 879 q 176 912 176 897 q 178 943 175 926 q 311 940 250 940 q 410 939 372 939 q 578 940 490 939 q 775 943 667 940 q 765 828 768 890 q 765 717 763 765 q 696 707 739 706 q 688 783 694 751 q 663 836 682 815 q 604 867 643 857 q 499 876 565 876 l 399 876 l 336 506 z "},"É":{"ha":763,"x_min":26,"x_max":775,"o":"m 336 506 l 393 506 q 467 510 436 506 q 518 528 497 515 q 551 563 539 540 q 568 619 563 585 q 601 623 586 622 q 635 621 615 624 q 619 553 626 586 q 606 467 613 521 q 595 379 599 417 q 589 307 592 342 q 553 313 569 310 q 525 325 538 317 q 501 419 531 394 q 388 443 472 443 l 325 443 l 283 199 q 276 128 276 154 q 288 87 276 101 q 322 67 299 72 q 385 63 346 63 l 390 63 q 496 74 454 63 q 566 108 538 86 q 615 164 594 131 q 657 239 636 197 q 692 229 676 236 q 719 208 707 222 q 676 110 696 164 q 644 -4 657 57 q 518 -1 582 -1 q 376 0 454 0 q 192 -1 275 0 q 26 -4 110 -1 q 36 56 26 28 q 88 67 68 60 q 119 90 107 75 q 139 132 132 106 q 153 199 146 158 l 253 769 q 258 825 258 804 q 249 858 257 846 q 223 874 240 869 q 179 883 206 879 q 176 912 176 897 q 178 943 175 926 q 311 940 250 940 q 410 939 372 939 q 578 940 490 939 q 775 943 667 940 q 765 828 768 890 q 765 717 763 765 q 696 707 739 706 q 688 783 694 751 q 663 836 682 815 q 604 867 643 857 q 499 876 565 876 l 399 876 l 336 506 m 565 1297 q 644 1306 607 1308 q 708 1285 682 1303 q 597 1170 656 1235 q 486 1035 539 1106 q 436 1054 456 1038 q 515 1190 482 1126 q 565 1297 549 1253 z "},"Ê":{"ha":763,"x_min":26,"x_max":775,"o":"m 524 1282 q 576 1272 550 1286 q 643 1175 608 1222 q 715 1082 678 1128 q 699 1057 711 1068 q 674 1042 688 1046 q 594 1102 635 1074 q 510 1154 553 1131 q 413 1101 460 1129 q 319 1039 365 1072 q 308 1069 311 1051 q 307 1101 304 1086 q 419 1188 365 1143 q 524 1282 474 1233 m 336 506 l 393 506 q 467 510 436 506 q 518 528 497 515 q 551 563 539 540 q 568 619 563 585 q 601 623 586 622 q 635 621 615 624 q 619 553 626 586 q 606 467 613 521 q 595 379 599 417 q 589 307 592 342 q 553 313 569 310 q 525 325 538 317 q 501 419 531 394 q 388 443 472 443 l 325 443 l 283 199 q 276 128 276 154 q 288 87 276 101 q 322 67 299 72 q 385 63 346 63 l 390 63 q 496 74 454 63 q 566 108 538 86 q 615 164 594 131 q 657 239 636 197 q 692 229 676 236 q 719 208 707 222 q 676 110 696 164 q 644 -4 657 57 q 518 -1 582 -1 q 376 0 454 0 q 192 -1 275 0 q 26 -4 110 -1 q 36 56 26 28 q 88 67 68 60 q 119 90 107 75 q 139 132 132 106 q 153 199 146 158 l 253 769 q 258 825 258 804 q 249 858 257 846 q 223 874 240 869 q 179 883 206 879 q 176 912 176 897 q 178 943 175 926 q 311 940 250 940 q 410 939 372 939 q 578 940 490 939 q 775 943 667 940 q 765 828 768 890 q 765 717 763 765 q 696 707 739 706 q 688 783 694 751 q 663 836 682 815 q 604 867 643 857 q 499 876 565 876 l 399 876 l 336 506 z "},"Ë":{"ha":763,"x_min":26,"x_max":775,"o":"m 335 1131 q 411 1192 346 1192 q 463 1169 447 1192 q 472 1110 479 1146 q 394 1042 454 1042 q 343 1066 360 1042 q 335 1131 326 1090 m 689 1114 q 662 1061 682 1079 q 610 1043 642 1043 q 558 1066 575 1043 q 549 1126 542 1089 q 629 1192 560 1192 q 679 1171 663 1192 q 689 1114 696 1150 m 336 506 l 393 506 q 467 510 436 506 q 518 528 497 515 q 551 563 539 540 q 568 619 563 585 q 601 623 586 622 q 635 621 615 624 q 619 553 626 586 q 606 467 613 521 q 595 379 599 417 q 589 307 592 342 q 553 313 569 310 q 525 325 538 317 q 501 419 531 394 q 388 443 472 443 l 325 443 l 283 199 q 276 128 276 154 q 288 87 276 101 q 322 67 299 72 q 385 63 346 63 l 390 63 q 496 74 454 63 q 566 108 538 86 q 615 164 594 131 q 657 239 636 197 q 692 229 676 236 q 719 208 707 222 q 676 110 696 164 q 644 -4 657 57 q 518 -1 582 -1 q 376 0 454 0 q 192 -1 275 0 q 26 -4 110 -1 q 36 56 26 28 q 88 67 68 60 q 119 90 107 75 q 139 132 132 106 q 153 199 146 158 l 253 769 q 258 825 258 804 q 249 858 257 846 q 223 874 240 869 q 179 883 206 879 q 176 912 176 897 q 178 943 175 926 q 311 940 250 940 q 410 939 372 939 q 578 940 490 939 q 775 943 667 940 q 765 828 768 890 q 765 717 763 765 q 696 707 739 706 q 688 783 694 751 q 663 836 682 815 q 604 867 643 857 q 499 876 565 876 l 399 876 l 336 506 z "},"È":{"ha":763,"x_min":26,"x_max":775,"o":"m 321 1281 q 384 1293 349 1292 q 451 1283 419 1294 q 475 1167 461 1225 q 513 1047 489 1110 q 489 1044 503 1043 q 464 1050 475 1044 q 399 1167 438 1103 q 321 1281 360 1232 m 336 506 l 393 506 q 467 510 436 506 q 518 528 497 515 q 551 563 539 540 q 568 619 563 585 q 601 623 586 622 q 635 621 615 624 q 619 553 626 586 q 606 467 613 521 q 595 379 599 417 q 589 307 592 342 q 553 313 569 310 q 525 325 538 317 q 501 419 531 394 q 388 443 472 443 l 325 443 l 283 199 q 276 128 276 154 q 288 87 276 101 q 322 67 299 72 q 385 63 346 63 l 390 63 q 496 74 454 63 q 566 108 538 86 q 615 164 594 131 q 657 239 636 197 q 692 229 676 236 q 719 208 707 222 q 676 110 696 164 q 644 -4 657 57 q 518 -1 582 -1 q 376 0 454 0 q 192 -1 275 0 q 26 -4 110 -1 q 36 56 26 28 q 88 67 68 60 q 119 90 107 75 q 139 132 132 106 q 153 199 146 158 l 253 769 q 258 825 258 804 q 249 858 257 846 q 223 874 240 869 q 179 883 206 879 q 176 912 176 897 q 178 943 175 926 q 311 940 250 940 q 410 939 372 939 q 578 940 490 939 q 775 943 667 940 q 765 828 768 890 q 765 717 763 765 q 696 707 739 706 q 688 783 694 751 q 663 836 682 815 q 604 867 643 857 q 499 876 565 876 l 399 876 l 336 506 z "},"Ð":{"ha":1007,"x_min":35,"x_max":1010,"o":"m 264 769 q 267 826 269 804 q 255 859 265 847 q 226 876 244 871 q 181 885 207 882 q 176 915 176 900 q 178 943 175 929 q 274 940 222 940 q 369 939 326 939 q 458 941 414 939 q 544 943 503 943 q 669 935 607 943 q 788 906 732 926 q 889 849 843 885 q 964 758 935 813 q 1001 626 993 703 q 990 449 1010 550 q 917 249 969 333 q 787 110 865 165 q 608 27 708 54 q 388 0 507 0 l 383 0 q 301 0 346 0 q 211 -1 257 0 q 120 -2 165 -1 q 35 -4 75 -3 q 46 56 38 31 q 97 67 76 60 q 129 90 117 75 q 149 132 142 106 q 164 199 157 158 l 204 425 q 153 424 176 425 q 111 422 131 424 q 126 485 113 460 l 214 485 l 264 769 m 293 185 q 286 122 286 146 q 297 85 286 99 q 330 67 307 72 q 393 63 353 63 q 552 83 478 63 q 685 149 626 104 q 785 265 743 194 q 846 438 826 336 q 852 652 871 567 q 785 789 833 738 q 664 862 736 840 q 510 883 592 883 q 458 881 482 883 q 411 872 435 878 l 344 485 l 436 485 q 426 426 439 453 l 335 426 l 293 185 z "},"F":{"ha":717,"x_min":35,"x_max":782,"o":"m 260 769 q 265 822 265 801 q 257 854 265 842 q 230 873 249 867 q 181 883 211 879 q 178 943 174 913 q 278 940 222 940 q 417 939 335 939 q 585 940 497 939 q 782 943 674 940 q 772 828 775 890 q 772 717 769 765 q 703 707 746 706 q 695 783 701 751 q 669 836 689 815 q 611 867 650 857 q 506 876 572 876 l 406 876 l 338 475 l 404 475 q 478 481 447 475 q 529 499 508 486 q 562 535 550 513 q 579 592 574 557 q 612 595 597 594 q 646 593 626 596 q 631 526 638 558 q 617 439 624 493 q 606 351 610 389 q 600 279 603 314 q 565 285 581 282 q 536 297 549 289 q 513 391 542 367 q 399 415 483 415 l 328 415 l 290 197 q 282 132 283 157 q 290 92 281 107 q 324 69 300 78 q 389 56 347 61 q 394 28 393 42 q 393 -4 394 15 q 302 -1 340 -1 q 217 0 264 0 q 124 -1 165 0 q 35 -4 82 -1 q 46 56 36 31 q 96 69 76 61 q 127 90 115 76 q 145 126 139 104 q 158 183 151 149 l 260 769 z "},"G":{"ha":924,"x_min":57,"x_max":954,"o":"m 629 951 q 813 931 738 951 q 954 869 888 911 q 926 772 936 821 q 908 661 915 722 q 833 658 876 647 q 832 781 842 735 q 797 853 822 828 q 731 886 771 878 q 640 894 692 894 q 475 863 549 894 q 348 774 401 832 q 262 638 294 717 q 219 463 229 558 q 219 313 211 386 q 258 183 228 240 q 344 90 289 125 q 485 56 400 56 q 560 60 526 56 q 629 78 593 64 q 655 91 644 83 q 672 113 665 99 q 685 149 679 126 q 697 210 690 172 q 711 306 708 271 q 705 360 714 342 q 674 385 696 379 q 614 394 653 392 q 613 454 608 424 q 699 451 658 451 q 783 450 740 450 q 822 450 804 450 q 859 451 840 450 q 899 452 878 451 q 946 454 919 453 q 933 394 944 419 q 897 386 911 392 q 872 363 882 381 q 852 313 861 346 q 833 224 843 279 q 821 140 822 168 q 828 92 819 113 q 663 17 761 47 q 446 -12 564 -12 q 267 22 343 -12 q 142 119 190 57 q 76 267 94 182 q 71 456 57 353 q 142 681 88 588 q 273 835 196 775 q 442 924 350 896 q 629 951 535 951 z "},"ẞ":{"ha":921,"x_min":-3,"x_max":939,"o":"m 190 593 q 247 764 208 696 q 340 872 285 832 q 465 927 396 911 q 611 943 533 943 q 694 941 656 943 q 768 939 732 939 q 845 940 806 939 q 921 943 885 940 q 935 876 939 914 q 818 719 888 810 q 671 539 749 629 q 855 440 793 521 q 894 233 917 360 q 860 138 886 182 q 793 60 835 93 q 695 7 751 26 q 568 -12 639 -12 q 431 10 483 -12 q 339 74 378 33 q 366 167 354 117 q 381 257 378 217 q 421 265 397 264 q 460 261 444 267 q 458 163 456 203 q 473 99 461 122 q 508 65 485 75 q 568 54 531 54 q 635 70 604 54 q 688 111 665 86 q 724 167 710 136 q 744 228 739 197 q 710 406 763 336 q 518 496 658 476 q 507 550 503 519 q 642 710 572 622 q 771 882 711 799 q 678 885 719 883 q 583 886 636 886 q 494 873 536 886 q 419 826 453 860 q 359 734 385 792 q 319 589 333 676 l 221 0 q 164 0 190 0 q 112 -1 138 0 q 58 -2 86 -1 q -3 -4 31 -3 q 8 56 -3 31 q 55 65 36 58 q 85 84 74 71 q 104 119 97 97 q 118 176 111 142 l 190 593 z "},"H":{"ha":1050,"x_min":40,"x_max":1068,"o":"m 817 763 q 821 819 822 797 q 810 854 819 842 q 781 873 800 867 q 733 883 763 879 q 730 912 731 897 q 732 943 729 926 q 899 939 808 939 q 1068 943 985 939 q 1065 912 1067 926 q 1056 883 1063 897 q 1011 872 1029 879 q 981 852 993 865 q 961 817 969 839 q 947 763 953 796 l 846 176 q 840 119 839 142 q 850 85 840 97 q 878 66 860 72 q 928 56 897 60 q 931 -4 935 28 q 763 0 847 0 q 676 -1 722 0 q 594 -4 631 -1 q 606 56 594 31 q 652 65 633 58 q 683 84 671 71 q 701 119 694 97 q 715 176 708 142 l 763 451 q 663 451 719 451 q 549 451 607 451 q 435 449 490 450 q 338 444 379 447 l 292 176 q 285 119 285 142 q 296 85 286 97 q 324 66 306 72 q 374 56 343 60 q 376 -4 381 28 q 208 0 293 0 q 122 -1 168 0 q 40 -4 76 -1 q 51 56 40 31 q 98 65 79 58 q 128 84 117 71 q 147 119 140 97 q 161 176 154 142 l 263 763 q 267 819 268 797 q 256 854 265 842 q 227 873 246 867 q 179 883 208 879 q 176 912 176 897 q 178 943 175 926 q 344 939 254 939 q 514 943 431 939 q 510 912 513 926 q 501 883 508 897 q 457 872 475 879 q 427 852 439 865 q 407 817 415 839 q 393 763 399 796 l 350 511 l 774 511 l 817 763 z "},"I":{"ha":496,"x_min":40,"x_max":514,"o":"m 263 763 q 267 819 268 797 q 256 854 265 842 q 227 873 246 867 q 179 883 208 879 q 176 912 176 897 q 178 943 175 926 q 344 939 254 939 q 514 943 431 939 q 510 912 513 926 q 501 883 508 897 q 457 872 475 879 q 427 852 439 865 q 407 817 415 839 q 393 763 399 796 l 292 176 q 285 119 285 142 q 296 85 286 97 q 324 66 306 72 q 374 56 343 60 q 376 -4 381 28 q 208 0 293 0 q 122 -1 168 0 q 40 -4 76 -1 q 51 56 40 31 q 98 65 79 58 q 128 84 117 71 q 147 119 140 97 q 161 176 154 142 l 263 763 z "},"Í":{"ha":496,"x_min":40,"x_max":578,"o":"m 435 1297 q 514 1306 476 1308 q 578 1285 551 1303 q 467 1170 525 1235 q 356 1035 408 1106 q 306 1054 325 1038 q 385 1190 351 1126 q 435 1297 418 1253 m 263 763 q 267 819 268 797 q 256 854 265 842 q 227 873 246 867 q 179 883 208 879 q 176 912 176 897 q 178 943 175 926 q 344 939 254 939 q 514 943 431 939 q 510 912 513 926 q 501 883 508 897 q 457 872 475 879 q 427 852 439 865 q 407 817 415 839 q 393 763 399 796 l 292 176 q 285 119 285 142 q 296 85 286 97 q 324 66 306 72 q 374 56 343 60 q 376 -4 381 28 q 208 0 293 0 q 122 -1 168 0 q 40 -4 76 -1 q 51 56 40 31 q 98 65 79 58 q 128 84 117 71 q 147 119 140 97 q 161 176 154 142 l 263 763 z "},"Î":{"ha":496,"x_min":40,"x_max":585,"o":"m 393 1282 q 446 1272 419 1286 q 513 1175 478 1222 q 585 1082 547 1128 q 569 1057 581 1068 q 543 1042 557 1046 q 463 1102 504 1074 q 379 1154 422 1131 q 282 1101 329 1129 q 189 1039 235 1072 q 177 1069 181 1051 q 176 1101 174 1086 q 289 1188 235 1143 q 393 1282 343 1233 m 263 763 q 267 819 268 797 q 256 854 265 842 q 227 873 246 867 q 179 883 208 879 q 176 912 176 897 q 178 943 175 926 q 344 939 254 939 q 514 943 431 939 q 510 912 513 926 q 501 883 508 897 q 457 872 475 879 q 427 852 439 865 q 407 817 415 839 q 393 763 399 796 l 292 176 q 285 119 285 142 q 296 85 286 97 q 324 66 306 72 q 374 56 343 60 q 376 -4 381 28 q 208 0 293 0 q 122 -1 168 0 q 40 -4 76 -1 q 51 56 40 31 q 98 65 79 58 q 128 84 117 71 q 147 119 140 97 q 161 176 154 142 l 263 763 z "},"Ï":{"ha":496,"x_min":40,"x_max":567,"o":"m 206 1131 q 282 1192 217 1192 q 334 1169 318 1192 q 343 1110 350 1146 q 265 1042 325 1042 q 214 1066 231 1042 q 206 1131 197 1090 m 560 1114 q 533 1061 553 1079 q 481 1043 513 1043 q 429 1066 446 1043 q 419 1126 413 1089 q 500 1192 431 1192 q 550 1171 533 1192 q 560 1114 567 1150 m 263 763 q 267 819 268 797 q 256 854 265 842 q 227 873 246 867 q 179 883 208 879 q 176 912 176 897 q 178 943 175 926 q 344 939 254 939 q 514 943 431 939 q 510 912 513 926 q 501 883 508 897 q 457 872 475 879 q 427 852 439 865 q 407 817 415 839 q 393 763 399 796 l 292 176 q 285 119 285 142 q 296 85 286 97 q 324 66 306 72 q 374 56 343 60 q 376 -4 381 28 q 208 0 293 0 q 122 -1 168 0 q 40 -4 76 -1 q 51 56 40 31 q 98 65 79 58 q 128 84 117 71 q 147 119 140 97 q 161 176 154 142 l 263 763 z "},"Ì":{"ha":496,"x_min":40,"x_max":514,"o":"m 190 1281 q 253 1293 218 1292 q 321 1283 289 1294 q 344 1167 331 1225 q 382 1047 358 1110 q 358 1044 372 1043 q 333 1050 344 1044 q 268 1167 307 1103 q 190 1281 229 1232 m 263 763 q 267 819 268 797 q 256 854 265 842 q 227 873 246 867 q 179 883 208 879 q 176 912 176 897 q 178 943 175 926 q 344 939 254 939 q 514 943 431 939 q 510 912 513 926 q 501 883 508 897 q 457 872 475 879 q 427 852 439 865 q 407 817 415 839 q 393 763 399 796 l 292 176 q 285 119 285 142 q 296 85 286 97 q 324 66 306 72 q 374 56 343 60 q 376 -4 381 28 q 208 0 293 0 q 122 -1 168 0 q 40 -4 76 -1 q 51 56 40 31 q 98 65 79 58 q 128 84 117 71 q 147 119 140 97 q 161 176 154 142 l 263 763 z "},"J":{"ha":467,"x_min":-72,"x_max":529,"o":"m 278 769 q 283 819 283 799 q 273 852 282 839 q 245 872 264 865 q 194 883 226 879 q 192 943 188 907 q 265 940 221 940 q 353 939 308 939 q 404 939 382 939 q 446 940 426 939 q 485 941 465 940 q 529 943 504 942 q 518 883 528 908 q 472 872 490 879 q 440 850 453 864 q 419 813 428 836 q 406 756 411 790 l 303 167 q 265 -5 286 69 q 206 -139 244 -79 q 107 -249 168 -199 q -50 -346 46 -299 q -67 -326 -61 -339 q -72 -299 -72 -314 q 8 -234 -29 -268 q 73 -158 44 -200 q 122 -65 101 -117 q 153 54 142 -12 l 278 769 z "},"K":{"ha":889,"x_min":40,"x_max":944,"o":"m 624 758 q 677 815 660 793 q 698 852 694 838 q 692 874 701 867 q 663 883 682 881 q 657 913 660 899 q 657 943 654 928 q 731 940 699 940 q 808 939 764 939 q 875 940 847 939 q 944 943 903 940 q 944 913 944 931 q 938 883 943 896 q 885 873 908 879 q 837 853 861 867 q 784 817 813 839 q 718 760 756 794 l 458 515 q 566 375 517 453 q 667 185 615 297 q 707 119 689 136 q 746 103 725 103 q 769 107 760 103 q 793 125 778 111 q 835 81 819 111 q 762 12 799 36 q 674 -12 725 -12 q 602 17 631 -10 q 550 107 574 44 q 452 318 501 232 q 343 471 403 404 l 292 176 q 285 119 285 142 q 292 84 285 97 q 317 65 300 71 q 360 56 333 58 q 363 -4 367 28 q 285 -1 321 -1 q 208 0 249 0 q 122 -1 168 0 q 40 -4 76 -1 q 51 56 40 31 q 98 65 79 58 q 128 84 117 71 q 147 119 140 97 q 161 176 154 142 l 263 763 q 267 819 268 797 q 256 854 265 842 q 227 873 246 867 q 179 883 208 879 q 176 912 176 897 q 178 943 175 926 q 344 939 254 939 q 514 943 431 939 q 510 912 513 926 q 501 883 508 897 q 457 872 475 879 q 427 852 439 865 q 407 817 415 839 q 393 763 399 796 l 347 496 l 624 758 z "},"L":{"ha":757,"x_min":35,"x_max":728,"o":"m 399 63 q 497 72 457 63 q 566 101 536 81 q 619 156 596 122 q 667 239 642 190 q 701 229 686 236 q 728 208 715 222 q 654 -4 682 119 q 604 -2 635 -3 q 538 -1 574 -1 q 464 0 503 0 q 388 0 425 0 q 303 0 347 0 q 213 -1 258 0 q 122 -2 167 -1 q 35 -4 76 -3 q 38 26 36 11 q 44 56 39 40 q 95 66 75 58 q 128 90 115 74 q 147 132 140 106 q 161 199 154 158 l 261 769 q 253 856 272 835 q 181 883 233 876 q 177 913 178 897 q 178 943 176 928 q 258 940 217 940 q 342 939 299 939 q 433 939 385 939 q 521 942 481 939 q 510 883 521 908 q 458 872 478 879 q 424 851 438 865 q 403 812 411 836 q 389 751 394 788 l 290 185 q 283 122 283 146 q 294 85 283 99 q 328 67 306 72 q 390 63 351 63 l 399 63 z "},"M":{"ha":1226,"x_min":-37,"x_max":1218,"o":"m 1107 736 q 1069 226 1090 438 q 1065 144 1064 175 q 1075 95 1067 113 q 1099 69 1083 78 q 1139 56 1115 61 q 1142 26 1142 42 q 1142 -4 1143 11 q 1064 -1 1110 -1 q 972 0 1018 0 q 881 -1 922 0 q 806 -4 840 -1 q 817 56 806 26 q 872 70 850 61 q 906 98 893 79 q 926 147 919 117 q 936 222 932 176 q 956 456 947 335 q 972 707 965 576 q 772 347 875 525 q 563 -6 669 168 q 535 -12 549 -11 q 506 -12 521 -12 q 411 353 461 171 q 303 721 361 535 q 243 482 274 597 q 188 275 213 367 q 164 170 169 210 q 165 108 158 131 q 191 74 171 85 q 246 56 211 63 q 249 26 249 40 q 249 -4 250 11 q 169 -1 206 -1 q 106 0 133 0 q 42 -1 74 0 q -37 -4 11 -1 q -35 25 -37 10 q -26 56 -33 40 q 21 74 1 63 q 55 109 40 86 q 83 169 69 132 q 114 264 97 206 q 183 509 150 386 q 244 758 215 632 q 253 819 253 796 q 246 855 254 842 q 220 874 238 868 q 175 883 203 881 q 172 914 172 900 q 174 943 171 928 q 231 940 206 940 q 281 939 257 939 q 331 940 308 939 q 381 943 354 940 q 494 554 442 747 q 594 167 547 361 q 815 550 707 357 q 1026 943 922 743 q 1076 940 1057 940 q 1117 939 1096 939 q 1165 940 1138 939 q 1218 943 1192 940 q 1208 883 1218 911 q 1163 873 1181 881 q 1133 849 1144 865 q 1116 805 1122 832 q 1107 736 1110 778 z "},"N":{"ha":992,"x_min":33,"x_max":1054,"o":"m 265 835 q 232 871 250 861 q 181 883 214 881 q 178 943 174 908 q 218 940 199 940 q 261 939 238 939 q 357 943 321 939 q 576 578 467 765 q 786 210 686 392 q 869 693 829 449 q 879 782 878 747 q 872 838 881 817 q 844 868 863 858 q 794 883 825 878 q 791 912 792 897 q 793 943 790 926 q 858 940 824 940 q 919 939 892 939 q 989 940 951 939 q 1054 943 1026 940 q 1051 914 1054 931 q 1043 883 1049 897 q 1003 865 1019 876 q 976 830 988 853 q 955 771 964 807 q 938 679 946 735 q 881 336 910 506 q 819 -6 851 167 q 793 -11 808 -10 q 763 -12 778 -12 q 548 365 657 178 q 325 738 439 551 q 284 495 306 615 q 239 253 263 375 q 226 162 228 197 q 233 104 225 126 q 262 72 242 82 q 314 56 282 61 q 317 -4 321 32 q 234 -1 275 -1 q 165 0 193 0 q 106 -1 133 0 q 33 -4 79 -1 q 43 56 35 29 q 88 70 69 60 q 121 101 107 81 q 145 156 135 122 q 165 239 156 189 q 219 533 193 386 q 269 828 244 681 l 265 835 z "},"Ñ":{"ha":992,"x_min":33,"x_max":1054,"o":"m 265 835 q 232 871 250 861 q 181 883 214 881 q 178 943 174 908 q 218 940 199 940 q 261 939 238 939 q 357 943 321 939 q 576 578 467 765 q 786 210 686 392 q 869 693 829 449 q 879 782 878 747 q 872 838 881 817 q 844 868 863 858 q 794 883 825 878 q 791 912 792 897 q 793 943 790 926 q 858 940 824 940 q 919 939 892 939 q 989 940 951 939 q 1054 943 1026 940 q 1051 914 1054 931 q 1043 883 1049 897 q 1003 865 1019 876 q 976 830 988 853 q 955 771 964 807 q 938 679 946 735 q 881 336 910 506 q 819 -6 851 167 q 793 -11 808 -10 q 763 -12 778 -12 q 548 365 657 178 q 325 738 439 551 q 284 495 306 615 q 239 253 263 375 q 226 162 228 197 q 233 104 225 126 q 262 72 242 82 q 314 56 282 61 q 317 -4 321 32 q 234 -1 275 -1 q 165 0 193 0 q 106 -1 133 0 q 33 -4 79 -1 q 43 56 35 29 q 88 70 69 60 q 121 101 107 81 q 145 156 135 122 q 165 239 156 189 q 219 533 193 386 q 269 828 244 681 l 265 835 m 549 1174 q 596 1165 574 1174 q 639 1144 618 1156 q 678 1124 660 1133 q 717 1115 697 1115 q 769 1128 744 1115 q 818 1165 794 1142 q 843 1138 835 1158 q 799 1078 819 1101 q 760 1040 778 1054 q 725 1022 742 1026 q 693 1017 708 1017 q 647 1026 669 1017 q 604 1047 625 1035 q 562 1067 583 1058 q 518 1076 540 1076 q 458 1065 486 1076 q 393 1024 429 1054 q 379 1057 376 1035 q 474 1149 432 1125 q 549 1174 517 1174 z "},"O":{"ha":1001,"x_min":58,"x_max":1003,"o":"m 592 951 q 774 916 692 951 q 910 813 857 881 q 983 643 964 744 q 978 411 1003 542 q 917 247 961 324 q 806 112 872 169 q 654 21 740 54 q 468 -12 568 -12 q 282 26 364 -12 q 148 135 200 65 q 77 303 96 206 q 82 521 58 401 q 145 690 99 611 q 259 826 192 768 q 411 918 326 885 q 592 951 496 951 m 565 890 q 447 862 503 890 q 347 784 392 833 q 272 669 303 735 q 226 531 240 604 q 216 344 207 432 q 259 191 225 257 q 352 87 293 125 q 493 49 411 49 q 618 76 561 49 q 719 151 675 103 q 792 265 763 200 q 836 408 822 331 q 843 603 856 514 q 793 756 831 692 q 697 855 756 819 q 565 890 639 890 z "},"Ó":{"ha":1001,"x_min":58,"x_max":1003,"o":"m 592 951 q 774 916 692 951 q 910 813 857 881 q 983 643 964 744 q 978 411 1003 542 q 917 247 961 324 q 806 112 872 169 q 654 21 740 54 q 468 -12 568 -12 q 282 26 364 -12 q 148 135 200 65 q 77 303 96 206 q 82 521 58 401 q 145 690 99 611 q 259 826 192 768 q 411 918 326 885 q 592 951 496 951 m 565 890 q 447 862 503 890 q 347 784 392 833 q 272 669 303 735 q 226 531 240 604 q 216 344 207 432 q 259 191 225 257 q 352 87 293 125 q 493 49 411 49 q 618 76 561 49 q 719 151 675 103 q 792 265 763 200 q 836 408 822 331 q 843 603 856 514 q 793 756 831 692 q 697 855 756 819 q 565 890 639 890 m 676 1297 q 756 1306 718 1308 q 819 1285 793 1303 q 708 1170 767 1235 q 597 1035 650 1106 q 547 1054 567 1038 q 626 1190 593 1126 q 676 1297 660 1253 z "},"Ô":{"ha":1001,"x_min":58,"x_max":1003,"o":"m 592 951 q 774 916 692 951 q 910 813 857 881 q 983 643 964 744 q 978 411 1003 542 q 917 247 961 324 q 806 112 872 169 q 654 21 740 54 q 468 -12 568 -12 q 282 26 364 -12 q 148 135 200 65 q 77 303 96 206 q 82 521 58 401 q 145 690 99 611 q 259 826 192 768 q 411 918 326 885 q 592 951 496 951 m 565 890 q 447 862 503 890 q 347 784 392 833 q 272 669 303 735 q 226 531 240 604 q 216 344 207 432 q 259 191 225 257 q 352 87 293 125 q 493 49 411 49 q 618 76 561 49 q 719 151 675 103 q 792 265 763 200 q 836 408 822 331 q 843 603 856 514 q 793 756 831 692 q 697 855 756 819 q 565 890 639 890 m 635 1282 q 688 1272 661 1286 q 754 1175 719 1222 q 826 1082 789 1128 q 810 1057 822 1068 q 785 1042 799 1046 q 705 1102 746 1074 q 621 1154 664 1131 q 524 1101 571 1129 q 431 1039 476 1072 q 419 1069 422 1051 q 418 1101 415 1086 q 531 1188 476 1143 q 635 1282 585 1233 z "},"Ö":{"ha":1001,"x_min":58,"x_max":1003,"o":"m 592 951 q 774 916 692 951 q 910 813 857 881 q 983 643 964 744 q 978 411 1003 542 q 917 247 961 324 q 806 112 872 169 q 654 21 740 54 q 468 -12 568 -12 q 282 26 364 -12 q 148 135 200 65 q 77 303 96 206 q 82 521 58 401 q 145 690 99 611 q 259 826 192 768 q 411 918 326 885 q 592 951 496 951 m 565 890 q 447 862 503 890 q 347 784 392 833 q 272 669 303 735 q 226 531 240 604 q 216 344 207 432 q 259 191 225 257 q 352 87 293 125 q 493 49 411 49 q 618 76 561 49 q 719 151 675 103 q 792 265 763 200 q 836 408 822 331 q 843 603 856 514 q 793 756 831 692 q 697 855 756 819 q 565 890 639 890 m 446 1131 q 522 1192 457 1192 q 574 1169 558 1192 q 583 1110 590 1146 q 506 1042 565 1042 q 454 1066 471 1042 q 446 1131 438 1090 m 800 1114 q 773 1061 793 1079 q 721 1043 753 1043 q 669 1066 686 1043 q 660 1126 653 1089 q 740 1192 671 1192 q 790 1171 774 1192 q 800 1114 807 1150 z "},"Ò":{"ha":1001,"x_min":58,"x_max":1003,"o":"m 432 1281 q 495 1293 460 1292 q 563 1283 531 1294 q 586 1167 572 1225 q 624 1047 600 1110 q 600 1044 614 1043 q 575 1050 586 1044 q 510 1167 549 1103 q 432 1281 471 1232 m 592 951 q 774 916 692 951 q 910 813 857 881 q 983 643 964 744 q 978 411 1003 542 q 917 247 961 324 q 806 112 872 169 q 654 21 740 54 q 468 -12 568 -12 q 282 26 364 -12 q 148 135 200 65 q 77 303 96 206 q 82 521 58 401 q 145 690 99 611 q 259 826 192 768 q 411 918 326 885 q 592 951 496 951 m 565 890 q 447 862 503 890 q 347 784 392 833 q 272 669 303 735 q 226 531 240 604 q 216 344 207 432 q 259 191 225 257 q 352 87 293 125 q 493 49 411 49 q 618 76 561 49 q 719 151 675 103 q 792 265 763 200 q 836 408 822 331 q 843 603 856 514 q 793 756 831 692 q 697 855 756 819 q 565 890 639 890 z "},"Ø":{"ha":1001,"x_min":58,"x_max":1006,"o":"m 158 121 q 79 293 100 192 q 82 521 58 394 q 145 690 99 611 q 259 826 192 768 q 411 918 326 885 q 592 951 496 951 q 851 871 747 951 l 925 951 q 965 943 947 951 q 993 922 983 935 l 900 825 q 983 653 960 757 q 978 411 1006 550 q 917 247 961 324 q 806 112 872 169 q 654 21 740 54 q 468 -12 568 -12 q 323 10 389 -12 q 206 74 257 32 l 129 -12 q 90 -3 107 -12 q 67 21 74 6 l 158 121 m 772 786 q 682 863 735 836 q 565 890 629 890 q 447 862 503 890 q 347 784 392 833 q 272 669 303 735 q 226 531 240 604 q 215 360 210 440 q 247 217 219 281 l 772 786 m 807 728 q 541 443 678 592 q 281 157 404 294 q 369 77 317 106 q 493 49 422 49 q 618 76 561 49 q 719 151 675 103 q 792 265 763 200 q 836 408 822 331 q 845 585 854 504 q 807 728 836 665 z "},"Õ":{"ha":1001,"x_min":58,"x_max":1003,"o":"m 542 1174 q 589 1165 567 1174 q 632 1144 611 1156 q 672 1124 653 1133 q 710 1115 690 1115 q 763 1128 738 1115 q 811 1165 788 1142 q 836 1138 828 1158 q 792 1078 813 1101 q 753 1040 771 1054 q 718 1022 735 1026 q 686 1017 701 1017 q 640 1026 663 1017 q 597 1047 618 1035 q 555 1067 576 1058 q 511 1076 533 1076 q 451 1065 479 1076 q 386 1024 422 1054 q 372 1057 369 1035 q 467 1149 425 1125 q 542 1174 510 1174 m 592 951 q 774 916 692 951 q 910 813 857 881 q 983 643 964 744 q 978 411 1003 542 q 917 247 961 324 q 806 112 872 169 q 654 21 740 54 q 468 -12 568 -12 q 282 26 364 -12 q 148 135 200 65 q 77 303 96 206 q 82 521 58 401 q 145 690 99 611 q 259 826 192 768 q 411 918 326 885 q 592 951 496 951 m 565 890 q 447 862 503 890 q 347 784 392 833 q 272 669 303 735 q 226 531 240 604 q 216 344 207 432 q 259 191 225 257 q 352 87 293 125 q 493 49 411 49 q 618 76 561 49 q 719 151 675 103 q 792 265 763 200 q 836 408 822 331 q 843 603 856 514 q 793 756 831 692 q 697 855 756 819 q 565 890 639 890 z "},"P":{"ha":782,"x_min":35,"x_max":842,"o":"m 260 769 q 265 822 265 801 q 257 854 265 842 q 230 873 249 867 q 181 883 211 879 q 178 943 174 913 q 223 941 197 942 q 275 940 249 940 q 326 939 301 939 q 369 939 351 939 q 406 940 383 939 q 453 941 428 940 q 507 942 479 942 q 560 943 535 943 q 776 861 711 943 q 814 632 842 779 q 769 515 801 567 q 690 426 738 463 q 582 369 643 389 q 451 349 521 349 q 361 365 392 349 q 364 394 360 376 q 374 421 368 413 q 406 414 388 417 q 444 411 424 411 q 599 465 539 411 q 681 628 660 519 q 660 816 704 750 q 494 882 617 882 q 451 881 472 882 q 406 872 431 879 l 290 197 q 282 132 283 157 q 290 92 281 107 q 324 69 300 78 q 389 56 347 61 q 394 28 393 42 q 393 -4 394 15 q 302 -1 340 -1 q 217 0 264 0 q 124 -1 165 0 q 35 -4 82 -1 q 46 56 36 31 q 96 69 76 61 q 127 90 115 76 q 145 126 139 104 q 158 183 151 149 l 260 769 z "},"Q":{"ha":1000,"x_min":58,"x_max":1040,"o":"m 1001 -167 q 1026 -185 1015 -172 q 1040 -212 1036 -197 q 1017 -242 1032 -226 q 981 -272 1001 -258 q 934 -295 960 -286 q 879 -304 908 -304 q 778 -280 822 -304 q 692 -186 735 -256 q 601 -71 650 -118 q 468 -12 551 -24 q 282 26 364 -12 q 148 135 200 65 q 77 303 96 206 q 82 521 58 401 q 145 690 99 611 q 259 826 192 768 q 411 918 326 885 q 592 951 496 951 q 774 916 692 951 q 910 813 857 881 q 983 643 964 744 q 978 411 1003 542 q 934 278 965 342 q 857 163 903 215 q 752 72 811 111 q 624 11 693 32 q 740 -46 683 -8 q 847 -129 796 -83 q 914 -181 892 -169 q 960 -189 936 -192 q 983 -181 972 -187 q 1001 -167 994 -175 m 226 531 q 216 344 207 432 q 259 191 225 257 q 352 87 293 125 q 493 49 411 49 q 618 76 561 49 q 719 151 675 103 q 792 265 763 200 q 836 408 822 331 q 843 603 856 514 q 793 756 831 692 q 697 855 756 819 q 565 890 639 890 q 447 862 503 890 q 347 784 392 833 q 272 669 303 735 q 226 531 240 604 z "},"R":{"ha":903,"x_min":40,"x_max":872,"o":"m 264 769 q 255 853 274 829 q 179 883 236 876 q 178 943 174 910 q 268 940 229 940 q 356 939 307 939 q 471 941 414 939 q 585 943 528 943 q 803 876 735 943 q 849 688 872 810 q 749 533 831 594 q 536 447 667 471 q 567 403 553 425 q 597 353 582 381 q 626 292 611 326 q 660 211 642 257 q 705 128 683 153 q 746 103 726 103 q 769 107 760 103 q 793 125 778 111 q 835 81 819 111 q 762 12 799 36 q 674 -12 725 -12 q 587 33 615 -12 q 535 161 558 78 q 480 308 508 247 q 415 425 451 369 q 372 423 393 422 q 335 425 351 424 l 290 169 q 284 114 283 135 q 292 81 285 93 q 317 65 300 69 q 358 56 333 60 q 362 26 361 40 q 361 -4 363 11 q 315 -2 335 -3 q 276 -1 294 -1 q 240 0 258 0 q 200 0 222 0 q 116 -1 151 0 q 40 -4 81 -1 q 42 26 40 11 q 51 56 44 42 q 101 66 82 58 q 131 88 119 74 q 149 126 143 103 q 163 183 156 149 l 264 769 m 346 490 q 374 488 361 488 q 401 488 388 488 q 512 501 460 488 q 606 539 564 514 q 675 602 647 564 q 713 690 703 640 q 682 835 731 786 q 525 883 633 883 q 411 871 458 883 l 346 490 z "},"S":{"ha":639,"x_min":3,"x_max":631,"o":"m 414 951 q 541 933 486 951 q 631 886 596 914 q 619 797 624 839 q 615 707 615 754 q 539 700 581 693 q 501 848 536 808 q 404 888 465 888 q 294 856 336 888 q 240 751 251 825 q 258 655 232 696 q 327 578 283 614 q 422 509 371 543 q 515 433 472 475 q 580 339 557 392 q 590 213 603 286 q 555 121 582 163 q 488 49 528 79 q 397 3 447 19 q 290 -12 346 -12 q 195 -6 238 -12 q 119 15 153 1 q 56 47 85 28 q 3 88 28 65 q 29 185 18 136 q 43 281 40 233 q 81 288 60 288 q 118 283 101 289 q 149 108 111 161 q 293 54 188 54 q 400 91 356 54 q 456 189 444 128 q 442 290 467 249 q 376 367 418 332 q 283 434 333 401 q 190 508 232 467 q 126 606 149 550 q 118 743 104 663 q 211 895 135 839 q 414 951 288 951 z "},"T":{"ha":757,"x_min":88,"x_max":846,"o":"m 336 885 q 271 875 299 885 q 222 844 243 865 q 184 789 200 822 q 153 708 168 756 q 115 712 132 708 q 88 728 99 715 q 102 777 94 750 q 116 833 110 804 q 128 890 122 861 q 138 943 133 918 q 289 940 196 940 q 486 939 382 939 q 691 940 594 939 q 846 943 788 940 q 833 838 838 894 q 828 724 828 782 q 797 713 813 715 q 761 713 781 711 q 755 793 761 760 q 733 847 749 826 q 689 876 717 867 q 618 885 661 885 l 549 885 l 424 169 q 418 120 418 140 q 428 88 418 100 q 458 67 438 75 q 517 56 479 60 q 519 -4 524 26 q 429 -1 475 -1 q 342 0 383 0 q 247 -1 296 0 q 160 -4 197 -1 q 169 57 160 31 q 225 68 203 61 q 260 89 247 75 q 281 126 274 103 q 296 183 289 149 l 418 885 l 336 885 z "},"Þ":{"ha":800,"x_min":40,"x_max":799,"o":"m 263 763 q 267 819 268 797 q 256 854 265 842 q 227 873 246 867 q 179 883 208 879 q 176 912 176 897 q 178 943 175 926 q 344 939 254 939 q 514 943 431 939 q 510 912 513 926 q 501 883 508 897 q 456 872 474 879 q 426 851 438 865 q 406 813 414 838 q 390 749 399 789 q 465 750 426 750 q 536 750 503 750 q 667 728 614 750 q 749 669 719 707 q 789 583 779 632 q 789 478 799 533 q 753 383 781 431 q 680 297 725 335 q 572 234 635 258 q 432 210 510 210 q 376 215 400 210 q 338 231 351 219 q 339 275 331 253 q 411 263 360 263 q 490 272 450 263 q 563 306 529 282 q 621 372 596 331 q 657 476 646 414 q 659 566 665 525 q 629 636 653 607 q 565 681 606 665 q 463 697 524 697 q 424 696 440 697 q 381 688 407 694 l 292 176 q 285 119 285 142 q 296 85 286 97 q 324 66 306 72 q 374 56 343 60 q 376 -4 381 28 q 208 0 293 0 q 122 -1 168 0 q 40 -4 76 -1 q 51 56 40 31 q 98 65 79 58 q 128 84 117 71 q 147 119 140 97 q 161 176 154 142 l 263 763 z "},"U":{"ha":882,"x_min":107,"x_max":972,"o":"m 208 769 q 215 822 214 801 q 209 856 215 843 q 188 874 203 868 q 151 883 174 881 q 150 943 146 907 q 231 940 199 940 q 304 939 264 939 q 384 940 349 939 q 471 943 419 940 q 467 913 469 926 q 458 883 465 899 q 406 874 426 881 q 372 854 385 868 q 351 817 358 840 q 336 756 343 793 l 268 361 q 260 225 254 282 q 291 131 267 168 q 355 78 315 94 q 446 61 394 61 q 616 134 549 61 q 707 342 683 207 l 772 714 q 781 787 781 758 q 772 833 781 815 q 745 863 764 851 q 697 883 726 874 q 696 943 692 910 q 772 940 740 940 q 833 939 804 939 q 865 939 850 939 q 895 940 879 939 q 930 941 911 940 q 972 943 949 942 q 960 883 972 913 q 911 863 931 874 q 879 832 892 851 q 858 781 867 813 q 840 700 849 750 l 779 354 q 658 76 746 165 q 418 -12 569 -12 q 174 85 242 -12 q 138 356 107 182 l 208 769 z "},"Ú":{"ha":882,"x_min":107,"x_max":972,"o":"m 208 769 q 215 822 214 801 q 209 856 215 843 q 188 874 203 868 q 151 883 174 881 q 150 943 146 907 q 231 940 199 940 q 304 939 264 939 q 384 940 349 939 q 471 943 419 940 q 467 913 469 926 q 458 883 465 899 q 406 874 426 881 q 372 854 385 868 q 351 817 358 840 q 336 756 343 793 l 268 361 q 260 225 254 282 q 291 131 267 168 q 355 78 315 94 q 446 61 394 61 q 616 134 549 61 q 707 342 683 207 l 772 714 q 781 787 781 758 q 772 833 781 815 q 745 863 764 851 q 697 883 726 874 q 696 943 692 910 q 772 940 740 940 q 833 939 804 939 q 865 939 850 939 q 895 940 879 939 q 930 941 911 940 q 972 943 949 942 q 960 883 972 913 q 911 863 931 874 q 879 832 892 851 q 858 781 867 813 q 840 700 849 750 l 779 354 q 658 76 746 165 q 418 -12 569 -12 q 174 85 242 -12 q 138 356 107 182 l 208 769 m 672 1297 q 751 1306 714 1308 q 815 1285 789 1303 q 704 1170 763 1235 q 593 1035 646 1106 q 543 1054 563 1038 q 622 1190 589 1126 q 672 1297 656 1253 z "},"Û":{"ha":882,"x_min":107,"x_max":972,"o":"m 208 769 q 215 822 214 801 q 209 856 215 843 q 188 874 203 868 q 151 883 174 881 q 150 943 146 907 q 231 940 199 940 q 304 939 264 939 q 384 940 349 939 q 471 943 419 940 q 467 913 469 926 q 458 883 465 899 q 406 874 426 881 q 372 854 385 868 q 351 817 358 840 q 336 756 343 793 l 268 361 q 260 225 254 282 q 291 131 267 168 q 355 78 315 94 q 446 61 394 61 q 616 134 549 61 q 707 342 683 207 l 772 714 q 781 787 781 758 q 772 833 781 815 q 745 863 764 851 q 697 883 726 874 q 696 943 692 910 q 772 940 740 940 q 833 939 804 939 q 865 939 850 939 q 895 940 879 939 q 930 941 911 940 q 972 943 949 942 q 960 883 972 913 q 911 863 931 874 q 879 832 892 851 q 858 781 867 813 q 840 700 849 750 l 779 354 q 658 76 746 165 q 418 -12 569 -12 q 174 85 242 -12 q 138 356 107 182 l 208 769 m 631 1282 q 683 1272 657 1286 q 750 1175 715 1222 q 822 1082 785 1128 q 806 1057 818 1068 q 781 1042 794 1046 q 701 1102 742 1074 q 617 1154 660 1131 q 519 1101 567 1129 q 426 1039 472 1072 q 415 1069 418 1051 q 414 1101 411 1086 q 526 1188 472 1143 q 631 1282 581 1233 z "},"Ü":{"ha":882,"x_min":107,"x_max":972,"o":"m 442 1131 q 518 1192 453 1192 q 570 1169 554 1192 q 579 1110 586 1146 q 501 1042 561 1042 q 450 1066 467 1042 q 442 1131 433 1090 m 796 1114 q 769 1061 789 1079 q 717 1043 749 1043 q 665 1066 682 1043 q 656 1126 649 1089 q 736 1192 667 1192 q 786 1171 769 1192 q 796 1114 803 1150 m 208 769 q 215 822 214 801 q 209 856 215 843 q 188 874 203 868 q 151 883 174 881 q 150 943 146 907 q 231 940 199 940 q 304 939 264 939 q 384 940 349 939 q 471 943 419 940 q 467 913 469 926 q 458 883 465 899 q 406 874 426 881 q 372 854 385 868 q 351 817 358 840 q 336 756 343 793 l 268 361 q 260 225 254 282 q 291 131 267 168 q 355 78 315 94 q 446 61 394 61 q 616 134 549 61 q 707 342 683 207 l 772 714 q 781 787 781 758 q 772 833 781 815 q 745 863 764 851 q 697 883 726 874 q 696 943 692 910 q 772 940 740 940 q 833 939 804 939 q 865 939 850 939 q 895 940 879 939 q 930 941 911 940 q 972 943 949 942 q 960 883 972 913 q 911 863 931 874 q 879 832 892 851 q 858 781 867 813 q 840 700 849 750 l 779 354 q 658 76 746 165 q 418 -12 569 -12 q 174 85 242 -12 q 138 356 107 182 l 208 769 z "},"Ù":{"ha":882,"x_min":107,"x_max":972,"o":"m 208 769 q 215 822 214 801 q 209 856 215 843 q 188 874 203 868 q 151 883 174 881 q 150 943 146 907 q 231 940 199 940 q 304 939 264 939 q 384 940 349 939 q 471 943 419 940 q 467 913 469 926 q 458 883 465 899 q 406 874 426 881 q 372 854 385 868 q 351 817 358 840 q 336 756 343 793 l 268 361 q 260 225 254 282 q 291 131 267 168 q 355 78 315 94 q 446 61 394 61 q 616 134 549 61 q 707 342 683 207 l 772 714 q 781 787 781 758 q 772 833 781 815 q 745 863 764 851 q 697 883 726 874 q 696 943 692 910 q 772 940 740 940 q 833 939 804 939 q 865 939 850 939 q 895 940 879 939 q 930 941 911 940 q 972 943 949 942 q 960 883 972 913 q 911 863 931 874 q 879 832 892 851 q 858 781 867 813 q 840 700 849 750 l 779 354 q 658 76 746 165 q 418 -12 569 -12 q 174 85 242 -12 q 138 356 107 182 l 208 769 m 428 1281 q 491 1293 456 1292 q 558 1283 526 1294 q 582 1167 568 1225 q 619 1047 596 1110 q 596 1044 610 1043 q 571 1050 582 1044 q 506 1167 544 1103 q 428 1281 467 1232 z "},"V":{"ha":910,"x_min":139,"x_max":1007,"o":"m 876 939 q 939 940 911 939 q 1007 943 967 940 q 994 883 1007 913 q 965 865 978 875 q 938 837 953 856 q 906 788 924 818 q 864 708 889 757 q 679 358 774 532 q 476 0 585 183 q 450 -9 465 -7 q 419 -8 435 -11 q 372 194 396 93 q 325 392 349 296 q 279 574 301 488 q 238 735 257 661 q 216 807 225 779 q 197 850 207 835 q 174 873 186 865 q 144 885 163 881 q 143 943 139 910 q 226 940 190 940 q 303 939 261 939 q 388 940 349 939 q 476 943 428 940 q 474 914 476 931 q 464 882 471 897 q 404 872 426 878 q 372 849 382 865 q 365 804 363 833 q 381 726 368 775 q 447 469 415 600 q 510 196 479 339 q 657 457 588 328 q 793 725 726 586 q 822 793 813 767 q 828 837 832 819 q 806 865 824 854 q 751 883 788 875 q 750 943 746 910 q 808 940 779 940 q 876 939 836 939 z "},"W":{"ha":1338,"x_min":139,"x_max":1435,"o":"m 1303 939 q 1372 940 1338 939 q 1435 943 1407 940 q 1422 883 1435 913 q 1391 865 1406 876 q 1361 830 1376 853 q 1328 770 1346 807 q 1285 675 1310 733 q 1134 338 1211 506 q 969 0 1057 169 q 942 -8 957 -7 q 913 -7 926 -10 q 884 172 900 78 q 849 363 868 267 q 809 553 831 458 q 765 733 788 647 q 588 363 681 547 q 399 0 494 178 q 371 -9 388 -7 q 339 -8 354 -11 q 276 395 307 210 q 218 735 246 581 q 203 810 210 782 q 190 852 197 838 q 172 873 182 867 q 147 885 163 879 q 143 943 139 911 q 232 940 197 940 q 297 939 267 939 q 376 940 332 939 q 457 943 419 940 q 456 913 457 928 q 447 882 454 897 q 386 867 408 875 q 355 842 364 858 q 347 799 346 825 q 354 729 347 772 q 375 607 364 672 q 397 474 386 542 q 417 338 407 407 q 438 206 428 269 q 619 569 531 386 q 794 942 707 753 q 854 949 818 953 q 898 774 876 865 q 939 590 919 683 q 976 402 958 496 q 1007 219 993 308 q 1122 456 1068 339 q 1224 693 1175 574 q 1255 781 1246 747 q 1259 834 1264 814 q 1235 865 1254 854 q 1179 883 1215 875 q 1178 943 1174 911 q 1236 940 1206 940 q 1303 939 1267 939 z "},"X":{"ha":857,"x_min":-15,"x_max":899,"o":"m 143 943 q 233 940 199 940 q 304 939 267 939 q 385 940 346 939 q 476 943 424 940 q 464 882 476 911 q 408 867 428 876 q 383 840 389 857 q 384 797 376 824 q 411 729 392 769 q 503 533 458 631 q 576 626 539 578 q 643 719 613 675 q 686 793 674 764 q 697 840 699 822 q 682 868 696 858 q 643 883 668 878 q 642 943 638 913 q 703 940 675 940 q 760 939 731 939 q 828 940 793 939 q 899 943 863 940 q 896 915 899 931 q 886 883 893 899 q 851 874 867 881 q 818 849 836 867 q 778 799 800 831 q 721 718 756 768 q 629 591 676 654 q 532 465 582 528 q 587 338 560 401 q 642 207 614 274 q 676 131 661 158 q 705 89 690 104 q 735 67 719 74 q 771 54 750 60 q 772 -4 776 31 q 719 -2 742 -3 q 678 -1 697 -1 q 643 0 660 0 q 606 0 626 0 q 515 -1 561 0 q 439 -4 469 -1 q 451 57 439 25 q 503 69 485 61 q 526 93 521 76 q 524 138 532 110 q 499 211 517 165 q 461 303 481 257 q 422 393 442 349 q 347 294 383 340 q 269 199 310 249 q 222 100 217 132 q 274 56 228 68 q 276 26 276 40 q 275 -4 276 11 q 198 -1 231 -1 q 129 0 165 0 q 56 -1 89 0 q -15 -4 24 -1 q -3 56 -15 26 q 33 69 15 61 q 70 93 50 78 q 115 133 90 108 q 175 197 140 158 q 286 326 232 261 q 393 461 340 392 q 331 593 363 528 q 265 728 300 658 q 225 807 240 778 q 198 851 210 836 q 174 873 186 867 q 144 885 163 879 q 143 943 139 913 z "},"Y":{"ha":810,"x_min":140,"x_max":907,"o":"m 385 407 q 309 600 346 510 q 244 751 272 690 q 214 815 226 790 q 191 853 201 839 q 170 873 181 867 q 144 885 160 879 q 141 913 142 900 q 143 943 140 926 q 221 940 182 940 q 297 939 260 939 q 379 940 339 939 q 472 943 419 940 q 469 912 472 926 q 460 882 465 897 q 374 849 392 872 q 379 772 356 826 q 436 634 407 710 q 492 482 465 558 q 546 556 519 519 q 596 624 572 592 q 638 683 619 657 q 669 728 657 710 q 718 838 721 804 q 651 883 715 872 q 650 943 646 910 q 714 940 685 940 q 783 939 743 939 q 845 940 817 939 q 907 943 874 940 q 894 883 907 913 q 872 872 882 879 q 844 847 861 864 q 802 796 828 829 q 736 706 776 763 q 634 565 690 640 q 517 411 578 490 l 474 169 q 468 121 468 140 q 478 89 468 101 q 508 69 488 76 q 567 56 529 61 q 569 -4 574 26 q 479 -1 525 -1 q 392 0 433 0 q 297 -1 346 0 q 210 -4 247 -1 q 219 57 210 31 q 276 70 254 63 q 310 91 297 78 q 331 126 324 104 q 346 183 339 149 l 385 407 z "},"Ý":{"ha":810,"x_min":140,"x_max":907,"o":"m 385 407 q 309 600 346 510 q 244 751 272 690 q 214 815 226 790 q 191 853 201 839 q 170 873 181 867 q 144 885 160 879 q 141 913 142 900 q 143 943 140 926 q 221 940 182 940 q 297 939 260 939 q 379 940 339 939 q 472 943 419 940 q 469 912 472 926 q 460 882 465 897 q 374 849 392 872 q 379 772 356 826 q 436 634 407 710 q 492 482 465 558 q 546 556 519 519 q 596 624 572 592 q 638 683 619 657 q 669 728 657 710 q 718 838 721 804 q 651 883 715 872 q 650 943 646 910 q 714 940 685 940 q 783 939 743 939 q 845 940 817 939 q 907 943 874 940 q 894 883 907 913 q 872 872 882 879 q 844 847 861 864 q 802 796 828 829 q 736 706 776 763 q 634 565 690 640 q 517 411 578 490 l 474 169 q 468 121 468 140 q 478 89 468 101 q 508 69 488 76 q 567 56 529 61 q 569 -4 574 26 q 479 -1 525 -1 q 392 0 433 0 q 297 -1 346 0 q 210 -4 247 -1 q 219 57 210 31 q 276 70 254 63 q 310 91 297 78 q 331 126 324 104 q 346 183 339 149 l 385 407 m 650 1297 q 729 1306 692 1308 q 793 1285 767 1303 q 682 1170 740 1235 q 571 1035 624 1106 q 521 1054 540 1038 q 600 1190 567 1126 q 650 1297 633 1253 z "},"Z":{"ha":750,"x_min":-32,"x_max":796,"o":"m 360 63 q 466 68 424 63 q 538 92 508 74 q 590 146 568 111 q 638 239 613 181 q 707 206 681 231 q 672 107 689 163 q 646 -4 656 51 q 551 -2 596 -3 q 464 -1 507 -1 q 378 0 421 0 q 289 0 336 0 q 201 0 240 0 q 128 -1 163 0 q 58 -2 93 -1 q -18 -4 24 -3 q -31 53 -32 19 q 297 462 139 257 q 610 878 456 667 l 426 878 q 347 871 381 878 q 285 844 313 864 q 236 790 258 825 q 192 699 214 756 q 119 725 146 703 q 154 825 138 765 q 179 943 171 885 q 258 941 221 942 q 333 940 296 940 q 412 939 371 939 q 501 939 453 939 q 569 939 536 939 q 634 940 601 939 q 701 941 667 940 q 778 943 736 942 q 796 886 796 922 q 482 469 639 672 q 158 63 325 265 l 360 63 z "},"a":{"ha":671,"x_min":11,"x_max":617,"o":"m 506 204 q 493 140 497 164 q 490 104 489 117 q 498 88 492 92 q 515 83 504 83 q 547 92 531 83 q 592 125 564 101 q 607 105 601 115 q 617 82 613 94 q 541 15 583 43 q 463 -12 499 -12 q 394 10 415 -12 q 368 67 372 33 q 372 138 364 100 q 393 204 381 175 l 392 204 q 344 127 372 165 q 284 58 317 89 q 215 7 251 26 q 139 -12 178 -12 q 40 57 69 -12 q 42 281 11 126 q 93 428 58 361 q 177 544 128 496 q 287 621 226 593 q 415 649 347 649 q 456 645 435 649 q 493 636 478 642 q 536 639 514 636 q 572 649 558 642 q 583 640 578 646 q 589 621 588 635 q 588 582 590 607 q 575 515 585 557 l 506 204 m 465 564 q 381 578 429 578 q 304 560 338 578 q 246 513 271 543 q 203 439 221 482 q 176 344 186 396 q 163 163 151 226 q 217 100 175 100 q 265 125 235 100 q 326 197 294 150 q 390 313 358 244 q 442 467 421 381 l 465 564 z "},"á":{"ha":671,"x_min":11,"x_max":635,"o":"m 506 204 q 493 140 497 164 q 490 104 489 117 q 498 88 492 92 q 515 83 504 83 q 547 92 531 83 q 592 125 564 101 q 607 105 601 115 q 617 82 613 94 q 541 15 583 43 q 463 -12 499 -12 q 394 10 415 -12 q 368 67 372 33 q 372 138 364 100 q 393 204 381 175 l 392 204 q 344 127 372 165 q 284 58 317 89 q 215 7 251 26 q 139 -12 178 -12 q 40 57 69 -12 q 42 281 11 126 q 93 428 58 361 q 177 544 128 496 q 287 621 226 593 q 415 649 347 649 q 456 645 435 649 q 493 636 478 642 q 536 639 514 636 q 572 649 558 642 q 583 640 578 646 q 589 621 588 635 q 588 582 590 607 q 575 515 585 557 l 506 204 m 465 564 q 381 578 429 578 q 304 560 338 578 q 246 513 271 543 q 203 439 221 482 q 176 344 186 396 q 163 163 151 226 q 217 100 175 100 q 265 125 235 100 q 326 197 294 150 q 390 313 358 244 q 442 467 421 381 l 465 564 m 492 994 q 571 1003 533 1006 q 635 982 608 1000 q 524 867 582 932 q 413 732 465 803 q 363 751 382 735 q 442 887 408 824 q 492 994 475 950 z "},"â":{"ha":671,"x_min":11,"x_max":642,"o":"m 506 204 q 493 140 497 164 q 490 104 489 117 q 498 88 492 92 q 515 83 504 83 q 547 92 531 83 q 592 125 564 101 q 607 105 601 115 q 617 82 613 94 q 541 15 583 43 q 463 -12 499 -12 q 394 10 415 -12 q 368 67 372 33 q 372 138 364 100 q 393 204 381 175 l 392 204 q 344 127 372 165 q 284 58 317 89 q 215 7 251 26 q 139 -12 178 -12 q 40 57 69 -12 q 42 281 11 126 q 93 428 58 361 q 177 544 128 496 q 287 621 226 593 q 415 649 347 649 q 456 645 435 649 q 493 636 478 642 q 536 639 514 636 q 572 649 558 642 q 583 640 578 646 q 589 621 588 635 q 588 582 590 607 q 575 515 585 557 l 506 204 m 465 564 q 381 578 429 578 q 304 560 338 578 q 246 513 271 543 q 203 439 221 482 q 176 344 186 396 q 163 163 151 226 q 217 100 175 100 q 265 125 235 100 q 326 197 294 150 q 390 313 358 244 q 442 467 421 381 l 465 564 m 450 979 q 503 969 476 983 q 569 872 535 919 q 642 779 604 825 q 626 754 638 765 q 600 739 614 743 q 520 799 561 771 q 436 851 479 828 q 339 798 386 826 q 246 736 292 769 q 234 766 238 749 q 233 799 231 783 q 346 885 292 840 q 450 979 400 931 z "},"ä":{"ha":671,"x_min":11,"x_max":622,"o":"m 506 204 q 493 140 497 164 q 490 104 489 117 q 498 88 492 92 q 515 83 504 83 q 547 92 531 83 q 592 125 564 101 q 607 105 601 115 q 617 82 613 94 q 541 15 583 43 q 463 -12 499 -12 q 394 10 415 -12 q 368 67 372 33 q 372 138 364 100 q 393 204 381 175 l 392 204 q 344 127 372 165 q 284 58 317 89 q 215 7 251 26 q 139 -12 178 -12 q 40 57 69 -12 q 42 281 11 126 q 93 428 58 361 q 177 544 128 496 q 287 621 226 593 q 415 649 347 649 q 456 645 435 649 q 493 636 478 642 q 536 639 514 636 q 572 649 558 642 q 583 640 578 646 q 589 621 588 635 q 588 582 590 607 q 575 515 585 557 l 506 204 m 465 564 q 381 578 429 578 q 304 560 338 578 q 246 513 271 543 q 203 439 221 482 q 176 344 186 396 q 163 163 151 226 q 217 100 175 100 q 265 125 235 100 q 326 197 294 150 q 390 313 358 244 q 442 467 421 381 l 465 564 m 261 828 q 338 889 272 889 q 390 866 374 889 q 399 807 406 843 q 321 739 381 739 q 269 763 286 739 q 261 828 253 788 m 615 811 q 588 758 608 776 q 536 740 568 740 q 485 763 501 740 q 475 824 468 786 q 556 889 486 889 q 606 868 589 889 q 615 811 622 847 z "},"æ":{"ha":857,"x_min":11,"x_max":847,"o":"m 392 206 q 350 133 376 172 q 290 63 324 94 q 218 9 257 31 q 139 -12 179 -12 q 40 57 69 -12 q 42 281 11 126 q 93 428 58 361 q 177 544 128 496 q 287 621 226 593 q 415 649 347 649 q 456 645 435 649 q 493 636 478 642 q 536 639 514 636 q 572 649 558 642 q 585 638 581 646 q 588 607 589 629 q 714 649 653 649 q 783 635 756 649 q 826 601 811 622 q 844 551 840 579 q 842 494 847 524 q 801 417 833 453 q 724 356 769 382 q 627 313 679 329 q 528 294 575 297 q 524 219 524 256 q 533 154 525 182 q 560 109 542 126 q 608 92 578 92 q 678 110 639 92 q 747 165 717 129 q 776 125 768 150 q 730 75 757 100 q 672 31 703 50 q 607 -1 640 11 q 540 -12 574 -12 q 466 6 496 -12 q 418 53 436 24 q 394 123 400 83 q 393 206 389 163 l 392 206 m 465 564 q 381 578 429 578 q 304 560 338 578 q 246 513 271 543 q 203 439 221 482 q 176 344 186 396 q 163 163 151 226 q 217 100 175 100 q 265 125 235 100 q 326 198 294 150 q 390 313 358 246 q 442 467 421 381 l 465 564 m 533 346 q 665 385 611 351 q 729 476 718 418 q 731 510 732 493 q 722 541 729 526 q 701 565 714 556 q 668 574 688 574 q 592 521 628 574 q 538 376 556 468 l 533 346 z "},"à":{"ha":671,"x_min":11,"x_max":617,"o":"m 506 204 q 493 140 497 164 q 490 104 489 117 q 498 88 492 92 q 515 83 504 83 q 547 92 531 83 q 592 125 564 101 q 607 105 601 115 q 617 82 613 94 q 541 15 583 43 q 463 -12 499 -12 q 394 10 415 -12 q 368 67 372 33 q 372 138 364 100 q 393 204 381 175 l 392 204 q 344 127 372 165 q 284 58 317 89 q 215 7 251 26 q 139 -12 178 -12 q 40 57 69 -12 q 42 281 11 126 q 93 428 58 361 q 177 544 128 496 q 287 621 226 593 q 415 649 347 649 q 456 645 435 649 q 493 636 478 642 q 536 639 514 636 q 572 649 558 642 q 583 640 578 646 q 589 621 588 635 q 588 582 590 607 q 575 515 585 557 l 506 204 m 465 564 q 381 578 429 578 q 304 560 338 578 q 246 513 271 543 q 203 439 221 482 q 176 344 186 396 q 163 163 151 226 q 217 100 175 100 q 265 125 235 100 q 326 197 294 150 q 390 313 358 244 q 442 467 421 381 l 465 564 m 247 978 q 310 990 275 989 q 378 981 346 992 q 401 865 388 922 q 439 744 415 807 q 415 741 429 740 q 390 747 401 742 q 325 865 364 800 q 247 978 286 929 z "},"å":{"ha":671,"x_min":11,"x_max":617,"o":"m 506 204 q 493 140 497 164 q 490 104 489 117 q 498 88 492 92 q 515 83 504 83 q 547 92 531 83 q 592 125 564 101 q 607 105 601 115 q 617 82 613 94 q 541 15 583 43 q 463 -12 499 -12 q 394 10 415 -12 q 368 67 372 33 q 372 138 364 100 q 393 204 381 175 l 392 204 q 344 127 372 165 q 284 58 317 89 q 215 7 251 26 q 139 -12 178 -12 q 40 57 69 -12 q 42 281 11 126 q 93 428 58 361 q 177 544 128 496 q 287 621 226 593 q 415 649 347 649 q 456 645 435 649 q 493 636 478 642 q 536 639 514 636 q 572 649 558 642 q 583 640 578 646 q 589 621 588 635 q 588 582 590 607 q 575 515 585 557 l 506 204 m 465 564 q 381 578 429 578 q 304 560 338 578 q 246 513 271 543 q 203 439 221 482 q 176 344 186 396 q 163 163 151 226 q 217 100 175 100 q 265 125 235 100 q 326 197 294 150 q 390 313 358 244 q 442 467 421 381 l 465 564 m 306 868 q 354 952 314 921 q 461 983 394 983 q 560 944 526 983 q 582 840 593 906 q 535 761 575 792 q 428 731 494 731 q 328 768 361 731 q 306 868 294 806 m 379 861 q 389 803 372 825 q 438 782 406 782 q 482 798 464 782 q 504 842 500 814 q 497 910 513 885 q 449 936 482 936 q 405 915 424 936 q 379 861 386 894 z "},"ã":{"ha":671,"x_min":11,"x_max":651,"o":"m 506 204 q 493 140 497 164 q 490 104 489 117 q 498 88 492 92 q 515 83 504 83 q 547 92 531 83 q 592 125 564 101 q 607 105 601 115 q 617 82 613 94 q 541 15 583 43 q 463 -12 499 -12 q 394 10 415 -12 q 368 67 372 33 q 372 138 364 100 q 393 204 381 175 l 392 204 q 344 127 372 165 q 284 58 317 89 q 215 7 251 26 q 139 -12 178 -12 q 40 57 69 -12 q 42 281 11 126 q 93 428 58 361 q 177 544 128 496 q 287 621 226 593 q 415 649 347 649 q 456 645 435 649 q 493 636 478 642 q 536 639 514 636 q 572 649 558 642 q 583 640 578 646 q 589 621 588 635 q 588 582 590 607 q 575 515 585 557 l 506 204 m 465 564 q 381 578 429 578 q 304 560 338 578 q 246 513 271 543 q 203 439 221 482 q 176 344 186 396 q 163 163 151 226 q 217 100 175 100 q 265 125 235 100 q 326 197 294 150 q 390 313 358 244 q 442 467 421 381 l 465 564 m 357 871 q 404 862 382 871 q 447 842 426 853 q 487 822 468 831 q 525 813 506 813 q 578 826 553 813 q 626 863 603 839 q 651 835 643 856 q 607 775 628 799 q 568 738 586 751 q 533 719 550 724 q 501 714 517 714 q 456 723 478 714 q 413 744 433 732 q 370 765 392 756 q 326 774 349 774 q 266 763 294 774 q 201 721 238 751 q 188 754 185 732 q 283 847 240 822 q 357 871 325 871 z "},"b":{"ha":622,"x_min":13,"x_max":610,"o":"m 164 742 q 175 817 172 790 q 170 858 178 844 q 144 874 163 871 q 93 876 126 876 q 101 929 90 908 q 199 951 150 936 q 289 986 249 967 q 318 897 332 972 l 264 593 q 241 494 254 540 q 207 389 228 447 l 210 389 q 255 476 226 431 q 319 560 283 521 q 397 624 356 599 q 482 649 438 649 q 581 579 551 649 q 579 356 610 510 q 528 208 563 275 q 444 91 493 140 q 333 15 394 42 q 204 -12 272 -12 q 92 4 136 -12 q 13 57 47 21 q 32 97 22 71 q 51 155 42 122 q 70 225 61 188 q 86 301 79 263 l 164 742 m 157 75 q 197 61 176 64 q 240 58 217 58 q 317 76 283 58 q 375 124 350 93 q 417 197 400 154 q 444 292 433 240 q 458 473 469 410 q 404 536 446 536 q 356 511 386 536 q 294 439 326 486 q 231 324 261 392 q 179 169 200 256 l 157 75 z "},"c":{"ha":519,"x_min":33,"x_max":483,"o":"m 185 -12 q 92 17 125 -12 q 47 92 60 46 q 36 198 33 139 q 50 317 39 257 q 91 440 63 381 q 161 547 119 500 q 256 621 203 593 q 374 649 310 649 q 438 642 414 649 q 483 619 461 635 q 444 465 451 546 q 417 457 433 460 q 385 454 401 454 q 366 548 385 521 q 307 575 347 575 q 267 560 286 575 q 232 520 249 546 q 203 460 215 494 q 183 389 190 426 q 168 280 172 333 q 169 185 164 226 q 194 117 175 143 q 247 92 213 92 q 326 113 288 92 q 390 164 364 135 q 419 125 408 151 q 365 68 394 93 q 303 25 335 43 q 242 -3 272 7 q 185 -12 211 -12 z "},"ç":{"ha":519,"x_min":33,"x_max":483,"o":"m 144 -8 q 76 34 100 1 q 42 111 51 67 q 36 209 33 156 q 50 317 39 263 q 91 440 63 381 q 161 547 119 500 q 256 621 203 593 q 374 649 310 649 q 438 642 414 649 q 483 619 461 635 q 444 465 451 546 q 417 457 433 460 q 385 454 401 454 q 366 548 385 521 q 307 575 347 575 q 267 560 286 575 q 232 520 249 546 q 203 460 215 494 q 183 389 190 426 q 168 280 172 333 q 169 185 164 226 q 194 117 175 143 q 247 92 213 92 q 326 113 288 92 q 390 164 364 135 q 419 125 408 151 q 324 38 379 72 q 221 -8 269 3 l 165 -76 q 240 -122 217 -87 q 250 -219 263 -156 q 181 -309 238 -279 q 46 -336 125 -339 q 44 -292 40 -318 q 128 -275 96 -292 q 168 -222 161 -258 q 153 -161 175 -182 q 93 -140 132 -140 q 79 -119 83 -132 q 79 -87 75 -106 l 144 -8 z "},"d":{"ha":681,"x_min":11,"x_max":653,"o":"m 526 246 q 512 158 517 190 q 507 108 507 125 q 513 88 507 92 q 528 83 518 83 q 560 92 543 83 q 604 125 576 101 q 619 105 614 115 q 629 82 625 94 q 552 15 596 43 q 472 -12 508 -12 q 401 11 422 -12 q 376 69 379 35 q 381 144 372 104 q 400 218 390 185 l 399 218 q 351 137 379 178 q 290 63 324 96 q 218 8 257 29 q 139 -12 179 -12 q 40 57 69 -12 q 42 281 11 126 q 93 428 58 361 q 177 544 128 496 q 287 621 226 593 q 415 649 347 649 q 474 642 442 649 q 478 689 475 664 q 486 742 482 714 q 497 817 494 790 q 493 858 500 844 q 467 874 486 871 q 415 876 449 876 q 416 905 415 892 q 424 929 417 918 q 466 937 440 931 q 519 951 492 943 q 571 969 546 960 q 611 986 596 978 q 640 897 653 972 l 526 246 m 465 564 q 381 578 429 578 q 304 560 338 578 q 246 513 271 543 q 203 439 221 482 q 176 344 186 396 q 163 163 151 226 q 217 100 175 100 q 265 125 235 100 q 327 197 294 150 q 391 313 360 244 q 442 467 422 381 l 465 564 z "},"ı":{"ha":343,"x_min":29,"x_max":289,"o":"m 111 388 q 133 470 126 440 q 133 515 139 500 q 109 535 128 531 q 56 539 90 539 q 64 592 54 569 q 103 599 81 593 q 148 614 125 606 q 191 631 171 622 q 224 649 211 640 q 276 588 267 631 q 261 460 285 546 l 185 192 q 171 137 175 158 q 168 104 167 115 q 176 89 169 93 q 192 85 182 85 q 224 94 206 85 q 264 125 243 104 q 289 81 285 111 q 209 12 249 36 q 131 -12 169 -12 q 45 42 61 -12 q 54 188 29 97 l 111 388 z "},"ȷ":{"ha":324,"x_min":-165,"x_max":281,"o":"m 135 436 q 141 488 140 468 q 134 519 142 508 q 108 535 126 531 q 58 539 90 539 q 58 566 57 553 q 67 592 60 579 q 106 599 83 593 q 153 614 129 606 q 199 631 178 622 q 232 649 219 640 q 261 630 250 640 q 276 598 272 619 q 277 540 281 576 q 263 443 274 503 l 199 103 q 155 -51 182 17 q 86 -174 128 -119 q -12 -270 44 -228 q -144 -346 -69 -312 q -165 -300 -164 -329 q -10 -138 -65 -229 q 67 71 44 -47 l 135 436 z "},"e":{"ha":500,"x_min":32,"x_max":490,"o":"m 357 649 q 426 635 399 649 q 469 601 454 622 q 487 551 483 579 q 485 494 490 524 q 442 415 476 451 q 361 353 407 379 q 264 311 315 326 q 169 294 213 296 q 166 222 165 258 q 175 157 167 186 q 201 110 183 128 q 251 92 219 92 q 321 110 282 92 q 390 165 360 129 q 419 125 411 150 q 373 75 400 100 q 315 31 346 50 q 250 -1 283 11 q 183 -12 217 -12 q 92 16 125 -12 q 46 90 60 44 q 34 193 32 136 q 47 307 36 250 q 96 451 63 388 q 172 559 129 515 q 263 626 214 603 q 357 649 311 649 m 175 346 q 243 356 210 347 q 303 382 276 365 q 349 422 331 399 q 372 476 367 446 q 374 510 375 493 q 365 541 372 526 q 344 565 357 556 q 311 574 331 574 q 234 521 271 574 q 181 376 197 468 l 175 346 z "},"é":{"ha":500,"x_min":32,"x_max":575,"o":"m 357 649 q 426 635 399 649 q 469 601 454 622 q 487 551 483 579 q 485 494 490 524 q 442 415 476 451 q 361 353 407 379 q 264 311 315 326 q 169 294 213 296 q 166 222 165 258 q 175 157 167 186 q 201 110 183 128 q 251 92 219 92 q 321 110 282 92 q 390 165 360 129 q 419 125 411 150 q 373 75 400 100 q 315 31 346 50 q 250 -1 283 11 q 183 -12 217 -12 q 92 16 125 -12 q 46 90 60 44 q 34 193 32 136 q 47 307 36 250 q 96 451 63 388 q 172 559 129 515 q 263 626 214 603 q 357 649 311 649 m 175 346 q 243 356 210 347 q 303 382 276 365 q 349 422 331 399 q 372 476 367 446 q 374 510 375 493 q 365 541 372 526 q 344 565 357 556 q 311 574 331 574 q 234 521 271 574 q 181 376 197 468 l 175 346 m 432 994 q 511 1003 474 1006 q 575 982 549 1000 q 464 867 522 932 q 353 732 406 803 q 303 751 322 735 q 382 887 349 824 q 432 994 415 950 z "},"ê":{"ha":500,"x_min":32,"x_max":582,"o":"m 357 649 q 426 635 399 649 q 469 601 454 622 q 487 551 483 579 q 485 494 490 524 q 442 415 476 451 q 361 353 407 379 q 264 311 315 326 q 169 294 213 296 q 166 222 165 258 q 175 157 167 186 q 201 110 183 128 q 251 92 219 92 q 321 110 282 92 q 390 165 360 129 q 419 125 411 150 q 373 75 400 100 q 315 31 346 50 q 250 -1 283 11 q 183 -12 217 -12 q 92 16 125 -12 q 46 90 60 44 q 34 193 32 136 q 47 307 36 250 q 96 451 63 388 q 172 559 129 515 q 263 626 214 603 q 357 649 311 649 m 175 346 q 243 356 210 347 q 303 382 276 365 q 349 422 331 399 q 372 476 367 446 q 374 510 375 493 q 365 541 372 526 q 344 565 357 556 q 311 574 331 574 q 234 521 271 574 q 181 376 197 468 l 175 346 m 390 979 q 443 969 417 983 q 510 872 475 919 q 582 779 544 825 q 566 754 578 765 q 540 739 554 743 q 460 799 501 771 q 376 851 419 828 q 279 798 326 826 q 186 736 232 769 q 174 766 178 749 q 174 799 171 783 q 286 885 232 840 q 390 979 340 931 z "},"ë":{"ha":500,"x_min":32,"x_max":564,"o":"m 357 649 q 426 635 399 649 q 469 601 454 622 q 487 551 483 579 q 485 494 490 524 q 442 415 476 451 q 361 353 407 379 q 264 311 315 326 q 169 294 213 296 q 166 222 165 258 q 175 157 167 186 q 201 110 183 128 q 251 92 219 92 q 321 110 282 92 q 390 165 360 129 q 419 125 411 150 q 373 75 400 100 q 315 31 346 50 q 250 -1 283 11 q 183 -12 217 -12 q 92 16 125 -12 q 46 90 60 44 q 34 193 32 136 q 47 307 36 250 q 96 451 63 388 q 172 559 129 515 q 263 626 214 603 q 357 649 311 649 m 175 346 q 243 356 210 347 q 303 382 276 365 q 349 422 331 399 q 372 476 367 446 q 374 510 375 493 q 365 541 372 526 q 344 565 357 556 q 311 574 331 574 q 234 521 271 574 q 181 376 197 468 l 175 346 m 203 828 q 279 889 214 889 q 331 866 315 889 q 340 807 347 843 q 263 739 322 739 q 211 763 228 739 q 203 828 194 788 m 557 811 q 530 758 550 776 q 478 740 510 740 q 426 763 443 740 q 417 824 410 786 q 497 889 428 889 q 547 868 531 889 q 557 811 564 847 z "},"è":{"ha":500,"x_min":32,"x_max":490,"o":"m 357 649 q 426 635 399 649 q 469 601 454 622 q 487 551 483 579 q 485 494 490 524 q 442 415 476 451 q 361 353 407 379 q 264 311 315 326 q 169 294 213 296 q 166 222 165 258 q 175 157 167 186 q 201 110 183 128 q 251 92 219 92 q 321 110 282 92 q 390 165 360 129 q 419 125 411 150 q 373 75 400 100 q 315 31 346 50 q 250 -1 283 11 q 183 -12 217 -12 q 92 16 125 -12 q 46 90 60 44 q 34 193 32 136 q 47 307 36 250 q 96 451 63 388 q 172 559 129 515 q 263 626 214 603 q 357 649 311 649 m 175 346 q 243 356 210 347 q 303 382 276 365 q 349 422 331 399 q 372 476 367 446 q 374 510 375 493 q 365 541 372 526 q 344 565 357 556 q 311 574 331 574 q 234 521 271 574 q 181 376 197 468 l 175 346 m 189 978 q 252 990 217 989 q 319 981 288 992 q 343 865 329 922 q 381 744 357 807 q 357 741 371 740 q 332 747 343 742 q 267 865 306 800 q 189 978 228 929 z "},"ð":{"ha":607,"x_min":26,"x_max":610,"o":"m 601 1011 q 608 972 607 992 q 607 942 610 953 q 544 913 578 928 q 475 878 511 897 q 547 769 521 825 q 583 656 572 714 q 590 539 593 599 q 575 417 588 479 q 516 246 557 325 q 420 110 475 167 q 301 20 365 53 q 175 -12 238 -12 q 109 4 140 -12 q 58 57 78 21 q 33 148 39 93 q 42 281 26 203 q 93 428 58 361 q 177 544 128 496 q 287 621 226 593 q 415 649 347 649 q 440 647 426 649 q 465 643 453 646 q 449 748 463 699 q 404 843 435 797 q 317 797 361 821 q 225 749 272 774 q 217 787 218 768 q 218 818 215 806 l 365 892 q 242 996 321 944 q 258 1017 247 1007 q 281 1032 269 1028 q 431 925 368 981 l 601 1011 m 256 83 q 306 101 281 83 q 356 156 332 118 q 401 253 381 193 q 439 401 422 314 q 454 486 449 446 q 463 564 460 526 q 381 578 429 578 q 304 560 338 578 q 246 513 271 543 q 203 439 221 482 q 176 344 186 396 q 174 153 150 222 q 256 83 197 83 z "},"f":{"ha":406,"x_min":-203,"x_max":643,"o":"m 172 631 q 220 792 188 724 q 296 904 253 860 q 391 970 339 949 q 499 992 443 992 q 588 981 551 992 q 643 957 625 971 q 619 886 628 925 q 607 808 610 847 q 549 797 583 794 q 523 898 546 868 q 457 928 500 928 q 413 915 432 928 q 376 869 393 903 q 343 775 360 835 q 308 622 326 715 l 446 622 q 444 593 446 607 q 436 568 442 579 q 360 565 397 568 q 296 557 324 561 q 256 321 272 422 q 231 164 240 219 q 183 -41 211 53 q 115 -202 154 -135 q 28 -307 76 -269 q -76 -344 -19 -344 q -200 -294 -142 -344 q -200 -251 -203 -272 q -190 -211 -197 -231 q -119 -228 -158 -222 q -36 -233 -81 -233 q 5 -226 -12 -233 q 36 -187 22 -218 q 64 -92 50 -156 q 94 82 78 -29 q 124 300 110 185 q 161 560 138 415 q 112 565 138 563 q 63 568 86 568 q 78 622 63 600 l 171 622 l 172 631 z "},"g":{"ha":622,"x_min":-40,"x_max":585,"o":"m 413 247 q 366 158 394 204 q 301 74 338 113 q 224 12 265 36 q 139 -12 182 -12 q 40 57 69 -12 q 42 281 11 126 q 93 428 58 361 q 177 544 128 496 q 287 621 226 593 q 415 649 347 649 q 457 645 435 649 q 494 636 479 642 q 533 640 514 638 q 564 649 553 643 q 581 628 576 643 q 578 571 585 613 l 474 -17 q 357 -271 442 -194 q 140 -347 272 -347 q 34 -335 83 -347 q -40 -304 -15 -324 q -17 -228 -25 -272 q -6 -146 -8 -185 q 56 -135 19 -132 q 80 -250 58 -215 q 163 -285 101 -285 q 274 -227 228 -285 q 343 -40 319 -169 l 363 74 q 382 153 368 106 q 414 247 396 201 l 413 247 m 465 564 q 381 578 429 578 q 304 560 338 578 q 246 513 271 543 q 203 439 221 482 q 176 344 186 396 q 163 163 151 226 q 217 100 175 100 q 265 125 235 100 q 327 197 294 150 q 391 313 360 244 q 442 467 422 381 l 465 564 z "},"ß":{"ha":729,"x_min":-203,"x_max":697,"o":"m 172 628 q 210 767 185 701 q 276 883 235 833 q 378 963 318 933 q 522 992 439 992 q 619 974 583 992 q 674 930 656 957 q 694 869 692 903 q 692 806 697 836 q 664 727 682 761 q 623 667 646 693 q 576 622 600 642 q 530 586 551 603 q 494 553 508 569 q 475 519 479 538 q 481 462 468 488 q 517 413 494 436 q 567 364 540 389 q 616 308 594 339 q 649 239 638 278 q 651 147 660 200 q 582 29 638 68 q 444 -10 526 -10 q 347 7 385 -10 q 281 49 308 24 q 317 203 310 122 q 347 210 332 207 q 375 211 361 213 q 391 88 369 128 q 468 47 413 47 q 527 65 504 47 q 557 122 550 83 q 549 184 563 156 q 511 238 535 213 q 460 290 488 264 q 410 348 432 317 q 376 416 388 379 q 374 500 364 453 q 397 552 379 531 q 436 592 414 574 q 484 626 458 610 q 533 663 510 643 q 574 709 556 683 q 599 772 592 735 q 600 830 604 801 q 581 881 596 858 q 538 916 565 903 q 472 929 511 929 q 377 858 415 929 q 307 621 339 788 q 283 488 294 554 q 261 362 271 421 q 244 255 251 303 q 232 178 236 207 q 184 -33 214 63 q 115 -198 154 -129 q 26 -306 75 -267 q -81 -344 -22 -344 q -140 -332 -108 -344 q -201 -294 -171 -319 q -200 -251 -203 -272 q -192 -211 -197 -229 q -110 -228 -146 -224 q -36 -233 -75 -233 q 8 -222 -10 -233 q 40 -177 26 -211 q 67 -81 54 -143 q 94 82 79 -19 q 109 180 101 124 q 125 299 117 236 q 143 429 133 363 q 163 560 153 496 q 61 568 113 568 q 76 622 61 600 l 172 622 l 172 628 z "},"h":{"ha":700,"x_min":33,"x_max":646,"o":"m 549 213 q 532 139 538 165 q 526 100 526 113 q 530 85 525 88 q 543 82 535 82 q 581 95 558 82 q 621 125 604 108 q 646 81 640 106 q 562 10 600 33 q 486 -12 524 -12 q 425 3 444 -12 q 401 47 406 18 q 403 118 396 76 q 421 211 410 160 l 458 376 q 473 463 471 429 q 470 517 475 497 q 453 544 465 536 q 426 551 442 551 q 372 524 406 551 q 302 448 338 497 q 236 331 267 399 q 192 181 206 263 l 160 0 l 33 0 l 164 742 q 175 817 172 790 q 171 858 178 844 q 145 874 164 871 q 93 876 126 876 q 94 905 93 892 q 101 929 94 918 q 144 937 118 931 q 197 951 169 943 q 249 969 224 960 q 289 986 274 978 q 318 897 331 972 q 283 706 297 782 q 257 574 269 631 q 231 469 244 518 q 197 358 217 421 l 199 358 l 233 432 q 281 503 250 465 q 349 574 311 542 q 428 628 388 607 q 506 649 469 649 q 551 638 528 649 q 589 597 574 626 q 606 516 604 568 q 589 382 608 464 l 549 213 z "},"i":{"ha":343,"x_min":29,"x_max":358,"o":"m 290 968 q 342 945 325 968 q 350 883 358 922 q 318 824 343 847 q 258 801 293 801 q 209 824 225 801 q 200 883 193 847 q 233 945 208 922 q 290 968 258 968 m 111 388 q 133 470 126 440 q 133 515 139 500 q 109 535 128 531 q 56 539 90 539 q 64 592 54 569 q 103 599 81 593 q 148 614 125 606 q 191 631 171 622 q 224 649 211 640 q 276 588 267 631 q 261 460 285 546 l 185 192 q 171 137 175 158 q 168 104 167 115 q 176 89 169 93 q 192 85 182 85 q 224 94 206 85 q 264 125 243 104 q 289 81 285 111 q 209 12 249 36 q 131 -12 169 -12 q 45 42 61 -12 q 54 188 29 97 l 111 388 z "},"í":{"ha":343,"x_min":29,"x_max":457,"o":"m 111 388 q 133 470 126 440 q 133 515 139 500 q 109 535 128 531 q 56 539 90 539 q 64 592 54 569 q 103 599 81 593 q 148 614 125 606 q 191 631 171 622 q 224 649 211 640 q 276 588 267 631 q 261 460 285 546 l 185 192 q 171 137 175 158 q 168 104 167 115 q 176 89 169 93 q 192 85 182 85 q 224 94 206 85 q 264 125 243 104 q 289 81 285 111 q 209 12 249 36 q 131 -12 169 -12 q 45 42 61 -12 q 54 188 29 97 l 111 388 m 314 994 q 393 1003 356 1006 q 457 982 431 1000 q 346 867 404 932 q 235 732 288 803 q 185 751 204 735 q 264 887 231 824 q 314 994 297 950 z "},"î":{"ha":343,"x_min":29,"x_max":465,"o":"m 111 388 q 133 470 126 440 q 133 515 139 500 q 109 535 128 531 q 56 539 90 539 q 64 592 54 569 q 103 599 81 593 q 148 614 125 606 q 191 631 171 622 q 224 649 211 640 q 276 588 267 631 q 261 460 285 546 l 185 192 q 171 137 175 158 q 168 104 167 115 q 176 89 169 93 q 192 85 182 85 q 224 94 206 85 q 264 125 243 104 q 289 81 285 111 q 209 12 249 36 q 131 -12 169 -12 q 45 42 61 -12 q 54 188 29 97 l 111 388 m 274 979 q 326 969 300 983 q 393 872 358 919 q 465 779 428 825 q 449 754 461 765 q 424 739 438 743 q 344 799 385 771 q 260 851 303 828 q 163 798 210 826 q 69 736 115 769 q 58 766 61 749 q 57 799 54 783 q 169 885 115 840 q 274 979 224 931 z "},"ï":{"ha":343,"x_min":29,"x_max":446,"o":"m 111 388 q 133 470 126 440 q 133 515 139 500 q 109 535 128 531 q 56 539 90 539 q 64 592 54 569 q 103 599 81 593 q 148 614 125 606 q 191 631 171 622 q 224 649 211 640 q 276 588 267 631 q 261 460 285 546 l 185 192 q 171 137 175 158 q 168 104 167 115 q 176 89 169 93 q 192 85 182 85 q 224 94 206 85 q 264 125 243 104 q 289 81 285 111 q 209 12 249 36 q 131 -12 169 -12 q 45 42 61 -12 q 54 188 29 97 l 111 388 m 85 828 q 161 889 96 889 q 213 866 197 889 q 222 807 229 843 q 144 739 204 739 q 93 763 110 739 q 85 828 76 788 m 439 811 q 412 758 432 776 q 360 740 392 740 q 308 763 325 740 q 299 824 292 786 q 379 889 310 889 q 429 868 413 889 q 439 811 446 847 z "},"ì":{"ha":343,"x_min":29,"x_max":289,"o":"m 111 388 q 133 470 126 440 q 133 515 139 500 q 109 535 128 531 q 56 539 90 539 q 64 592 54 569 q 103 599 81 593 q 148 614 125 606 q 191 631 171 622 q 224 649 211 640 q 276 588 267 631 q 261 460 285 546 l 185 192 q 171 137 175 158 q 168 104 167 115 q 176 89 169 93 q 192 85 182 85 q 224 94 206 85 q 264 125 243 104 q 289 81 285 111 q 209 12 249 36 q 131 -12 169 -12 q 45 42 61 -12 q 54 188 29 97 l 111 388 m 71 978 q 134 990 99 989 q 201 981 169 992 q 225 865 211 922 q 263 744 239 807 q 239 741 253 740 q 214 747 225 742 q 149 865 188 800 q 71 978 110 929 z "},"j":{"ha":324,"x_min":-165,"x_max":351,"o":"m 283 968 q 335 945 318 968 q 343 883 351 922 q 311 824 336 847 q 251 801 286 801 q 202 824 218 801 q 193 883 186 847 q 226 945 201 922 q 283 968 251 968 m 135 436 q 141 488 140 468 q 134 519 142 508 q 108 535 126 531 q 58 539 90 539 q 58 566 57 553 q 67 592 60 579 q 106 599 83 593 q 153 614 129 606 q 199 631 178 622 q 232 649 219 640 q 261 630 250 640 q 276 598 272 619 q 277 540 281 576 q 263 443 274 503 l 199 103 q 155 -51 182 17 q 86 -174 128 -119 q -12 -270 44 -228 q -144 -346 -69 -312 q -165 -300 -164 -329 q -10 -138 -65 -229 q 67 71 44 -47 l 135 436 z "},"k":{"ha":606,"x_min":33,"x_max":585,"o":"m 215 429 q 314 588 256 526 q 454 649 372 649 q 553 605 521 649 q 574 500 585 561 q 542 430 567 463 q 483 372 518 397 q 403 331 447 347 q 314 308 360 314 q 417 149 358 271 q 449 97 436 108 q 482 86 463 86 q 510 95 496 86 q 544 126 524 104 q 569 82 561 108 q 495 15 536 42 q 425 -12 454 -12 q 379 -6 397 -12 q 347 15 361 0 q 320 54 332 29 q 294 115 308 79 q 256 202 275 165 q 210 281 238 239 q 206 263 207 271 q 203 244 204 254 l 160 0 l 33 0 l 164 742 q 175 817 172 790 q 171 858 178 844 q 145 874 164 871 q 93 876 126 876 q 101 929 90 908 q 144 937 118 931 q 197 951 169 943 q 249 969 224 960 q 289 986 274 978 q 318 897 332 972 q 288 729 300 797 q 264 610 275 661 q 241 518 253 560 q 214 429 229 476 l 215 429 m 446 475 q 436 531 453 511 q 392 550 419 550 q 353 535 374 550 q 310 494 332 521 q 267 429 288 467 q 231 347 247 392 q 376 387 315 356 q 446 475 436 418 z "},"l":{"ha":353,"x_min":46,"x_max":331,"o":"m 206 311 q 185 192 190 238 q 180 124 179 147 q 188 92 181 100 q 206 85 194 85 q 236 94 219 85 q 276 125 253 103 q 301 83 294 108 q 226 15 268 43 q 144 -12 183 -12 q 50 100 46 -12 q 51 135 50 117 q 57 181 53 153 q 69 252 61 210 q 89 360 76 294 q 119 519 101 426 q 164 742 138 613 q 176 816 174 789 q 171 857 178 843 q 145 874 164 871 q 93 876 126 876 q 94 905 93 892 q 101 929 94 918 q 144 937 118 931 q 197 951 169 943 q 249 969 224 960 q 289 986 274 978 q 318 897 331 972 q 262 593 290 739 q 206 311 233 447 z "},"m":{"ha":1081,"x_min":51,"x_max":1026,"o":"m 128 404 q 139 480 136 453 q 134 520 142 507 q 108 536 126 533 q 56 539 89 539 q 56 563 56 544 q 64 592 57 581 q 106 599 81 593 q 159 614 132 606 q 210 631 186 622 q 250 649 235 640 q 279 558 292 635 q 256 460 268 499 q 229 386 244 421 l 231 386 l 251 432 q 298 505 267 467 q 367 575 329 543 q 448 628 406 607 q 528 649 490 649 q 565 641 546 649 q 600 615 585 633 q 622 565 615 596 q 621 489 629 535 q 608 437 615 461 q 590 386 601 413 l 592 386 l 613 432 q 659 502 628 465 q 729 570 690 539 q 810 622 768 601 q 889 642 853 642 q 949 622 926 642 q 980 568 971 603 q 985 484 989 533 q 967 375 982 435 l 925 213 q 908 144 914 169 q 903 105 903 118 q 909 88 903 92 q 926 83 915 83 q 960 92 942 83 q 1003 125 978 101 q 1026 81 1022 107 q 952 15 994 43 q 869 -12 910 -12 q 810 -1 831 -12 q 783 35 789 10 q 781 104 776 61 q 800 211 786 147 l 836 369 q 851 456 849 422 q 850 510 854 490 q 835 537 846 529 q 810 544 825 544 q 756 522 789 544 q 687 453 722 499 q 620 339 651 407 q 571 181 589 271 l 536 0 l 411 0 l 475 313 q 495 438 492 390 q 494 510 499 485 q 476 543 489 535 q 449 551 464 551 q 394 526 428 551 q 326 453 361 501 q 260 337 292 406 q 213 181 229 268 l 178 0 l 51 0 l 128 404 z "},"n":{"ha":719,"x_min":50,"x_max":665,"o":"m 568 213 q 551 139 557 165 q 545 100 546 113 q 549 85 544 88 q 563 82 554 82 q 601 95 578 82 q 640 125 624 108 q 665 81 660 106 q 581 10 619 33 q 506 -12 543 -12 q 444 3 464 -12 q 420 47 425 18 q 422 118 415 76 q 440 211 429 160 l 478 376 q 492 463 490 429 q 490 517 494 497 q 473 544 485 536 q 446 551 461 551 q 391 524 425 551 q 322 448 357 497 q 257 331 288 399 q 211 181 226 263 l 176 0 l 50 0 l 126 404 q 138 480 135 453 q 133 520 140 507 q 108 536 126 533 q 56 539 89 539 q 56 567 56 554 q 64 592 57 581 q 106 599 81 593 q 160 614 132 606 q 213 631 188 622 q 253 649 238 640 q 282 558 294 635 q 258 459 271 499 q 229 385 244 419 l 231 385 l 253 432 q 300 503 269 465 q 369 574 331 542 q 448 628 407 607 q 525 649 489 649 q 570 638 547 649 q 608 597 593 626 q 626 516 624 568 q 608 382 628 464 l 568 213 z "},"ñ":{"ha":719,"x_min":50,"x_max":665,"o":"m 568 213 q 551 139 557 165 q 545 100 546 113 q 549 85 544 88 q 563 82 554 82 q 601 95 578 82 q 640 125 624 108 q 665 81 660 106 q 581 10 619 33 q 506 -12 543 -12 q 444 3 464 -12 q 420 47 425 18 q 422 118 415 76 q 440 211 429 160 l 478 376 q 492 463 490 429 q 490 517 494 497 q 473 544 485 536 q 446 551 461 551 q 391 524 425 551 q 322 448 357 497 q 257 331 288 399 q 211 181 226 263 l 176 0 l 50 0 l 126 404 q 138 480 135 453 q 133 520 140 507 q 108 536 126 533 q 56 539 89 539 q 56 567 56 554 q 64 592 57 581 q 106 599 81 593 q 160 614 132 606 q 213 631 188 622 q 253 649 238 640 q 282 558 294 635 q 258 459 271 499 q 229 385 244 419 l 231 385 l 253 432 q 300 503 269 465 q 369 574 331 542 q 448 628 407 607 q 525 649 489 649 q 570 638 547 649 q 608 597 593 626 q 626 516 624 568 q 608 382 628 464 l 568 213 m 371 871 q 418 862 396 871 q 461 842 440 853 q 501 822 482 831 q 539 813 519 813 q 592 826 567 813 q 640 863 617 839 q 665 835 657 856 q 621 775 642 799 q 582 738 600 751 q 547 719 564 724 q 515 714 531 714 q 469 723 492 714 q 426 744 447 732 q 384 765 406 756 q 340 774 363 774 q 280 763 308 774 q 215 721 251 751 q 201 754 199 732 q 297 847 254 822 q 371 871 339 871 z "},"o":{"ha":632,"x_min":32,"x_max":597,"o":"m 378 649 q 483 626 438 649 q 555 560 528 603 q 590 457 582 517 q 583 325 597 397 q 538 187 569 249 q 463 81 507 125 q 365 12 419 36 q 249 -12 310 -12 q 145 10 189 -12 q 74 73 101 32 q 40 172 47 114 q 46 299 32 229 q 92 442 61 378 q 167 553 124 507 q 265 624 211 599 q 378 649 318 649 m 360 581 q 299 562 328 581 q 246 508 271 543 q 202 425 221 474 q 172 317 183 376 q 172 125 149 197 q 258 53 196 53 q 320 72 290 53 q 375 124 350 90 q 419 206 400 158 q 450 311 439 253 q 448 506 472 432 q 360 581 424 581 z "},"ó":{"ha":632,"x_min":32,"x_max":610,"o":"m 378 649 q 483 626 438 649 q 555 560 528 603 q 590 457 582 517 q 583 325 597 397 q 538 187 569 249 q 463 81 507 125 q 365 12 419 36 q 249 -12 310 -12 q 145 10 189 -12 q 74 73 101 32 q 40 172 47 114 q 46 299 32 229 q 92 442 61 378 q 167 553 124 507 q 265 624 211 599 q 378 649 318 649 m 360 581 q 299 562 328 581 q 246 508 271 543 q 202 425 221 474 q 172 317 183 376 q 172 125 149 197 q 258 53 196 53 q 320 72 290 53 q 375 124 350 90 q 419 206 400 158 q 450 311 439 253 q 448 506 472 432 q 360 581 424 581 m 467 994 q 546 1003 508 1006 q 610 982 583 1000 q 499 867 557 932 q 388 732 440 803 q 338 751 357 735 q 417 887 383 824 q 467 994 450 950 z "},"ô":{"ha":632,"x_min":32,"x_max":617,"o":"m 378 649 q 483 626 438 649 q 555 560 528 603 q 590 457 582 517 q 583 325 597 397 q 538 187 569 249 q 463 81 507 125 q 365 12 419 36 q 249 -12 310 -12 q 145 10 189 -12 q 74 73 101 32 q 40 172 47 114 q 46 299 32 229 q 92 442 61 378 q 167 553 124 507 q 265 624 211 599 q 378 649 318 649 m 360 581 q 299 562 328 581 q 246 508 271 543 q 202 425 221 474 q 172 317 183 376 q 172 125 149 197 q 258 53 196 53 q 320 72 290 53 q 375 124 350 90 q 419 206 400 158 q 450 311 439 253 q 448 506 472 432 q 360 581 424 581 m 425 979 q 478 969 451 983 q 544 872 510 919 q 617 779 579 825 q 601 754 613 765 q 575 739 589 743 q 495 799 536 771 q 411 851 454 828 q 314 798 361 826 q 221 736 267 769 q 209 766 213 749 q 208 799 206 783 q 321 885 267 840 q 425 979 375 931 z "},"ö":{"ha":632,"x_min":32,"x_max":599,"o":"m 378 649 q 483 626 438 649 q 555 560 528 603 q 590 457 582 517 q 583 325 597 397 q 538 187 569 249 q 463 81 507 125 q 365 12 419 36 q 249 -12 310 -12 q 145 10 189 -12 q 74 73 101 32 q 40 172 47 114 q 46 299 32 229 q 92 442 61 378 q 167 553 124 507 q 265 624 211 599 q 378 649 318 649 m 360 581 q 299 562 328 581 q 246 508 271 543 q 202 425 221 474 q 172 317 183 376 q 172 125 149 197 q 258 53 196 53 q 320 72 290 53 q 375 124 350 90 q 419 206 400 158 q 450 311 439 253 q 448 506 472 432 q 360 581 424 581 m 238 828 q 314 889 249 889 q 366 866 350 889 q 375 807 382 843 q 297 739 357 739 q 246 763 263 739 q 238 828 229 788 m 592 811 q 565 758 585 776 q 513 740 544 740 q 461 763 478 740 q 451 824 444 786 q 532 889 463 889 q 582 868 565 889 q 592 811 599 847 z "},"ò":{"ha":632,"x_min":32,"x_max":597,"o":"m 378 649 q 483 626 438 649 q 555 560 528 603 q 590 457 582 517 q 583 325 597 397 q 538 187 569 249 q 463 81 507 125 q 365 12 419 36 q 249 -12 310 -12 q 145 10 189 -12 q 74 73 101 32 q 40 172 47 114 q 46 299 32 229 q 92 442 61 378 q 167 553 124 507 q 265 624 211 599 q 378 649 318 649 m 360 581 q 299 562 328 581 q 246 508 271 543 q 202 425 221 474 q 172 317 183 376 q 172 125 149 197 q 258 53 196 53 q 320 72 290 53 q 375 124 350 90 q 419 206 400 158 q 450 311 439 253 q 448 506 472 432 q 360 581 424 581 m 222 978 q 285 990 250 989 q 353 981 321 992 q 376 865 363 922 q 414 744 390 807 q 390 741 404 740 q 365 747 376 742 q 300 865 339 800 q 222 978 261 929 z "},"ª":{"ha":629,"x_min":139,"x_max":594,"o":"m 511 661 q 503 599 501 611 q 518 588 504 588 q 540 594 526 588 q 568 615 553 600 q 585 594 578 608 q 594 569 592 581 q 536 521 568 540 q 479 501 504 501 q 426 519 443 501 q 407 560 410 536 q 410 613 404 585 q 426 661 417 640 l 424 661 q 388 605 408 633 q 344 553 368 576 q 291 516 319 531 q 233 501 263 501 q 160 553 182 501 q 163 719 139 604 q 201 831 175 779 q 263 918 226 882 q 346 975 300 954 q 442 996 392 996 q 500 986 474 996 q 531 988 514 985 q 560 996 549 990 q 575 972 572 989 q 565 899 578 956 l 511 661 m 475 929 q 415 938 447 938 q 321 892 356 938 q 269 769 286 846 q 257 642 251 682 q 290 601 263 601 q 324 617 303 601 q 367 664 344 632 q 414 744 390 696 q 456 860 438 793 l 475 929 z "},"º":{"ha":574,"x_min":146,"x_max":593,"o":"m 419 996 q 552 930 511 996 q 574 751 593 864 q 539 646 563 693 q 481 565 515 599 q 405 515 447 532 q 317 497 363 497 q 185 560 225 497 q 164 731 146 624 q 199 841 175 792 q 257 924 224 890 q 332 977 290 958 q 419 996 374 996 m 408 938 q 334 891 367 938 q 285 750 301 844 q 281 606 268 657 q 326 556 293 556 q 401 602 367 556 q 451 744 435 649 q 460 821 460 786 q 456 882 461 856 q 438 923 450 908 q 408 938 426 938 z "},"ø":{"ha":647,"x_min":-14,"x_max":663,"o":"m 596 672 q 663 654 636 676 q 615 604 639 631 q 563 549 590 578 q 585 325 610 463 q 540 187 571 249 q 465 81 508 125 q 366 12 421 36 q 250 -12 311 -12 q 108 36 161 -12 l 46 -37 q 13 -30 29 -37 q -14 -10 -4 -22 l 69 83 q 47 299 22 167 q 94 442 63 378 q 169 553 125 507 q 266 624 213 599 q 379 649 319 649 q 462 635 425 649 q 526 596 499 621 l 596 672 m 449 508 q 361 581 425 581 q 301 562 329 581 q 247 508 272 543 q 203 425 222 474 q 174 317 185 376 q 163 188 158 242 l 449 508 m 451 311 q 461 378 458 347 q 461 438 464 410 q 317 275 390 358 q 176 115 243 192 q 260 53 203 53 q 322 72 292 53 q 376 124 351 90 q 421 206 401 158 q 451 311 440 253 z "},"õ":{"ha":632,"x_min":32,"x_max":626,"o":"m 378 649 q 483 626 438 649 q 555 560 528 603 q 590 457 582 517 q 583 325 597 397 q 538 187 569 249 q 463 81 507 125 q 365 12 419 36 q 249 -12 310 -12 q 145 10 189 -12 q 74 73 101 32 q 40 172 47 114 q 46 299 32 229 q 92 442 61 378 q 167 553 124 507 q 265 624 211 599 q 378 649 318 649 m 360 581 q 299 562 328 581 q 246 508 271 543 q 202 425 221 474 q 172 317 183 376 q 172 125 149 197 q 258 53 196 53 q 320 72 290 53 q 375 124 350 90 q 419 206 400 158 q 450 311 439 253 q 448 506 472 432 q 360 581 424 581 m 332 871 q 379 862 357 871 q 422 842 401 853 q 462 822 443 831 q 500 813 481 813 q 553 826 528 813 q 601 863 578 839 q 626 835 618 856 q 582 775 603 799 q 543 738 561 751 q 508 719 525 724 q 476 714 492 714 q 431 723 453 714 q 388 744 408 732 q 345 765 367 756 q 301 774 324 774 q 241 763 269 774 q 176 721 213 751 q 163 754 160 732 q 258 847 215 822 q 332 871 300 871 z "},"p":{"ha":647,"x_min":-4,"x_max":636,"o":"m 239 397 q 283 483 256 439 q 347 565 311 528 q 423 626 382 601 q 508 650 464 650 q 607 581 578 650 q 606 357 636 511 q 554 209 589 276 q 470 92 519 142 q 360 16 421 43 q 232 -11 300 -11 q 200 -8 217 -11 q 168 -3 183 -6 q 167 -65 171 -31 q 154 -158 164 -100 l 122 -340 l -4 -340 l 126 401 q 138 477 135 450 q 133 517 140 504 q 108 533 126 531 q 56 536 89 536 q 56 565 56 551 q 64 589 57 578 q 106 597 81 590 q 159 611 132 603 q 211 628 186 619 q 251 646 236 638 q 281 557 293 632 q 263 476 274 515 q 236 397 253 438 l 239 397 m 182 74 q 267 60 218 60 q 343 77 310 60 q 401 125 376 94 q 443 199 426 156 q 471 293 460 242 q 484 474 496 411 q 431 538 472 538 q 383 513 413 538 q 320 440 353 488 q 256 325 288 393 q 206 171 225 257 l 182 74 z "},"q":{"ha":642,"x_min":11,"x_max":608,"o":"m 411 247 q 366 158 394 204 q 301 74 338 113 q 224 12 265 36 q 139 -12 182 -12 q 40 57 69 -12 q 42 281 11 126 q 93 428 58 361 q 177 544 128 496 q 287 621 226 593 q 415 649 347 649 q 529 632 485 649 q 608 579 574 615 q 589 539 599 564 q 569 481 579 514 q 551 411 560 449 q 535 335 542 374 l 417 -336 l 290 -336 l 363 74 q 382 153 368 106 q 414 247 396 201 l 411 247 m 465 564 q 381 578 429 578 q 304 560 338 578 q 246 513 271 543 q 203 439 221 482 q 176 344 186 396 q 163 163 151 226 q 217 100 175 100 q 265 125 235 100 q 327 197 294 150 q 390 313 360 244 q 442 467 421 381 l 465 564 z "},"r":{"ha":508,"x_min":44,"x_max":542,"o":"m 122 404 q 135 480 132 453 q 131 520 138 507 q 106 536 124 533 q 54 539 88 539 q 56 567 54 554 q 64 592 57 581 q 106 599 81 593 q 159 614 132 606 q 211 631 186 622 q 251 649 236 640 q 279 560 293 635 q 218 376 265 486 l 221 376 l 244 428 q 292 513 265 474 q 348 583 319 553 q 406 631 376 614 q 464 649 436 649 q 508 642 490 649 q 542 624 526 636 q 517 547 526 592 q 504 463 507 501 q 446 451 481 449 q 442 501 444 482 q 435 529 439 519 q 425 542 431 539 q 411 544 419 544 q 366 515 392 544 q 311 433 340 486 q 240 282 267 353 q 196 124 214 211 l 172 0 l 44 0 l 122 404 z "},"s":{"ha":503,"x_min":7,"x_max":479,"o":"m 225 47 q 278 62 254 47 q 308 106 303 76 q 299 163 314 136 q 257 217 283 190 q 199 272 231 243 q 143 334 168 300 q 104 409 118 368 q 100 503 90 450 q 165 611 113 574 q 306 649 218 649 q 399 634 350 649 q 479 590 449 619 q 458 526 464 558 q 449 454 451 493 q 390 443 425 440 q 357 549 388 510 q 271 588 326 588 q 218 572 238 588 q 194 532 199 556 q 204 473 188 500 q 249 420 221 446 q 309 367 276 394 q 367 306 342 339 q 407 231 393 272 q 411 138 421 190 q 343 26 397 65 q 197 -12 289 -12 q 88 9 139 -12 q 7 67 38 31 q 28 134 22 99 q 38 208 35 169 q 96 219 61 222 q 104 153 94 185 q 131 99 114 122 q 172 61 149 75 q 225 47 196 47 z "},"t":{"ha":439,"x_min":58,"x_max":433,"o":"m 224 282 q 208 185 211 225 q 209 121 204 146 q 226 85 214 96 q 256 74 239 74 q 308 91 279 74 q 358 136 336 108 q 377 117 369 129 q 388 92 385 104 q 353 55 374 74 q 309 22 333 36 q 258 -3 285 7 q 203 -12 231 -12 q 88 55 115 -12 q 96 272 61 122 l 161 560 q 110 565 138 563 q 58 568 83 568 q 74 622 58 600 l 176 622 l 179 636 q 203 749 194 700 q 215 828 213 799 q 274 841 243 832 q 325 861 306 850 q 338 849 333 857 q 343 823 343 840 q 338 774 343 806 q 319 690 332 742 l 304 622 l 433 622 q 431 593 433 607 q 424 568 429 579 q 351 565 386 568 q 289 558 317 563 l 224 282 z "},"þ":{"ha":626,"x_min":-26,"x_max":614,"o":"m 217 397 q 262 483 233 439 q 326 565 290 528 q 402 626 361 601 q 486 650 443 650 q 585 581 556 650 q 583 357 614 511 q 532 209 567 276 q 448 92 497 142 q 338 16 399 43 q 210 -11 278 -11 q 150 -4 182 -11 q 142 -107 151 -53 l 100 -340 l -26 -340 l 164 742 q 175 817 172 790 q 170 858 178 844 q 144 874 163 871 q 93 876 126 876 q 94 905 93 892 q 101 929 94 918 q 144 937 118 931 q 197 951 169 943 q 249 969 224 960 q 289 986 274 978 q 318 897 331 972 q 287 725 300 797 q 263 597 274 653 q 240 494 251 540 q 214 397 228 447 l 217 397 m 160 74 q 244 60 196 60 q 321 77 288 60 q 379 125 354 94 q 421 199 404 156 q 449 293 438 242 q 462 474 474 411 q 408 538 450 538 q 360 513 390 538 q 298 440 331 488 q 234 325 265 393 q 183 171 203 257 l 160 74 z "},"u":{"ha":706,"x_min":54,"x_max":651,"o":"m 428 210 q 384 136 411 175 q 322 64 357 97 q 249 9 288 31 q 169 -12 210 -12 q 99 17 121 -12 q 72 94 76 47 q 75 199 67 142 q 97 313 83 257 q 127 442 118 396 q 132 509 136 488 q 110 535 128 531 q 57 539 92 539 q 56 566 54 551 q 64 592 57 581 q 105 599 79 593 q 158 614 131 606 q 210 631 186 622 q 249 649 235 640 q 272 628 264 639 q 277 583 279 617 q 260 485 275 550 q 218 303 246 419 q 242 90 165 90 q 293 113 261 90 q 360 183 325 136 q 426 301 394 231 q 475 468 457 372 l 507 636 l 633 636 l 565 292 q 543 176 550 218 q 535 114 536 135 q 539 88 533 93 q 557 83 544 83 q 587 93 572 83 q 625 126 601 103 q 641 106 635 118 q 651 82 647 94 q 576 15 618 43 q 496 -12 533 -12 q 413 31 432 -12 q 408 143 394 74 q 431 210 415 179 l 428 210 z "},"ú":{"ha":706,"x_min":54,"x_max":651,"o":"m 428 210 q 384 136 411 175 q 322 64 357 97 q 249 9 288 31 q 169 -12 210 -12 q 99 17 121 -12 q 72 94 76 47 q 75 199 67 142 q 97 313 83 257 q 127 442 118 396 q 132 509 136 488 q 110 535 128 531 q 57 539 92 539 q 56 566 54 551 q 64 592 57 581 q 105 599 79 593 q 158 614 131 606 q 210 631 186 622 q 249 649 235 640 q 272 628 264 639 q 277 583 279 617 q 260 485 275 550 q 218 303 246 419 q 242 90 165 90 q 293 113 261 90 q 360 183 325 136 q 426 301 394 231 q 475 468 457 372 l 507 636 l 633 636 l 565 292 q 543 176 550 218 q 535 114 536 135 q 539 88 533 93 q 557 83 544 83 q 587 93 572 83 q 625 126 601 103 q 641 106 635 118 q 651 82 647 94 q 576 15 618 43 q 496 -12 533 -12 q 413 31 432 -12 q 408 143 394 74 q 431 210 415 179 l 428 210 m 474 994 q 553 1003 515 1006 q 617 982 590 1000 q 506 867 564 932 q 394 732 447 803 q 344 751 364 735 q 424 887 390 824 q 474 994 457 950 z "},"û":{"ha":706,"x_min":54,"x_max":651,"o":"m 428 210 q 384 136 411 175 q 322 64 357 97 q 249 9 288 31 q 169 -12 210 -12 q 99 17 121 -12 q 72 94 76 47 q 75 199 67 142 q 97 313 83 257 q 127 442 118 396 q 132 509 136 488 q 110 535 128 531 q 57 539 92 539 q 56 566 54 551 q 64 592 57 581 q 105 599 79 593 q 158 614 131 606 q 210 631 186 622 q 249 649 235 640 q 272 628 264 639 q 277 583 279 617 q 260 485 275 550 q 218 303 246 419 q 242 90 165 90 q 293 113 261 90 q 360 183 325 136 q 426 301 394 231 q 475 468 457 372 l 507 636 l 633 636 l 565 292 q 543 176 550 218 q 535 114 536 135 q 539 88 533 93 q 557 83 544 83 q 587 93 572 83 q 625 126 601 103 q 641 106 635 118 q 651 82 647 94 q 576 15 618 43 q 496 -12 533 -12 q 413 31 432 -12 q 408 143 394 74 q 431 210 415 179 l 428 210 m 432 979 q 485 969 458 983 q 551 872 517 919 q 624 779 586 825 q 608 754 619 765 q 582 739 596 743 q 502 799 543 771 q 418 851 461 828 q 321 798 368 826 q 228 736 274 769 q 216 766 219 749 q 215 799 213 783 q 328 885 274 840 q 432 979 382 931 z "},"ü":{"ha":706,"x_min":54,"x_max":651,"o":"m 428 210 q 384 136 411 175 q 322 64 357 97 q 249 9 288 31 q 169 -12 210 -12 q 99 17 121 -12 q 72 94 76 47 q 75 199 67 142 q 97 313 83 257 q 127 442 118 396 q 132 509 136 488 q 110 535 128 531 q 57 539 92 539 q 56 566 54 551 q 64 592 57 581 q 105 599 79 593 q 158 614 131 606 q 210 631 186 622 q 249 649 235 640 q 272 628 264 639 q 277 583 279 617 q 260 485 275 550 q 218 303 246 419 q 242 90 165 90 q 293 113 261 90 q 360 183 325 136 q 426 301 394 231 q 475 468 457 372 l 507 636 l 633 636 l 565 292 q 543 176 550 218 q 535 114 536 135 q 539 88 533 93 q 557 83 544 83 q 587 93 572 83 q 625 126 601 103 q 641 106 635 118 q 651 82 647 94 q 576 15 618 43 q 496 -12 533 -12 q 413 31 432 -12 q 408 143 394 74 q 431 210 415 179 l 428 210 m 243 828 q 319 889 254 889 q 372 866 356 889 q 381 807 388 843 q 303 739 363 739 q 251 763 268 739 q 243 828 235 788 m 597 811 q 570 758 590 776 q 518 740 550 740 q 467 763 483 740 q 457 824 450 786 q 538 889 468 889 q 588 868 571 889 q 597 811 604 847 z "},"ù":{"ha":706,"x_min":54,"x_max":651,"o":"m 428 210 q 384 136 411 175 q 322 64 357 97 q 249 9 288 31 q 169 -12 210 -12 q 99 17 121 -12 q 72 94 76 47 q 75 199 67 142 q 97 313 83 257 q 127 442 118 396 q 132 509 136 488 q 110 535 128 531 q 57 539 92 539 q 56 566 54 551 q 64 592 57 581 q 105 599 79 593 q 158 614 131 606 q 210 631 186 622 q 249 649 235 640 q 272 628 264 639 q 277 583 279 617 q 260 485 275 550 q 218 303 246 419 q 242 90 165 90 q 293 113 261 90 q 360 183 325 136 q 426 301 394 231 q 475 468 457 372 l 507 636 l 633 636 l 565 292 q 543 176 550 218 q 535 114 536 135 q 539 88 533 93 q 557 83 544 83 q 587 93 572 83 q 625 126 601 103 q 641 106 635 118 q 651 82 647 94 q 576 15 618 43 q 496 -12 533 -12 q 413 31 432 -12 q 408 143 394 74 q 431 210 415 179 l 428 210 m 229 978 q 292 990 257 989 q 360 981 328 992 q 383 865 369 922 q 421 744 397 807 q 397 741 411 740 q 372 747 383 742 q 307 865 346 800 q 229 978 268 929 z "},"v":{"ha":661,"x_min":47,"x_max":624,"o":"m 543 650 q 603 601 582 635 q 624 507 624 568 q 608 417 624 467 q 552 306 592 368 q 447 165 513 243 q 281 -12 381 88 q 214 0 242 -15 q 187 249 206 131 q 147 453 168 367 q 134 495 140 478 q 117 523 128 513 q 90 537 107 533 q 47 539 74 540 q 49 563 47 544 q 54 592 50 581 q 130 614 89 596 q 193 649 171 632 q 224 633 213 642 q 244 606 236 624 q 257 563 251 589 q 271 494 263 536 q 289 392 281 444 q 304 288 297 339 q 316 190 311 238 q 324 106 321 143 q 456 294 413 210 q 499 429 499 378 q 479 507 499 483 q 414 538 460 531 q 406 589 403 561 q 444 602 424 594 q 484 618 465 610 q 519 635 503 626 q 543 650 535 643 z "},"w":{"ha":978,"x_min":47,"x_max":939,"o":"m 856 649 q 917 600 894 633 q 939 504 939 567 q 926 417 939 464 q 877 308 913 369 q 779 167 842 246 q 618 -12 717 89 q 551 0 579 -15 q 534 169 544 90 q 513 311 524 247 q 478 233 497 269 q 433 158 460 196 q 368 79 406 121 q 281 -12 331 38 q 214 0 242 -15 q 187 249 206 131 q 147 453 168 367 q 134 495 140 478 q 117 523 128 513 q 90 537 107 533 q 47 539 74 540 q 49 563 47 544 q 54 592 50 581 q 130 614 89 596 q 193 649 171 632 q 224 633 213 642 q 244 606 236 624 q 257 563 251 589 q 271 494 263 536 q 289 394 281 446 q 304 291 297 342 q 316 194 311 240 q 324 110 321 147 q 408 224 375 169 q 456 338 442 279 q 467 460 471 396 q 443 604 464 525 q 488 623 467 611 q 519 649 508 635 q 546 638 536 644 q 564 615 556 631 q 579 571 572 599 q 596 496 586 543 q 616 395 606 447 q 635 292 626 343 q 649 195 643 242 q 660 111 656 149 q 779 295 743 215 q 815 426 815 375 q 794 506 815 481 q 726 538 772 532 q 718 589 715 561 q 757 601 736 594 q 797 617 778 608 q 831 633 815 625 q 856 649 847 642 z "},"x":{"ha":644,"x_min":-31,"x_max":622,"o":"m 492 544 q 458 527 476 544 q 420 481 439 510 q 383 415 401 451 q 349 339 364 378 q 385 226 368 276 q 419 138 403 175 q 447 93 435 103 q 475 83 460 83 q 507 93 490 83 q 551 126 524 103 q 576 82 568 108 q 501 15 543 43 q 418 -12 458 -12 q 351 3 374 -12 q 314 56 329 19 q 285 131 299 92 q 257 210 271 169 q 213 131 238 171 q 160 60 189 92 q 101 8 132 28 q 38 -12 69 -12 q -2 -8 13 -12 q -31 7 -17 -4 q -12 83 -19 39 q -6 167 -6 126 q 22 177 6 174 q 56 179 39 181 q 66 118 58 131 q 88 106 74 106 q 119 120 101 106 q 157 160 138 135 q 195 218 176 185 q 231 289 214 251 q 205 377 217 333 q 185 458 193 421 q 149 524 174 507 q 71 539 124 542 q 78 592 67 568 q 117 599 94 593 q 161 614 139 606 q 202 631 183 622 q 232 649 221 640 q 263 630 253 644 q 283 575 274 615 q 303 498 293 536 q 324 424 313 460 q 367 503 343 463 q 420 575 392 543 q 480 628 449 607 q 544 649 511 649 q 589 642 571 649 q 622 624 607 636 q 597 547 607 592 q 585 463 588 501 q 526 451 561 449 q 522 501 525 482 q 515 529 519 519 q 506 542 511 539 q 492 544 500 544 z "},"y":{"ha":621,"x_min":-175,"x_max":589,"o":"m 164 649 q 192 635 181 643 q 210 614 203 628 q 224 577 218 600 q 238 517 231 554 q 274 289 261 394 q 292 69 288 183 q 423 306 383 208 q 463 463 463 404 q 447 511 463 492 q 385 538 431 531 q 376 589 374 561 q 415 602 394 594 q 455 618 436 610 q 490 635 474 626 q 514 650 506 643 q 571 606 553 635 q 589 540 589 576 q 524 329 589 453 q 333 24 460 206 q 193 -170 250 -97 q 94 -281 136 -243 q 20 -332 53 -319 q -49 -344 -12 -344 q -172 -294 -114 -344 q -172 -251 -175 -272 q -162 -211 -169 -231 q -93 -228 -131 -222 q -22 -233 -56 -233 q 20 -227 -1 -233 q 66 -204 42 -221 q 119 -156 90 -187 q 188 -75 149 -125 q 160 226 179 88 q 118 453 142 365 q 105 495 111 478 q 88 523 99 513 q 61 537 78 533 q 18 539 44 540 q 25 592 15 571 q 101 614 60 596 q 164 649 142 632 z "},"ý":{"ha":621,"x_min":-175,"x_max":589,"o":"m 404 994 q 483 1003 446 1006 q 547 982 521 1000 q 436 867 494 932 q 325 732 378 803 q 275 751 294 735 q 354 887 321 824 q 404 994 388 950 m 164 649 q 192 635 181 643 q 210 614 203 628 q 224 577 218 600 q 238 517 231 554 q 274 289 261 394 q 292 69 288 183 q 423 306 383 208 q 463 463 463 404 q 447 511 463 492 q 385 538 431 531 q 376 589 374 561 q 415 602 394 594 q 455 618 436 610 q 490 635 474 626 q 514 650 506 643 q 571 606 553 635 q 589 540 589 576 q 524 329 589 453 q 333 24 460 206 q 193 -170 250 -97 q 94 -281 136 -243 q 20 -332 53 -319 q -49 -344 -12 -344 q -172 -294 -114 -344 q -172 -251 -175 -272 q -162 -211 -169 -231 q -93 -228 -131 -222 q -22 -233 -56 -233 q 20 -227 -1 -233 q 66 -204 42 -221 q 119 -156 90 -187 q 188 -75 149 -125 q 160 226 179 88 q 118 453 142 365 q 105 495 111 478 q 88 523 99 513 q 61 537 78 533 q 18 539 44 540 q 25 592 15 571 q 101 614 60 596 q 164 649 142 632 z "},"ÿ":{"ha":621,"x_min":-175,"x_max":589,"o":"m 175 828 q 251 889 186 889 q 303 866 288 889 q 313 807 319 843 q 235 739 294 739 q 183 763 200 739 q 175 828 167 788 m 529 811 q 502 758 522 776 q 450 740 482 740 q 399 763 415 740 q 389 824 382 786 q 469 889 400 889 q 519 868 503 889 q 529 811 536 847 m 164 649 q 192 635 181 643 q 210 614 203 628 q 224 577 218 600 q 238 517 231 554 q 274 289 261 394 q 292 69 288 183 q 423 306 383 208 q 463 463 463 404 q 447 511 463 492 q 385 538 431 531 q 376 589 374 561 q 415 602 394 594 q 455 618 436 610 q 490 635 474 626 q 514 650 506 643 q 571 606 553 635 q 589 540 589 576 q 524 329 589 453 q 333 24 460 206 q 193 -170 250 -97 q 94 -281 136 -243 q 20 -332 53 -319 q -49 -344 -12 -344 q -172 -294 -114 -344 q -172 -251 -175 -272 q -162 -211 -169 -231 q -93 -228 -131 -222 q -22 -233 -56 -233 q 20 -227 -1 -233 q 66 -204 42 -221 q 119 -156 90 -187 q 188 -75 149 -125 q 160 226 179 88 q 118 453 142 365 q 105 495 111 478 q 88 523 99 513 q 61 537 78 533 q 18 539 44 540 q 25 592 15 571 q 101 614 60 596 q 164 649 142 632 z "},"z":{"ha":553,"x_min":-18,"x_max":521,"o":"m 429 188 q 461 185 444 189 q 489 171 478 181 q 463 94 474 136 q 449 14 453 53 q 407 -7 436 -7 q 368 -6 388 -7 q 325 -3 349 -4 q 270 -1 301 -3 q 196 0 239 0 q 69 -1 121 0 q -4 -6 17 -3 q -15 21 -11 7 q -17 53 -18 35 q 236 298 128 179 q 403 514 344 417 q 360 522 383 519 q 300 525 336 525 q 239 521 264 525 q 195 508 214 517 q 163 484 176 499 q 133 447 149 469 q 104 454 115 449 q 82 471 93 460 q 118 551 103 508 q 140 631 133 593 q 217 644 176 640 q 318 649 257 649 q 426 644 386 649 q 499 635 467 640 q 521 586 517 617 q 447 469 489 529 q 357 347 406 408 q 254 227 308 286 q 143 114 200 168 q 185 118 163 117 q 243 119 208 119 q 308 116 282 119 q 350 113 335 113 q 388 125 371 113 q 429 188 406 138 z "},"ﬀ":{"ha":811,"x_min":-203,"x_max":1049,"o":"m 178 622 q 231 766 194 704 q 314 869 267 828 q 416 930 361 910 q 526 950 471 950 q 627 934 585 950 q 697 899 669 918 q 794 969 742 946 q 904 992 847 992 q 994 981 957 992 q 1049 957 1031 971 q 1024 886 1033 925 q 1013 808 1015 847 q 954 797 989 794 q 928 898 951 868 q 863 928 906 928 q 818 915 838 928 q 782 869 799 903 q 749 775 765 835 q 714 622 732 715 l 851 622 q 849 593 851 607 q 842 568 847 579 q 766 565 803 568 q 701 557 729 561 q 672 382 685 454 q 649 255 660 310 q 626 157 638 200 q 601 71 615 114 q 544 -64 581 1 q 458 -180 507 -129 q 351 -261 410 -231 q 225 -292 292 -292 q 146 -277 176 -292 q 89 -242 115 -262 q 13 -317 54 -290 q -76 -344 -28 -344 q -200 -294 -142 -344 q -200 -251 -203 -272 q -190 -211 -197 -231 q -119 -228 -158 -222 q -36 -233 -81 -233 q 5 -226 -12 -233 q 36 -187 22 -218 q 64 -92 50 -156 q 94 82 78 -29 q 127 300 110 186 q 168 560 144 414 q 119 565 144 563 q 69 568 93 568 q 85 622 69 600 l 178 622 m 578 631 q 600 725 586 682 q 632 804 614 768 q 579 864 611 842 q 503 886 547 886 q 385 819 432 886 q 315 622 339 751 l 576 622 l 578 631 m 464 -8 q 490 98 478 46 q 513 214 501 150 q 537 361 524 278 q 567 560 550 444 q 511 565 540 563 q 444 568 482 568 q 369 565 404 568 q 303 557 333 561 q 269 372 288 472 q 231 164 250 272 q 188 -20 214 64 q 131 -171 163 -104 q 242 -190 174 -190 q 326 -182 290 -190 q 388 -153 361 -174 q 432 -97 414 -132 q 464 -8 450 -61 z "},"ﬃ":{"ha":1144,"x_min":-203,"x_max":1154,"o":"m 178 622 q 231 766 194 704 q 314 869 267 828 q 416 930 361 910 q 526 950 471 950 q 628 933 585 950 q 700 897 672 917 q 806 970 749 949 q 926 992 864 992 q 1060 978 1007 992 q 1154 939 1114 965 q 1135 874 1142 906 q 1126 808 1129 842 q 1069 794 1106 797 q 1006 796 1033 790 q 978 900 1003 867 q 904 933 954 933 q 840 920 867 933 q 793 872 814 907 q 754 776 772 836 q 714 622 736 715 l 786 622 q 883 624 843 622 q 949 629 922 626 q 994 637 976 632 q 1025 649 1013 642 q 1077 588 1068 631 q 1063 460 1086 546 l 986 192 q 972 137 976 158 q 969 104 968 115 q 977 89 971 93 q 993 85 983 85 q 1026 94 1007 85 q 1065 125 1044 104 q 1090 81 1086 111 q 1010 12 1050 36 q 932 -12 971 -12 q 847 42 863 -12 q 856 188 831 97 l 913 388 q 934 477 928 442 q 933 533 940 513 q 903 560 925 553 q 842 568 882 568 q 766 565 800 568 q 701 557 732 561 q 672 382 685 454 q 649 255 660 310 q 626 157 638 200 q 601 71 615 114 q 544 -64 581 1 q 458 -180 507 -129 q 351 -261 410 -231 q 225 -292 292 -292 q 146 -277 176 -292 q 89 -242 115 -262 q 13 -317 54 -290 q -76 -344 -28 -344 q -200 -294 -142 -344 q -200 -251 -203 -272 q -190 -211 -197 -231 q -119 -228 -158 -222 q -36 -233 -81 -233 q 5 -226 -12 -233 q 36 -187 22 -218 q 64 -92 50 -156 q 94 82 78 -29 q 127 300 110 186 q 168 560 144 414 q 119 565 144 563 q 69 568 93 568 q 85 622 69 600 l 178 622 m 576 622 q 633 800 597 728 q 580 863 613 840 q 503 886 547 886 q 385 819 432 886 q 315 622 339 751 l 576 622 m 444 568 q 369 565 404 568 q 303 557 333 561 q 269 372 288 472 q 231 164 250 272 q 188 -20 214 64 q 131 -171 163 -104 q 242 -190 174 -190 q 326 -182 290 -190 q 388 -153 361 -174 q 432 -97 414 -132 q 464 -8 450 -61 q 490 98 478 46 q 513 214 501 150 q 537 361 524 278 q 567 560 550 444 q 511 565 540 563 q 444 568 482 568 z "},"ﬄ":{"ha":1179,"x_min":-203,"x_max":1143,"o":"m 178 622 q 231 766 194 704 q 314 869 267 828 q 416 930 361 910 q 526 950 471 950 q 630 933 586 950 q 701 896 674 915 q 803 969 747 946 q 922 992 860 992 q 999 984 967 992 q 1053 965 1032 976 q 1101 986 1083 974 q 1131 897 1143 972 q 1074 593 1103 739 q 1018 311 1046 447 q 997 192 1003 238 q 992 124 992 147 q 1000 92 993 100 q 1018 85 1007 85 q 1049 94 1032 85 q 1089 125 1065 103 q 1114 83 1107 108 q 1038 15 1081 43 q 957 -12 996 -12 q 863 100 858 -12 q 864 136 863 117 q 870 185 865 156 q 883 258 875 214 q 903 369 890 303 q 934 531 915 436 q 979 754 953 625 q 979 883 996 835 q 894 932 963 932 q 838 919 864 932 q 791 872 813 906 q 751 777 769 838 q 715 622 732 717 l 853 622 q 851 593 853 607 q 843 568 849 579 q 768 565 807 568 q 701 557 729 561 q 672 382 685 454 q 649 255 660 310 q 626 157 638 200 q 601 71 615 114 q 544 -64 581 1 q 458 -180 507 -129 q 351 -261 410 -231 q 225 -292 292 -292 q 146 -277 176 -292 q 89 -242 115 -262 q 13 -317 54 -290 q -76 -344 -28 -344 q -200 -294 -142 -344 q -200 -251 -203 -272 q -190 -211 -197 -231 q -119 -228 -158 -222 q -36 -233 -81 -233 q 5 -226 -12 -233 q 36 -187 22 -218 q 64 -92 50 -156 q 94 82 78 -29 q 127 300 110 186 q 168 560 144 414 q 119 565 144 563 q 69 568 93 568 q 85 622 69 600 l 178 622 m 578 622 q 603 719 589 675 q 635 799 617 763 q 581 863 614 839 q 503 886 547 886 q 385 819 432 886 q 315 622 339 751 l 578 622 m 464 -8 q 490 98 478 46 q 513 214 501 150 q 537 361 524 278 q 567 560 550 444 q 511 565 540 563 q 444 568 482 568 q 369 565 404 568 q 303 557 333 561 q 269 372 288 472 q 231 164 250 272 q 188 -20 214 64 q 131 -171 163 -104 q 242 -190 174 -190 q 326 -182 290 -190 q 388 -153 361 -174 q 432 -97 414 -132 q 464 -8 450 -61 z "},"ﬁ":{"ha":739,"x_min":-203,"x_max":749,"o":"m 507 388 q 528 477 522 442 q 527 533 535 513 q 498 560 519 553 q 436 568 476 568 q 360 565 394 568 q 296 557 326 561 q 256 321 272 422 q 231 164 240 219 q 183 -41 211 53 q 115 -202 154 -135 q 28 -307 76 -269 q -76 -344 -19 -344 q -200 -294 -142 -344 q -200 -251 -203 -272 q -190 -211 -197 -231 q -119 -228 -158 -222 q -36 -233 -81 -233 q 5 -226 -12 -233 q 36 -187 22 -218 q 64 -92 50 -156 q 94 82 78 -29 q 124 300 110 185 q 161 560 138 415 q 112 565 138 563 q 63 568 86 568 q 78 622 63 600 l 171 622 q 226 797 190 726 q 309 911 263 868 q 410 973 356 954 q 521 992 464 992 q 655 978 601 992 q 749 939 708 965 q 730 874 736 906 q 721 808 724 842 q 664 794 700 797 q 600 796 628 790 q 573 900 597 867 q 499 933 549 933 q 435 920 461 933 q 388 872 408 907 q 349 776 367 836 q 308 622 331 715 l 381 622 q 477 624 438 622 q 544 629 517 626 q 589 637 571 632 q 619 649 607 642 q 672 588 663 631 q 657 460 681 546 l 581 192 q 567 137 571 158 q 564 104 563 115 q 572 89 565 93 q 588 85 578 85 q 620 94 601 85 q 660 125 639 104 q 685 81 681 111 q 605 12 644 36 q 526 -12 565 -12 q 441 42 457 -12 q 450 188 425 97 l 507 388 z "},"ﬂ":{"ha":772,"x_min":-203,"x_max":736,"o":"m 171 622 q 224 791 189 721 q 303 906 258 861 q 403 971 349 950 q 515 992 457 992 q 592 984 560 992 q 646 965 625 976 q 694 986 676 974 q 724 897 736 972 q 667 593 696 739 q 611 311 639 447 q 590 192 596 238 q 585 124 585 147 q 593 92 586 100 q 611 85 600 85 q 642 94 625 85 q 682 125 658 103 q 707 83 700 108 q 631 15 674 43 q 550 -12 589 -12 q 456 100 451 -12 q 457 136 456 117 q 463 185 458 156 q 476 258 468 214 q 496 369 483 303 q 527 531 508 436 q 572 754 546 625 q 572 883 589 835 q 488 932 556 932 q 431 919 457 932 q 384 872 406 906 q 344 777 363 838 q 308 622 325 717 l 446 622 q 444 593 446 607 q 436 568 442 579 q 360 565 397 568 q 296 557 324 561 q 256 321 272 422 q 231 164 240 219 q 183 -41 211 53 q 115 -202 154 -135 q 28 -307 76 -269 q -76 -344 -19 -344 q -200 -294 -142 -344 q -200 -251 -203 -272 q -190 -211 -197 -231 q -119 -228 -158 -222 q -36 -233 -81 -233 q 5 -226 -12 -233 q 36 -187 22 -218 q 64 -92 50 -156 q 94 82 78 -29 q 124 300 110 185 q 161 560 138 415 q 112 565 138 563 q 63 568 86 568 q 78 622 63 600 l 171 622 z "},"µ":{"ha":685,"x_min":-61,"x_max":631,"o":"m 261 636 l 207 358 q 200 163 181 228 q 260 97 219 97 q 307 119 281 97 q 359 182 333 140 q 408 285 385 224 q 446 426 431 347 l 486 636 l 613 636 l 544 292 q 522 176 529 218 q 514 114 515 135 q 518 88 513 93 q 536 83 524 83 q 566 93 551 83 q 604 126 581 103 q 620 106 614 118 q 631 82 626 94 q 555 15 597 43 q 475 -12 513 -12 q 402 24 418 -12 q 397 115 386 61 q 407 158 403 143 q 415 182 411 172 l 414 182 q 376 103 399 139 q 328 42 354 68 q 274 2 301 17 q 221 -12 247 -12 q 155 10 176 -12 q 125 69 133 33 l 124 69 q 121 -7 125 33 q 110 -83 117 -47 q 98 -169 101 -124 q 100 -246 94 -214 q 30 -284 69 -258 q -37 -336 -10 -310 q -53 -278 -61 -321 q -45 -249 -50 -262 q -34 -213 -40 -235 q -19 -159 -28 -192 q -1 -74 -11 -126 l 135 636 l 261 636 z "},"¼":{"ha":1044,"x_min":83,"x_max":1010,"o":"m 229 785 q 237 838 236 818 q 230 870 238 858 q 203 885 222 882 q 153 889 185 889 q 163 944 146 921 q 260 963 218 951 q 347 996 303 975 q 377 969 367 989 q 381 914 388 949 l 310 551 q 303 503 304 522 q 307 473 301 485 q 326 456 313 461 q 361 447 339 450 q 366 417 365 432 q 364 388 367 403 q 287 391 315 390 q 222 392 258 392 q 156 391 186 392 q 83 388 126 390 q 86 419 83 401 q 93 446 89 436 q 133 454 118 449 q 157 472 147 460 q 172 501 167 483 q 183 549 178 519 l 229 785 m 950 994 q 997 938 990 974 q 799 697 893 811 q 615 468 706 582 q 431 237 524 354 q 238 -12 339 119 q 209 10 221 -4 q 194 42 197 24 l 950 994 m 976 231 q 1010 217 996 231 q 1001 194 1006 208 q 993 165 997 181 q 986 135 989 150 q 982 111 983 121 l 910 111 l 889 0 l 760 0 l 781 110 q 642 107 699 108 q 551 104 586 106 q 530 139 539 114 q 524 182 521 164 q 735 399 633 289 q 940 624 838 508 q 976 622 961 625 q 1003 613 992 618 l 932 231 l 976 231 m 815 300 q 831 379 822 340 q 853 454 840 418 l 851 454 q 816 408 840 438 q 743 325 792 378 q 691 272 717 296 q 646 231 665 247 l 803 231 l 815 300 z "},"½":{"ha":1183,"x_min":83,"x_max":1154,"o":"m 229 785 q 237 838 236 818 q 230 870 238 858 q 203 885 222 882 q 153 889 185 889 q 163 944 146 921 q 260 963 218 951 q 347 996 303 975 q 377 969 367 989 q 381 914 388 949 l 310 551 q 303 503 304 522 q 307 473 301 485 q 326 456 313 461 q 361 447 339 450 q 366 417 365 432 q 364 388 367 403 q 287 391 315 390 q 222 392 258 392 q 156 391 186 392 q 83 388 126 390 q 86 419 83 401 q 93 446 89 436 q 133 454 118 449 q 157 472 147 460 q 172 501 167 483 q 183 549 178 519 l 229 785 m 950 994 q 997 938 990 974 q 799 697 893 811 q 615 468 706 582 q 431 237 524 354 q 238 -12 339 119 q 209 10 221 -4 q 194 42 197 24 l 950 994 m 1139 463 q 1088 360 1128 404 q 971 260 1049 315 q 934 233 956 249 q 888 198 913 217 q 839 158 864 179 q 792 119 814 138 q 828 122 811 122 q 867 122 846 122 q 922 119 900 122 q 963 117 943 117 q 1003 133 983 117 q 1035 199 1022 150 q 1070 197 1050 200 q 1099 189 1090 194 q 1087 106 1090 150 q 1085 29 1083 61 q 1064 5 1078 14 q 1025 -4 1050 -4 q 951 -2 992 -4 q 844 0 910 0 q 795 0 817 0 q 752 -1 774 0 q 707 -2 731 -1 q 653 -4 683 -3 q 641 28 644 8 q 640 63 638 47 q 701 119 669 90 q 765 173 733 147 q 824 221 796 199 q 872 260 851 243 q 960 347 932 306 q 1000 440 989 389 q 998 531 1011 497 q 943 564 985 564 q 865 525 892 564 q 817 393 839 486 q 779 394 800 392 q 747 404 758 397 q 776 564 772 481 q 874 610 829 597 q 971 624 918 624 q 1108 581 1063 624 q 1139 463 1154 539 z "},"¾":{"ha":1063,"x_min":40,"x_max":1026,"o":"m 967 994 q 1014 938 1007 974 q 816 697 910 811 q 631 468 722 582 q 448 237 540 354 q 254 -12 356 119 q 226 10 238 -4 q 211 42 214 24 l 967 994 m 993 231 q 1026 217 1013 231 q 1018 194 1022 208 q 1010 165 1014 181 q 1003 135 1006 150 q 999 111 1000 121 l 926 111 l 906 0 l 776 0 l 797 110 q 659 107 715 108 q 568 104 603 106 q 547 139 556 114 q 540 182 538 164 q 752 399 650 289 q 957 624 854 508 q 993 622 978 625 q 1019 613 1008 618 l 949 231 l 993 231 m 832 300 q 848 379 839 340 q 869 454 857 418 l 868 454 q 833 408 857 438 q 760 325 808 378 q 708 272 733 296 q 663 231 682 247 l 819 231 l 832 300 m 476 847 q 433 770 468 807 q 350 717 399 733 q 444 663 410 704 q 464 547 479 622 q 429 474 454 506 q 367 421 404 442 q 285 390 331 400 q 189 379 239 379 q 92 390 125 379 q 40 417 60 401 q 49 449 40 432 q 68 474 57 467 q 110 454 85 463 q 176 446 136 446 q 272 470 232 446 q 321 544 311 494 q 303 629 332 599 q 200 660 275 660 q 194 689 193 675 q 201 718 196 703 q 295 758 265 728 q 336 840 325 789 q 331 909 344 883 q 283 935 318 935 q 226 902 250 935 q 181 786 203 869 q 143 786 164 783 q 110 796 122 789 q 119 830 114 810 q 128 871 124 850 q 135 912 132 892 q 138 947 138 932 q 216 982 169 968 q 303 996 263 996 q 444 961 397 996 q 476 847 492 926 z "},"⁄":{"ha":628,"x_min":-54,"x_max":749,"o":"m 701 994 q 749 938 742 974 q 551 697 644 811 q 366 468 457 582 q 183 237 275 354 q -11 -12 90 119 q -40 10 -28 -4 q -54 42 -51 24 l 701 994 z "},"²":{"ha":440,"x_min":60,"x_max":497,"o":"m 482 854 q 449 783 475 818 q 364 704 422 749 q 335 683 353 696 q 299 656 318 671 q 258 625 279 642 q 219 594 238 608 q 247 596 233 596 q 274 596 260 596 q 315 594 301 596 q 349 593 329 593 q 394 613 372 593 q 425 672 415 632 q 451 674 438 675 q 475 667 464 672 q 468 631 471 651 q 463 592 465 611 q 459 554 460 572 q 458 524 458 536 q 399 497 444 497 q 335 499 369 497 q 249 500 300 500 q 156 500 204 500 q 69 497 108 500 q 65 542 60 515 q 115 583 88 560 q 171 627 143 606 q 223 667 199 649 q 263 696 247 685 q 333 763 307 728 q 367 844 358 799 q 360 913 375 889 q 313 936 346 936 q 258 903 279 936 q 214 799 236 871 q 178 799 197 797 q 149 808 160 801 q 166 876 160 838 q 174 949 172 915 q 342 996 257 996 q 458 960 419 996 q 482 854 497 925 z "},"³":{"ha":433,"x_min":43,"x_max":475,"o":"m 463 857 q 427 790 456 819 q 343 732 399 760 q 438 669 406 718 q 454 539 471 621 q 418 459 444 496 q 353 396 392 422 q 264 355 314 369 q 157 340 214 340 q 92 349 124 340 q 43 371 60 357 q 51 396 43 383 q 69 414 60 408 q 105 401 81 407 q 161 396 129 396 q 278 432 231 396 q 339 532 326 468 q 320 632 353 592 q 203 672 288 672 q 193 688 196 678 q 193 710 190 699 q 304 770 269 735 q 350 854 339 806 q 344 913 357 889 q 296 938 331 938 q 230 906 254 938 q 183 797 206 875 q 149 797 167 794 q 119 807 131 800 q 136 876 129 838 q 144 947 143 915 q 220 983 176 971 q 308 996 264 996 q 432 960 389 996 q 463 857 475 924 z "},"¹":{"ha":356,"x_min":83,"x_max":436,"o":"m 215 807 q 224 866 222 843 q 222 903 226 889 q 201 925 217 918 q 160 935 186 932 q 156 959 157 947 q 158 988 156 971 q 218 984 186 985 q 294 983 250 983 q 372 984 339 983 q 436 988 406 985 q 424 935 436 961 q 383 922 399 931 q 358 899 368 914 q 341 863 347 885 q 329 807 335 840 l 304 676 q 295 618 297 640 q 299 583 293 596 q 319 563 304 569 q 358 553 333 557 q 361 496 365 526 q 296 499 329 499 q 222 500 263 500 q 145 499 182 500 q 83 496 108 499 q 94 553 83 532 q 135 562 119 556 q 161 582 151 568 q 177 618 171 596 q 190 676 183 640 l 215 807 z "},"*":{"ha":633,"x_min":175,"x_max":625,"o":"m 486 922 q 449 835 467 882 q 415 735 432 788 q 511 753 465 743 q 610 779 557 764 q 622 735 618 761 q 621 686 625 708 q 524 691 576 689 q 419 694 471 693 q 467 609 443 649 q 521 524 490 569 q 483 499 506 508 q 436 486 460 489 q 412 578 426 528 q 382 676 397 628 q 316 606 346 640 q 253 529 286 572 q 190 599 204 554 q 270 650 226 621 q 356 710 314 679 q 268 749 311 732 q 175 786 225 767 q 221 867 186 842 q 294 807 253 839 q 376 744 335 775 q 387 840 383 794 q 393 940 390 886 q 440 939 413 943 q 486 922 467 935 z "},"\\":{"ha":406,"x_min":131,"x_max":343,"o":"m 343 0 q 311 -10 329 -7 q 275 -11 293 -12 q 207 488 243 240 q 131 985 171 735 q 200 993 165 1000 l 343 0 z "},"•":{"ha":389,"x_min":57,"x_max":364,"o":"m 358 382 q 307 288 347 322 q 203 254 267 254 q 133 269 163 254 q 86 309 104 285 q 63 365 68 333 q 64 429 57 396 q 115 512 74 478 q 222 546 156 546 q 287 532 258 546 q 333 495 315 518 q 357 443 350 472 q 358 382 364 414 z "},":":{"ha":261,"x_min":10,"x_max":250,"o":"m 243 513 q 217 463 236 481 q 168 444 199 444 q 111 469 131 444 q 100 533 92 493 q 127 580 106 561 q 178 599 149 599 q 230 574 210 599 q 243 513 250 550 m 161 101 q 135 51 154 69 q 86 33 117 33 q 29 58 49 33 q 18 122 10 82 q 45 169 24 150 q 96 188 67 188 q 148 163 128 188 q 161 101 168 139 z "},",":{"ha":293,"x_min":-49,"x_max":189,"o":"m 150 143 q 181 97 174 129 q 178 11 189 65 q 117 -126 165 -56 q -1 -251 68 -196 q -30 -243 -18 -251 q -49 -222 -42 -235 q 19 -149 -11 -187 q 60 -78 49 -111 q 62 -19 72 -44 q 8 17 51 6 q 14 63 8 38 q 29 104 19 89 q 94 118 58 107 q 150 143 129 129 z "},"…":{"ha":982,"x_min":1,"x_max":882,"o":"m 153 57 q 127 7 146 25 q 78 -11 108 -11 q 21 13 40 -11 q 10 78 1 38 q 37 124 15 106 q 88 143 58 143 q 140 119 119 143 q 153 57 160 94 m 514 57 q 488 7 507 25 q 439 -11 469 -11 q 382 13 401 -11 q 371 78 363 38 q 398 124 376 106 q 449 143 419 143 q 501 119 481 143 q 514 57 521 94 m 875 57 q 849 7 868 25 q 800 -11 831 -11 q 743 13 763 -11 q 732 78 724 38 q 759 124 738 106 q 810 143 781 143 q 862 119 842 143 q 875 57 882 94 z "},"!":{"ha":381,"x_min":74,"x_max":393,"o":"m 383 919 q 349 793 368 865 q 309 641 329 721 q 269 476 289 561 q 232 313 249 392 q 171 321 196 308 q 192 501 183 418 q 207 660 200 585 q 218 805 214 735 q 226 946 222 875 q 300 966 258 953 q 365 992 342 979 q 389 969 385 985 q 383 919 393 953 m 225 57 q 199 7 218 25 q 150 -11 181 -11 q 93 13 113 -11 q 82 78 74 38 q 109 124 88 106 q 160 143 131 143 q 212 119 192 143 q 225 57 232 94 z "},"¡":{"ha":381,"x_min":-12,"x_max":307,"o":"m 156 581 q 181 631 163 613 q 231 649 200 649 q 288 624 268 649 q 299 560 307 600 q 272 513 293 532 q 221 494 250 494 q 169 519 189 494 q 156 581 149 543 m -3 -282 q 32 -156 13 -228 q 72 -3 51 -83 q 112 161 92 76 q 149 325 132 246 q 210 317 185 329 q 189 135 197 218 q 174 -24 181 51 q 163 -168 167 -99 q 154 -308 158 -237 q 81 -328 122 -315 q 15 -354 39 -342 q -8 -331 -4 -347 q -3 -282 -12 -315 z "},"#":{"ha":786,"x_min":54,"x_max":793,"o":"m 583 365 l 735 365 q 718 297 735 326 l 569 297 l 504 -11 q 443 19 468 -6 l 503 297 l 281 297 l 215 -11 q 156 25 171 -4 l 213 296 q 129 294 168 294 q 54 293 90 294 q 71 365 54 329 l 228 365 l 281 614 q 198 613 236 614 q 128 611 160 613 q 131 646 128 626 q 144 683 135 665 l 296 683 l 361 992 q 421 961 403 986 l 363 683 l 585 683 l 650 992 q 710 964 690 983 l 650 683 l 793 683 q 776 615 793 642 l 636 615 l 583 365 m 347 615 l 294 365 l 517 365 l 569 615 l 347 615 z "},".":{"ha":260,"x_min":1,"x_max":160,"o":"m 153 57 q 127 7 146 25 q 78 -11 108 -11 q 21 13 40 -11 q 10 78 1 38 q 37 124 15 106 q 88 143 58 143 q 140 119 119 143 q 153 57 160 94 z "},"·":{"ha":232,"x_min":49,"x_max":207,"o":"m 200 372 q 174 322 193 340 q 125 304 156 304 q 68 328 88 304 q 57 393 49 353 q 84 440 63 421 q 135 458 106 458 q 187 434 167 458 q 200 372 207 410 z "},"?":{"ha":624,"x_min":168,"x_max":629,"o":"m 224 932 q 301 972 247 953 q 421 992 356 992 q 577 937 525 992 q 611 790 629 882 q 580 711 601 746 q 531 647 558 676 q 471 588 503 617 q 411 528 439 560 q 361 460 383 497 q 331 374 339 422 q 324 328 326 357 q 325 279 322 299 q 302 270 313 272 q 279 268 292 268 q 251 331 261 283 q 253 438 242 378 q 301 554 267 507 q 372 640 335 601 q 440 715 408 678 q 481 800 472 751 q 473 896 492 857 q 400 935 454 935 q 318 894 353 935 q 254 756 283 853 q 219 758 232 756 q 193 769 206 761 q 206 815 200 794 q 215 853 211 835 q 220 890 218 871 q 224 932 222 908 m 319 57 q 294 7 313 25 q 244 -11 275 -11 q 188 13 207 -11 q 176 78 168 38 q 203 124 182 106 q 254 143 225 143 q 306 119 286 143 q 319 57 326 94 z "},"¿":{"ha":624,"x_min":-6,"x_max":456,"o":"m 304 579 q 330 629 311 611 q 379 647 349 647 q 436 623 417 647 q 447 558 456 599 q 420 512 442 531 q 369 493 399 493 q 317 517 338 493 q 304 579 297 542 m 400 -296 q 322 -336 376 -317 q 203 -356 268 -356 q 47 -301 99 -356 q 13 -154 -6 -246 q 43 -75 21 -110 q 93 -10 65 -40 q 153 48 121 19 q 213 108 185 76 q 262 176 240 139 q 293 263 283 214 q 299 308 297 279 q 299 357 301 338 q 322 366 311 364 q 344 368 332 368 q 372 306 363 353 q 371 199 382 258 q 323 82 357 129 q 252 -3 289 35 q 183 -78 215 -42 q 143 -164 151 -115 q 151 -260 132 -221 q 224 -299 169 -299 q 306 -258 271 -299 q 369 -119 340 -217 q 405 -122 392 -119 q 431 -133 418 -125 q 418 -178 424 -158 q 409 -217 413 -199 q 403 -253 406 -235 q 400 -296 401 -272 z "},"\"":{"ha":464,"x_min":179,"x_max":506,"o":"m 310 929 q 276 817 294 881 q 236 663 258 754 q 206 665 219 663 q 179 676 192 668 q 199 822 190 750 q 210 963 207 893 q 251 974 228 965 q 289 992 274 982 q 310 969 304 985 q 310 929 317 953 m 499 929 q 465 817 483 881 q 425 663 447 754 q 394 665 408 663 q 368 676 381 668 q 388 822 379 750 q 399 963 396 893 q 440 974 417 965 q 478 992 463 982 q 499 969 493 985 q 499 929 506 953 z "},"'":{"ha":275,"x_min":179,"x_max":317,"o":"m 310 929 q 276 817 294 881 q 236 663 258 754 q 206 665 219 663 q 179 676 192 668 q 199 822 190 750 q 210 963 207 893 q 251 974 228 965 q 289 992 274 982 q 310 969 304 985 q 310 929 317 953 z "},";":{"ha":293,"x_min":-49,"x_max":269,"o":"m 263 513 q 237 463 256 481 q 188 444 218 444 q 131 469 150 444 q 119 533 111 493 q 147 580 125 561 q 197 599 168 599 q 249 574 229 599 q 263 513 269 550 m 150 143 q 181 97 174 129 q 178 11 189 65 q 117 -126 165 -56 q -1 -251 68 -196 q -30 -243 -18 -251 q -49 -222 -42 -235 q 19 -149 -11 -187 q 60 -78 49 -111 q 62 -19 72 -44 q 8 17 51 6 q 14 63 8 38 q 29 104 19 89 q 94 118 58 107 q 150 143 129 129 z "},"/":{"ha":400,"x_min":-49,"x_max":517,"o":"m 461 996 q 494 979 482 989 q 517 954 507 969 q 256 474 383 714 q 7 -12 129 233 q -26 2 -14 -7 q -49 29 -39 11 l 461 996 z "},"_":{"ha":694,"x_min":-57,"x_max":564,"o":"m 564 -128 q 542 -200 561 -169 q 400 -200 475 -200 q 248 -201 325 -200 q 94 -202 171 -201 q -54 -204 17 -203 q -36 -128 -57 -157 l 564 -128 z "},"{":{"ha":440,"x_min":49,"x_max":511,"o":"m 506 1031 q 510 1008 510 1021 q 508 983 511 994 q 410 943 444 972 q 358 873 375 914 q 336 783 340 832 q 330 684 332 735 q 322 583 328 633 q 296 489 315 532 q 236 412 276 446 q 126 360 196 378 q 219 305 190 340 q 256 223 249 269 q 255 122 264 176 q 233 13 246 68 q 207 -95 219 -42 q 194 -195 194 -149 q 214 -277 194 -242 q 283 -331 233 -312 q 280 -356 283 -343 q 269 -376 276 -368 q 157 -309 194 -350 q 106 -219 119 -268 q 99 -115 93 -169 q 115 -4 104 -60 q 137 105 126 51 q 145 203 147 158 q 122 284 143 249 q 49 339 101 319 q 64 383 49 367 q 152 439 122 404 q 195 517 182 474 q 211 610 208 560 q 217 710 214 660 q 232 810 221 761 q 273 903 243 860 q 358 978 303 946 q 506 1031 414 1011 z "},"}":{"ha":447,"x_min":-58,"x_max":417,"o":"m 175 1029 q 297 964 256 1001 q 355 883 339 926 q 367 791 371 839 q 351 694 363 743 q 329 599 340 646 q 319 513 318 553 q 341 440 321 472 q 413 386 361 407 q 410 342 417 368 q 317 289 350 325 q 267 205 285 253 q 243 101 250 157 q 228 -14 236 44 q 208 -129 221 -72 q 165 -235 194 -186 q 83 -321 135 -283 q -51 -376 32 -358 q -57 -353 -56 -364 q -56 -331 -58 -342 q 35 -288 3 -319 q 83 -212 67 -257 q 103 -112 99 -167 q 111 1 107 -57 q 124 115 115 58 q 155 220 132 172 q 221 305 178 268 q 338 360 264 342 q 241 410 271 378 q 205 482 211 442 q 209 569 199 522 q 234 664 219 615 q 261 760 249 713 q 270 849 274 807 q 242 926 267 892 q 158 983 218 961 q 165 1010 161 997 q 175 1029 168 1022 z "},"[":{"ha":417,"x_min":-53,"x_max":474,"o":"m 194 1031 q 253 1028 218 1029 q 325 1028 288 1028 q 399 1028 363 1028 q 460 1031 435 1029 q 467 978 474 1008 q 373 967 410 974 q 313 948 336 961 q 278 911 290 935 q 260 847 267 888 l 75 -204 q 73 -258 69 -237 q 94 -292 76 -279 q 143 -310 111 -304 q 225 -318 175 -317 q 231 -344 231 -329 q 225 -374 232 -358 q 168 -372 206 -372 q 89 -371 131 -371 q 8 -372 47 -371 q -53 -374 -31 -372 l 194 1031 z "},"]":{"ha":415,"x_min":-53,"x_max":472,"o":"m 225 -374 q 160 -372 197 -372 q 83 -371 122 -371 q 9 -372 44 -371 q -51 -374 -26 -372 q -49 -344 -53 -360 q -37 -318 -46 -329 q 50 -311 15 -317 q 106 -295 85 -306 q 139 -266 128 -285 q 156 -218 150 -247 l 343 847 q 347 911 350 888 q 326 948 344 935 q 274 967 308 961 q 186 978 240 974 q 191 1008 186 993 q 204 1031 196 1022 q 265 1028 229 1029 q 340 1028 301 1028 q 413 1028 378 1028 q 472 1031 449 1029 l 225 -374 z "},"(":{"ha":414,"x_min":44,"x_max":492,"o":"m 492 1013 q 385 880 431 947 q 303 737 339 813 q 243 575 268 661 q 201 389 218 489 q 253 -367 122 -72 q 206 -376 236 -381 q 77 -20 110 -211 q 79 361 44 171 q 123 538 96 454 q 194 701 150 621 q 298 861 238 781 q 442 1029 358 942 q 492 1013 475 1033 z "},")":{"ha":410,"x_min":-82,"x_max":372,"o":"m 340 319 q 292 127 322 217 q 218 -46 263 38 q 112 -210 174 -129 q -32 -376 50 -292 q -82 -365 -64 -383 q 31 -210 -18 -286 q 116 -51 79 -133 q 178 122 153 32 q 222 319 204 213 q 244 699 258 531 q 164 1014 231 868 q 210 1029 183 1031 q 340 666 307 839 q 340 319 372 493 z "},"—":{"ha":1338,"x_min":46,"x_max":1311,"o":"m 1311 403 q 1286 329 1307 358 q 775 328 1081 329 q 46 325 469 328 q 71 403 50 375 l 1311 403 z "},"–":{"ha":694,"x_min":47,"x_max":668,"o":"m 668 404 q 646 332 665 363 q 504 332 579 332 q 352 331 429 332 q 198 330 275 331 q 50 328 121 329 q 68 404 47 375 l 668 404 z "},"-":{"ha":476,"x_min":46,"x_max":449,"o":"m 449 415 q 443 365 447 385 q 431 325 439 344 q 264 324 361 325 q 46 321 167 324 q 53 374 49 353 q 69 415 58 396 l 449 415 z "},"­":{"ha":476,"x_min":46,"x_max":449,"o":"m 449 415 q 443 365 447 385 q 431 325 439 344 q 264 324 361 325 q 46 321 167 324 q 53 374 49 353 q 69 415 58 396 l 449 415 z "},"«":{"ha":581,"x_min":47,"x_max":551,"o":"m 282 581 q 310 572 297 579 q 329 554 324 564 q 288 510 311 536 q 242 458 265 485 q 197 406 218 432 q 164 363 176 381 q 183 315 171 343 q 208 259 194 288 q 235 205 222 231 q 258 163 249 179 q 247 135 256 147 q 226 115 238 122 q 134 235 181 179 q 47 333 88 290 q 65 388 47 367 q 178 483 126 439 q 282 581 229 528 m 504 572 q 533 563 519 571 q 551 546 546 556 q 513 502 533 526 q 472 453 492 478 q 433 404 451 428 q 400 363 414 381 q 417 317 407 343 q 438 265 426 292 q 460 213 449 239 q 481 169 471 188 q 469 142 478 154 q 449 122 460 129 q 283 333 360 244 q 301 388 283 367 q 358 435 332 413 q 408 480 383 458 q 456 524 432 501 q 504 572 479 547 z "},"»":{"ha":593,"x_min":61,"x_max":564,"o":"m 292 178 q 374 260 329 214 q 451 344 419 307 q 431 394 443 365 q 405 454 419 424 q 376 514 390 485 q 349 565 361 543 q 400 578 369 582 q 473 482 436 528 q 551 390 510 436 q 554 336 564 364 q 433 233 496 289 q 313 125 371 178 q 292 178 292 146 m 61 185 q 137 265 99 222 q 206 344 175 307 q 166 447 190 389 q 117 558 142 506 q 168 571 138 575 q 235 478 204 518 q 306 390 265 438 q 308 336 318 364 q 195 238 250 288 q 82 132 140 189 q 61 185 61 153 z "},"‹":{"ha":328,"x_min":47,"x_max":329,"o":"m 282 581 q 310 572 297 579 q 329 554 324 564 q 288 510 311 536 q 242 458 265 485 q 197 406 218 432 q 164 363 176 381 q 183 315 171 343 q 208 259 194 288 q 235 205 222 231 q 258 163 249 179 q 247 135 256 147 q 226 115 238 122 q 134 235 181 179 q 47 333 88 290 q 65 388 47 367 q 178 483 126 439 q 282 581 229 528 z "},"›":{"ha":343,"x_min":42,"x_max":314,"o":"m 42 178 q 124 260 79 214 q 201 344 169 307 q 181 394 193 365 q 155 454 169 424 q 126 514 140 485 q 99 565 111 543 q 150 578 119 582 q 223 482 186 528 q 301 390 260 436 q 304 336 314 364 q 183 233 246 289 q 63 125 121 178 q 42 178 42 146 z "},"„":{"ha":447,"x_min":-8,"x_max":394,"o":"m 146 143 q 179 88 176 126 q 174 11 182 49 q 135 -96 163 -42 q 39 -208 107 -150 q 10 -200 22 -208 q -8 -179 -1 -192 q 72 -51 68 -103 q 8 17 75 0 q 14 63 8 38 q 29 104 19 89 q 92 118 58 107 q 146 143 125 129 m 358 143 q 392 88 389 126 q 386 11 394 49 q 344 -96 376 -39 q 242 -214 313 -153 q 213 -206 225 -214 q 194 -185 201 -197 q 276 -60 267 -112 q 221 17 285 -8 q 226 63 221 38 q 242 104 232 89 q 304 118 271 107 q 358 143 338 129 z "},"“":{"ha":550,"x_min":164,"x_max":567,"o":"m 200 639 q 167 694 169 656 q 172 771 164 733 q 214 878 182 821 q 317 996 246 935 q 345 988 333 996 q 364 967 357 979 q 283 842 292 894 q 338 765 274 790 q 332 719 338 744 q 317 678 326 693 q 254 664 288 675 q 200 639 221 653 m 413 639 q 379 694 382 656 q 385 771 376 733 q 424 878 396 824 q 519 990 451 932 q 548 982 536 990 q 567 961 560 974 q 487 833 490 885 q 550 765 483 782 q 544 719 550 744 q 529 678 539 693 q 467 664 500 675 q 413 639 433 653 z "},"”":{"ha":551,"x_min":179,"x_max":582,"o":"m 333 996 q 367 940 364 979 q 361 864 369 901 q 322 757 350 811 q 226 644 294 703 q 198 653 210 644 q 179 674 186 661 q 259 801 256 750 q 196 869 263 853 q 201 916 196 890 q 217 957 207 942 q 279 971 246 960 q 333 996 313 982 m 546 996 q 579 940 576 979 q 574 864 582 901 q 532 757 564 814 q 429 639 500 700 q 401 647 413 639 q 382 668 389 656 q 463 792 454 740 q 408 869 472 844 q 414 916 408 890 q 429 957 419 942 q 492 971 458 960 q 546 996 525 982 z "},"‘":{"ha":342,"x_min":164,"x_max":364,"o":"m 200 639 q 167 694 169 656 q 172 771 164 733 q 214 878 182 821 q 317 996 246 935 q 345 988 333 996 q 364 967 357 979 q 279 836 286 889 q 342 765 272 783 q 336 719 342 744 q 321 678 331 693 q 256 664 292 675 q 200 639 221 653 z "},"’":{"ha":343,"x_min":174,"x_max":374,"o":"m 338 996 q 371 940 368 979 q 365 864 374 901 q 324 757 356 814 q 221 639 292 700 q 192 647 204 639 q 174 668 181 656 q 258 799 251 746 q 196 869 265 851 q 201 916 196 890 q 217 957 207 942 q 281 971 246 960 q 338 996 317 982 z "},"‚":{"ha":264,"x_min":-14,"x_max":186,"o":"m 150 143 q 183 88 181 126 q 178 11 186 49 q 136 -96 168 -39 q 33 -214 104 -153 q 5 -206 17 -214 q -14 -185 -7 -197 q 71 -54 64 -107 q 8 17 78 -1 q 14 63 8 38 q 29 104 19 89 q 94 118 58 107 q 150 143 129 129 z "}," ":{"ha":250,"x_min":0,"x_max":0,"o":""},"€":{"ha":944,"x_min":64,"x_max":1001,"o":"m 185 565 q 271 740 215 667 q 397 860 326 813 q 548 929 468 907 q 707 951 628 951 q 863 931 794 951 q 1001 869 932 911 q 973 771 983 822 q 956 660 963 719 q 881 657 921 646 q 883 777 890 731 q 853 849 875 824 q 796 885 831 875 q 717 894 761 894 q 578 869 642 894 q 467 801 515 844 q 383 697 418 757 q 328 565 347 636 l 699 565 q 676 493 696 524 q 501 493 594 493 q 313 492 408 493 q 307 447 310 472 q 306 396 304 422 l 672 396 q 650 324 669 354 q 485 324 571 324 q 311 322 399 324 q 340 222 319 268 q 394 143 360 176 q 476 91 428 110 q 588 72 525 72 q 733 94 664 72 q 865 153 803 115 q 888 100 885 133 q 722 15 806 42 q 550 -12 639 -12 q 393 13 463 -12 q 275 81 324 38 q 197 186 226 125 q 160 319 168 247 l 67 319 q 67 360 64 339 q 79 396 69 381 l 157 396 q 160 446 157 419 q 167 489 164 472 l 81 489 q 99 565 78 536 l 185 565 z "},"¤":{"ha":750,"x_min":14,"x_max":642,"o":"m 553 501 q 578 430 572 469 q 576 343 585 390 q 548 256 568 296 q 499 186 528 217 l 576 101 q 549 86 567 92 q 514 79 531 81 l 453 149 q 303 104 389 104 q 149 153 208 104 l 72 81 q 41 90 57 82 q 14 110 25 97 l 111 194 q 79 278 88 231 q 82 385 71 326 q 144 513 94 458 l 78 582 q 107 598 89 592 q 143 606 125 604 l 190 551 q 354 599 258 599 q 445 585 404 599 q 515 546 486 571 l 588 608 q 619 596 604 604 q 642 576 635 588 l 553 501 m 499 332 q 472 483 515 425 q 340 542 429 542 q 222 498 271 542 q 160 383 172 454 q 184 223 142 285 q 317 161 226 161 q 380 174 350 161 q 434 210 410 188 q 475 265 458 233 q 499 332 492 296 z "},"$":{"ha":639,"x_min":3,"x_max":631,"o":"m 465 949 q 561 926 519 942 q 631 886 603 910 q 619 797 624 839 q 615 707 615 754 q 539 700 581 693 q 514 827 536 786 q 451 881 492 868 q 415 704 432 789 q 382 536 397 619 q 465 476 424 507 q 538 408 507 446 q 585 322 569 369 q 590 213 601 275 q 555 119 582 161 q 488 49 528 78 q 394 3 447 19 q 281 -12 342 -12 l 260 -129 q 223 -122 240 -128 q 194 -103 206 -117 l 213 -8 q 92 26 142 1 q 3 88 43 51 q 29 185 18 136 q 43 281 40 233 q 81 288 60 288 q 118 283 101 289 q 135 130 111 183 q 226 61 160 76 l 296 425 q 222 481 258 451 q 158 547 185 510 q 119 632 132 585 q 118 743 107 679 q 206 892 133 836 q 396 951 278 947 l 413 1039 q 450 1033 433 1039 q 479 1013 467 1028 l 465 949 m 383 886 q 288 850 325 882 q 240 751 251 818 q 257 656 232 696 q 325 579 282 615 l 383 886 m 293 54 q 400 91 356 54 q 456 189 444 128 q 456 250 461 222 q 435 301 450 278 q 399 345 421 325 q 353 385 378 365 l 293 54 z "},"£":{"ha":653,"x_min":-54,"x_max":639,"o":"m 160 465 q 146 514 153 489 q 135 567 139 539 q 130 627 131 594 q 136 700 129 660 q 169 793 144 747 q 232 874 193 839 q 323 930 271 908 q 439 951 375 951 q 551 937 503 951 q 639 892 599 922 q 624 806 629 850 q 615 710 618 763 q 576 708 594 706 q 542 717 557 710 q 519 849 549 811 q 417 886 489 886 q 315 847 358 886 q 260 743 271 808 q 256 660 251 696 q 271 594 261 625 q 290 533 281 563 q 301 465 300 503 l 479 465 q 460 393 479 421 l 293 393 q 244 271 279 331 q 146 143 210 211 q 271 174 207 174 q 340 163 310 174 q 394 138 369 151 q 438 114 418 125 q 475 103 457 103 q 538 140 514 103 q 565 126 553 138 q 582 103 578 114 q 517 19 558 50 q 426 -12 475 -12 q 367 0 390 -12 q 319 28 343 13 q 264 57 294 44 q 183 69 233 69 q 90 51 139 69 q -11 -12 42 32 q -37 10 -26 -3 q -54 40 -47 24 q 27 109 -10 75 q 92 179 64 143 q 140 256 121 215 q 167 344 158 296 q 171 392 171 369 q 94 391 131 392 q 25 389 57 390 q 43 465 22 436 l 160 465 z "},"¥":{"ha":810,"x_min":122,"x_max":907,"o":"m 344 513 q 290 645 317 583 q 244 751 264 707 q 214 815 226 790 q 191 853 201 839 q 170 873 181 867 q 144 885 160 879 q 141 913 142 900 q 143 943 140 926 q 221 940 182 940 q 297 939 260 939 q 379 940 339 939 q 472 943 419 940 q 469 912 472 926 q 460 882 465 897 q 374 849 392 872 q 379 772 356 826 q 436 634 407 710 q 492 482 465 558 q 546 556 519 519 q 596 624 572 592 q 638 683 619 657 q 669 728 657 710 q 718 838 721 804 q 651 883 715 872 q 650 943 646 910 q 714 940 685 940 q 783 939 743 939 q 845 940 817 939 q 907 943 874 940 q 894 883 907 913 q 872 872 882 879 q 844 847 861 864 q 802 796 828 829 q 736 706 776 763 q 669 613 704 661 q 593 513 633 565 l 758 513 q 742 440 761 472 l 539 440 l 517 411 l 504 344 l 739 344 q 717 272 736 303 l 492 272 l 474 169 q 468 121 468 140 q 478 89 468 101 q 508 69 488 76 q 567 56 529 61 q 569 -4 574 26 q 479 -1 525 -1 q 392 0 433 0 q 297 -1 346 0 q 210 -4 247 -1 q 219 57 210 31 q 276 70 254 63 q 310 91 297 78 q 331 126 324 104 q 346 183 339 149 l 361 271 q 241 270 300 271 q 125 268 182 269 q 126 309 122 289 q 139 344 129 329 l 374 344 l 385 407 l 372 440 q 308 440 336 440 q 253 440 279 440 q 202 438 228 439 q 146 436 176 438 q 164 513 143 483 l 344 513 z "},"~":{"ha":760,"x_min":46,"x_max":739,"o":"m 254 465 q 331 453 293 465 q 405 426 368 440 q 479 399 442 411 q 554 386 517 386 q 624 400 589 386 q 697 449 660 414 q 739 426 725 449 q 633 327 683 354 q 539 300 583 300 q 466 313 501 300 q 395 343 431 326 q 324 373 360 360 q 249 386 288 386 q 166 367 208 386 q 75 296 124 347 q 46 332 50 307 q 154 437 103 408 q 254 465 206 465 z "},"÷":{"ha":694,"x_min":46,"x_max":667,"o":"m 471 563 q 445 513 464 531 q 396 494 426 494 q 339 519 358 494 q 328 583 319 543 q 355 630 333 611 q 406 649 376 649 q 458 624 438 649 q 471 563 478 600 m 667 399 q 644 326 664 357 q 503 326 578 326 q 351 326 428 326 q 197 324 274 325 q 49 322 119 324 q 67 399 46 369 l 667 399 m 403 146 q 377 96 396 114 q 328 78 358 78 q 271 102 290 78 q 260 167 251 126 q 287 213 265 194 q 338 232 308 232 q 390 208 369 232 q 403 146 410 183 z "},"=":{"ha":701,"x_min":28,"x_max":688,"o":"m 688 503 q 665 431 685 461 q 524 431 599 431 q 372 430 449 431 q 217 428 294 429 q 69 426 140 428 q 88 503 67 474 l 688 503 m 649 274 q 626 201 646 232 q 485 201 560 201 q 333 201 410 201 q 178 199 256 200 q 31 197 101 199 q 49 274 28 244 l 649 274 z "},">":{"ha":625,"x_min":-17,"x_max":588,"o":"m 578 393 q 587 353 586 375 q 581 311 588 331 q 427 221 497 263 q 290 138 357 179 q 155 53 224 97 q 7 -43 86 8 q -7 28 -17 -15 l 524 356 l 99 751 q 128 774 110 765 q 164 785 146 782 l 578 393 z "},"<":{"ha":604,"x_min":49,"x_max":672,"o":"m 529 19 q 524 -22 531 0 q 507 -53 518 -43 q 388 52 444 3 q 277 148 332 101 q 167 240 222 194 q 51 333 111 285 q 52 367 49 349 q 71 404 56 386 l 617 782 q 651 767 636 778 q 672 742 665 757 l 119 361 l 529 19 z "},"¬":{"ha":747,"x_min":64,"x_max":683,"o":"m 629 158 q 592 148 614 150 q 551 150 571 146 l 596 415 q 331 415 469 415 q 65 411 192 414 q 83 482 64 454 l 683 482 l 629 158 z "},"−":{"ha":696,"x_min":47,"x_max":668,"o":"m 668 404 q 646 332 665 363 q 504 332 579 332 q 352 331 429 332 q 198 330 275 331 q 50 328 121 329 q 68 404 47 375 l 668 404 z "},"×":{"ha":858,"x_min":-29,"x_max":760,"o":"m 700 668 q 735 652 721 663 q 760 622 749 642 q 606 489 696 568 q 417 321 515 410 l 689 15 q 653 -5 674 0 q 613 -7 633 -10 q 367 276 492 135 q 195 123 279 199 q 42 -17 111 47 q 0 -3 19 -14 q -29 19 -19 7 l 319 329 q 186 479 253 404 q 50 629 119 554 q 121 653 76 653 l 369 374 l 700 668 z "},"%":{"ha":951,"x_min":122,"x_max":897,"o":"m 850 951 q 897 894 890 931 q 705 660 793 768 q 532 447 617 551 q 360 231 447 342 q 172 -12 274 119 q 144 10 156 -4 q 129 42 132 24 l 850 951 m 349 940 q 490 872 444 940 q 514 689 536 803 q 440 551 496 603 q 308 499 383 499 q 221 517 258 499 q 160 568 183 535 q 130 649 138 601 q 133 753 122 696 q 209 889 150 838 q 349 940 268 940 m 335 882 q 270 848 299 882 q 231 757 242 814 q 237 612 214 667 q 315 557 260 557 q 378 591 350 557 q 417 683 406 625 q 412 828 435 774 q 335 882 389 882 m 710 429 q 851 360 806 429 q 875 178 897 292 q 801 40 857 92 q 669 -12 744 -12 q 582 6 619 -12 q 522 57 544 24 q 491 138 499 90 q 494 242 483 185 q 570 378 511 326 q 710 429 629 429 m 696 371 q 631 337 660 371 q 592 246 603 303 q 598 101 575 156 q 676 46 621 46 q 739 80 711 46 q 778 172 767 114 q 773 317 796 263 q 696 371 750 371 z "},"‰":{"ha":1404,"x_min":122,"x_max":1350,"o":"m 850 951 q 897 894 890 931 q 705 660 793 768 q 532 447 617 551 q 360 231 447 342 q 172 -12 274 119 q 144 10 156 -4 q 129 42 132 24 l 850 951 m 349 940 q 490 872 444 940 q 514 689 536 803 q 440 551 496 603 q 308 499 383 499 q 221 517 258 499 q 160 568 183 535 q 130 649 138 601 q 133 753 122 696 q 209 889 150 838 q 349 940 268 940 m 335 882 q 270 848 299 882 q 231 757 242 814 q 237 612 214 667 q 315 557 260 557 q 378 591 350 557 q 417 683 406 625 q 412 828 435 774 q 335 882 389 882 m 710 429 q 851 360 806 429 q 875 178 897 292 q 801 40 857 92 q 669 -12 744 -12 q 582 6 619 -12 q 522 57 544 24 q 491 138 499 90 q 494 242 483 185 q 570 378 511 326 q 710 429 629 429 m 1163 429 q 1304 360 1258 429 q 1328 178 1350 292 q 1253 40 1310 92 q 1122 -12 1197 -12 q 1035 6 1072 -12 q 974 57 997 24 q 944 138 951 90 q 947 242 936 185 q 1023 378 964 326 q 1163 429 1082 429 m 696 371 q 631 337 660 371 q 592 246 603 303 q 598 101 575 156 q 676 46 621 46 q 739 80 711 46 q 778 172 767 114 q 773 317 796 263 q 696 371 750 371 m 1149 371 q 1084 337 1113 371 q 1044 246 1056 303 q 1051 101 1028 156 q 1129 46 1074 46 q 1192 80 1164 46 q 1231 172 1219 114 q 1226 317 1249 263 q 1149 371 1203 371 z "},"+":{"ha":740,"x_min":47,"x_max":713,"o":"m 710 404 q 694 336 713 364 l 406 336 q 376 174 390 254 q 347 11 363 94 q 310 8 329 6 q 276 21 290 10 l 336 335 q 186 334 260 335 q 50 332 113 333 q 68 404 47 376 l 350 404 l 406 697 q 478 697 443 713 q 448 550 463 622 q 419 404 433 478 l 710 404 z "},"±":{"ha":631,"x_min":15,"x_max":608,"o":"m 606 508 q 590 440 608 468 l 364 440 q 345 335 354 388 q 329 235 336 283 q 292 231 311 229 q 258 244 272 233 l 296 439 q 181 438 238 439 q 71 436 124 438 q 89 508 68 481 l 308 508 l 349 717 q 421 717 386 732 q 399 620 410 674 q 376 508 388 567 l 606 508 m 561 182 q 539 110 558 140 q 283 109 406 110 q 18 106 160 108 q 36 182 15 153 l 561 182 z "},"&":{"ha":985,"x_min":32,"x_max":896,"o":"m 857 122 q 896 81 882 108 q 835 13 871 38 q 751 -12 800 -12 q 717 -10 733 -12 q 683 1 700 -7 q 645 26 665 10 q 600 68 625 42 q 463 8 533 29 q 322 -12 393 -12 q 172 13 231 -12 q 80 78 113 38 q 40 171 47 118 q 42 278 32 224 q 74 376 51 333 q 128 453 97 419 q 197 512 160 486 q 275 560 235 538 q 236 698 242 638 q 240 817 231 758 q 263 882 246 850 q 312 939 281 914 q 388 980 343 964 q 494 996 433 996 q 588 981 549 996 q 650 942 626 967 q 682 885 674 917 q 683 818 690 853 q 647 722 672 761 q 585 654 621 683 q 507 603 550 625 q 419 561 464 582 q 469 477 440 522 q 533 376 497 432 q 608 267 575 313 q 665 189 640 221 q 720 267 697 225 q 753 357 743 308 q 760 442 763 408 q 744 497 757 476 q 710 527 732 518 q 658 538 688 536 q 650 589 647 561 q 689 598 668 592 q 730 613 710 604 q 768 631 750 621 q 797 650 786 640 q 870 573 856 628 q 868 432 885 518 q 809 275 853 347 q 703 146 765 203 q 756 99 736 110 q 793 89 776 89 q 825 96 810 89 q 857 122 840 103 m 351 819 q 351 737 344 782 q 390 621 357 692 q 503 699 454 656 q 565 813 551 743 q 552 905 576 875 q 476 935 528 935 q 392 902 424 935 q 351 819 360 869 m 347 57 q 460 71 406 57 q 563 111 514 85 q 501 192 535 146 q 422 303 467 239 q 354 408 383 360 q 303 499 325 457 q 212 415 250 464 q 160 286 174 365 q 160 197 151 239 q 192 124 168 156 q 254 75 215 93 q 347 57 293 57 z "},"@":{"ha":1122,"x_min":26,"x_max":1118,"o":"m 657 204 q 610 127 638 165 q 549 58 582 89 q 480 7 517 26 q 404 -12 443 -12 q 306 57 335 -12 q 307 281 276 126 q 358 428 324 361 q 442 544 393 496 q 552 621 492 593 q 681 649 613 649 q 722 645 700 649 q 758 636 743 642 q 801 639 779 636 q 838 649 824 642 q 848 640 843 646 q 854 621 853 635 q 853 582 856 607 q 840 515 850 557 l 771 204 q 760 141 763 164 q 761 106 758 118 q 772 92 764 94 q 790 89 779 89 q 869 111 832 89 q 938 174 907 133 q 992 272 969 214 q 1026 399 1015 329 q 1028 592 1046 507 q 960 738 1010 678 q 831 828 910 797 q 649 860 751 860 q 469 825 553 860 q 318 727 385 790 q 205 574 251 664 q 140 376 158 485 q 135 133 117 243 q 207 -55 153 24 q 349 -176 261 -133 q 554 -218 438 -218 q 771 -178 672 -218 q 950 -74 869 -139 q 986 -108 981 -79 q 796 -233 907 -186 q 533 -281 685 -281 q 298 -235 400 -281 q 133 -104 196 -189 q 48 99 69 -19 q 51 361 26 217 q 128 588 72 486 q 264 763 183 690 q 447 876 344 836 q 667 917 550 917 q 874 881 785 917 q 1021 780 964 846 q 1098 619 1078 714 q 1097 404 1118 524 q 1047 240 1082 315 q 963 108 1013 164 q 854 19 914 51 q 728 -12 794 -12 q 659 10 681 -12 q 633 67 638 33 q 638 138 629 100 q 658 204 646 175 l 657 204 m 731 564 q 646 578 694 578 q 569 560 603 578 q 511 513 536 543 q 469 439 486 482 q 442 344 451 396 q 428 163 417 226 q 482 100 440 100 q 530 125 500 100 q 592 197 560 150 q 655 313 624 244 q 707 467 686 381 l 731 564 z "},"|":{"ha":254,"x_min":-31,"x_max":288,"o":"m 221 989 q 258 983 242 989 q 288 963 275 978 q 156 313 218 638 q 35 -342 93 -11 q -2 -335 15 -340 q -31 -315 -19 -329 l 221 989 z "},"¦":{"ha":254,"x_min":-31,"x_max":288,"o":"m 221 989 q 258 983 242 989 q 288 963 275 978 q 237 710 261 836 q 190 456 213 585 q 153 463 171 457 q 125 482 136 468 l 221 989 m 76 238 q 114 232 97 238 q 143 211 131 226 q 87 -65 114 72 q 35 -342 60 -201 q -2 -335 15 -340 q -31 -315 -19 -329 l 76 238 z "},"©":{"ha":994,"x_min":29,"x_max":968,"o":"m 549 793 q 745 756 661 793 q 881 651 829 719 q 951 489 933 583 q 946 278 968 394 q 883 101 928 181 q 774 -35 839 21 q 626 -123 708 -92 q 450 -154 543 -154 q 254 -117 339 -154 q 117 -12 169 -81 q 47 150 65 56 q 51 361 29 244 q 115 538 69 458 q 225 674 160 618 q 373 762 290 731 q 549 793 456 793 m 461 -93 q 612 -67 542 -93 q 738 9 682 -40 q 831 126 793 58 q 885 278 869 194 q 891 465 904 381 q 834 608 878 549 q 716 701 790 668 q 538 733 642 733 q 387 707 457 733 q 260 631 317 681 q 166 513 204 582 q 113 361 128 444 q 106 175 93 258 q 162 32 118 92 q 281 -60 206 -28 q 461 -93 356 -93 m 414 -12 q 322 17 354 -12 q 276 92 289 46 q 265 198 263 139 q 279 317 268 257 q 320 440 292 381 q 390 547 349 500 q 485 621 432 593 q 603 649 539 649 q 667 642 643 649 q 713 619 690 635 q 674 465 681 546 q 647 457 663 460 q 614 454 631 454 q 595 548 614 521 q 536 575 576 575 q 497 560 515 575 q 461 520 478 546 q 432 460 444 494 q 413 389 419 426 q 397 280 401 333 q 399 185 393 226 q 423 117 404 143 q 476 92 442 92 q 555 113 517 92 q 619 164 593 135 q 649 125 638 151 q 594 68 624 93 q 533 25 564 43 q 471 -3 501 7 q 414 -12 440 -12 z "},"†":{"ha":640,"x_min":103,"x_max":644,"o":"m 644 636 q 632 581 643 613 q 606 532 621 550 q 513 548 557 542 q 413 558 469 554 q 233 -347 313 108 q 202 -344 217 -347 q 176 -329 188 -340 q 250 109 215 -112 q 315 557 285 331 q 204 547 253 553 q 103 535 156 542 q 109 590 103 567 q 128 636 115 614 l 325 636 q 341 762 333 699 q 356 888 349 825 q 415 906 390 894 q 464 936 439 917 q 487 909 483 924 q 485 872 490 894 q 456 754 469 813 q 429 636 443 696 l 644 636 z "},"‡":{"ha":642,"x_min":-3,"x_max":644,"o":"m 331 636 q 342 740 336 681 q 356 888 347 799 q 415 906 390 894 q 464 936 439 917 q 488 909 483 924 q 485 872 492 894 q 447 733 461 789 q 421 636 432 676 l 644 636 q 632 581 643 613 q 606 532 621 550 q 509 549 554 543 q 401 558 464 556 l 393 515 q 380 444 385 474 q 374 392 375 414 q 377 351 374 369 q 388 315 381 333 q 368 284 376 300 q 353 246 360 268 q 340 192 346 224 q 326 117 333 161 l 321 79 q 436 89 386 83 q 539 101 486 94 q 533 46 539 69 q 514 0 526 22 l 311 0 q 300 -103 306 -44 q 286 -251 294 -162 q 227 -269 251 -258 q 178 -300 203 -281 q 154 -273 158 -287 q 157 -236 150 -258 q 195 -97 181 -153 q 221 0 210 -40 l -3 0 q 10 55 -1 24 q 36 104 21 86 q 133 87 88 93 q 240 78 178 81 l 249 121 q 262 192 257 163 q 267 244 267 222 q 265 284 268 267 q 254 321 261 301 q 274 352 265 336 q 289 390 282 368 q 302 444 296 413 q 315 519 308 475 l 321 557 q 206 547 256 553 q 103 535 156 542 q 109 590 103 567 q 128 636 115 614 l 331 636 z "},"°":{"ha":535,"x_min":168,"x_max":558,"o":"m 379 972 q 513 923 468 972 q 543 790 558 874 q 477 674 531 718 q 347 631 424 631 q 213 684 257 631 q 183 826 168 738 q 248 933 194 893 q 379 972 301 972 m 371 919 q 313 894 338 919 q 281 829 288 869 q 290 725 269 764 q 356 686 311 686 q 413 715 388 686 q 446 789 438 743 q 436 883 457 847 q 371 919 415 919 z "},"¶":{"ha":771,"x_min":108,"x_max":833,"o":"m 435 442 q 406 439 421 439 q 382 439 392 439 q 174 508 240 439 q 132 710 108 576 q 168 802 140 760 q 244 876 196 844 q 362 924 292 907 q 526 942 432 942 q 638 940 590 942 q 733 939 685 939 q 781 940 758 939 q 833 943 803 940 q 821 883 831 910 q 771 873 789 879 q 742 854 753 867 q 725 822 731 842 q 714 771 719 801 q 676 569 693 663 q 642 388 658 475 q 612 218 626 301 q 583 47 597 135 q 553 -137 568 -42 q 521 -342 538 -232 q 451 -339 482 -349 l 664 879 q 625 881 644 881 q 583 882 606 882 q 525 573 553 724 q 471 273 497 422 q 419 -29 444 124 q 368 -344 393 -182 q 331 -345 349 -347 q 300 -335 314 -343 l 435 442 m 513 883 q 403 874 447 883 q 329 846 358 865 q 284 794 300 826 q 260 717 268 763 q 258 612 249 654 q 293 543 268 569 q 357 505 318 517 q 444 493 396 493 l 513 883 z "},"®":{"ha":689,"x_min":149,"x_max":683,"o":"m 449 939 q 556 917 510 939 q 633 856 603 894 q 673 765 663 817 q 671 656 683 714 q 572 480 649 542 q 383 418 496 418 q 277 441 324 418 q 201 503 231 464 q 160 593 171 542 q 160 703 149 644 q 260 876 183 813 q 449 939 338 939 m 622 653 q 624 749 632 704 q 593 826 617 793 q 532 877 569 858 q 444 896 494 896 q 290 844 354 896 q 210 706 226 792 q 208 613 200 657 q 240 537 217 569 q 302 485 264 504 q 389 465 340 465 q 542 517 478 465 q 622 653 606 568 m 347 761 q 344 787 350 781 q 321 796 339 793 q 322 825 318 813 q 352 824 338 824 q 382 824 367 824 q 420 824 400 824 q 457 825 440 825 q 524 804 503 825 q 539 746 546 783 q 509 697 533 718 q 449 668 485 676 q 465 641 457 656 q 483 600 472 626 q 510 572 494 572 q 528 581 519 572 q 539 557 539 572 q 485 531 518 531 q 435 585 451 531 q 419 628 428 610 q 401 661 411 646 l 381 663 l 371 610 q 369 573 365 581 q 388 563 372 565 q 392 533 394 550 q 362 535 375 535 q 335 535 349 535 q 305 535 319 535 q 278 533 290 535 q 279 549 278 540 q 283 563 281 557 q 310 574 303 565 q 322 615 317 583 l 347 761 m 401 690 q 459 703 438 690 q 486 743 481 715 q 479 782 490 767 q 439 797 468 797 q 403 793 419 797 l 385 690 l 401 690 z "},"§":{"ha":711,"x_min":42,"x_max":671,"o":"m 324 842 q 338 749 313 789 q 405 674 363 710 q 498 603 447 639 q 589 524 549 568 q 650 423 629 481 q 654 285 671 365 q 578 151 639 208 q 414 63 517 93 q 461 15 439 40 q 497 -39 483 -10 q 516 -103 511 -68 q 513 -179 521 -137 q 433 -297 499 -250 q 258 -343 367 -343 q 61 -278 139 -343 q 72 -188 68 -231 q 76 -99 76 -146 q 153 -92 111 -85 q 163 -187 154 -150 q 187 -244 171 -224 q 226 -272 203 -264 q 279 -279 249 -279 q 352 -256 324 -279 q 389 -192 381 -232 q 375 -99 400 -139 q 308 -24 350 -60 q 215 47 265 11 q 124 126 164 82 q 63 227 83 169 q 58 365 42 285 q 136 499 75 442 q 299 588 197 557 q 252 635 274 610 q 216 689 231 660 q 197 753 201 718 q 200 829 192 788 q 280 947 214 900 q 454 993 346 993 q 651 928 574 993 q 640 838 644 881 q 636 749 636 796 q 560 742 601 735 q 550 837 558 800 q 526 894 542 874 q 487 922 510 914 q 433 929 464 929 q 360 906 389 929 q 324 842 332 882 m 518 271 q 517 359 528 321 q 482 428 506 397 q 425 487 458 460 q 357 542 392 514 q 251 476 297 519 q 194 379 206 433 q 196 291 185 329 q 231 222 207 253 q 289 163 256 190 q 357 108 322 135 q 462 174 417 131 q 518 271 507 217 z "},"^":{"ha":663,"x_min":151,"x_max":725,"o":"m 476 951 q 514 965 496 964 q 547 964 532 967 q 586 869 564 921 q 633 763 608 817 q 681 656 657 708 q 725 561 704 604 q 699 549 715 554 q 667 547 682 544 l 510 904 q 422 810 467 858 q 333 713 376 761 q 248 617 289 664 q 172 532 207 571 q 151 597 151 557 l 476 951 z "},"´":{"ha":375,"x_min":185,"x_max":457,"o":"m 314 994 q 393 1003 356 1006 q 457 982 431 1000 q 346 867 404 932 q 235 732 288 803 q 185 751 204 735 q 264 887 231 824 q 314 994 297 950 z "},"¸":{"ha":750,"x_min":251,"x_max":474,"o":"m 376 -76 q 451 -122 428 -87 q 461 -219 474 -156 q 392 -309 449 -279 q 257 -336 336 -339 q 256 -292 251 -318 q 340 -275 307 -292 q 379 -222 372 -258 q 365 -161 386 -182 q 304 -140 343 -140 q 290 -119 294 -132 q 290 -87 286 -106 l 381 22 l 457 22 l 376 -76 z "},"ˆ":{"ha":750,"x_min":83,"x_max":494,"o":"m 303 979 q 356 969 329 983 q 422 872 388 919 q 494 779 457 825 q 478 754 490 765 q 453 739 467 743 q 373 799 414 771 q 289 851 332 828 q 192 798 239 826 q 99 736 144 769 q 87 766 90 749 q 86 799 83 783 q 199 885 144 840 q 303 979 253 931 z "},"¨":{"ha":643,"x_min":233,"x_max":603,"o":"m 242 828 q 318 889 253 889 q 370 866 354 889 q 379 807 386 843 q 301 739 361 739 q 250 763 267 739 q 242 828 233 788 m 596 811 q 569 758 589 776 q 517 740 549 740 q 465 763 482 740 q 456 824 449 786 q 536 889 467 889 q 586 868 569 889 q 596 811 603 847 z "},"`":{"ha":369,"x_min":189,"x_max":381,"o":"m 189 978 q 252 990 217 989 q 319 981 288 992 q 343 865 329 922 q 381 744 357 807 q 357 741 371 740 q 332 747 343 742 q 267 865 306 800 q 189 978 228 929 z "},"¯":{"ha":750,"x_min":121,"x_max":617,"o":"m 617 876 q 604 817 617 847 q 342 816 463 817 q 121 813 221 815 q 124 842 121 821 q 133 876 126 864 l 617 876 z "},"˚":{"ha":750,"x_min":254,"x_max":553,"o":"m 265 868 q 314 952 274 921 q 421 983 354 983 q 519 944 486 983 q 542 840 553 906 q 494 761 535 792 q 388 731 454 731 q 288 768 321 731 q 265 868 254 806 m 339 861 q 349 803 332 825 q 397 782 365 782 q 442 798 424 782 q 464 842 460 814 q 457 910 472 885 q 408 936 442 936 q 365 915 383 936 q 339 861 346 894 z "},"˜":{"ha":750,"x_min":118,"x_max":585,"o":"m 290 871 q 338 862 315 871 q 381 842 360 853 q 420 822 401 831 q 458 813 439 813 q 511 826 486 813 q 560 863 536 839 q 585 835 576 856 q 540 775 561 799 q 501 738 519 751 q 467 719 483 724 q 435 714 450 714 q 389 723 411 714 q 346 744 367 732 q 303 765 325 756 q 260 774 282 774 q 199 763 228 774 q 135 721 171 751 q 121 754 118 732 q 216 847 174 822 q 290 871 258 871 z "},"A":{"ha":954,"x_min":-37,"x_max":871,"o":"m 183 199 q 149 133 160 158 q 142 91 139 107 q 161 67 146 75 q 204 56 176 60 q 208 -4 210 26 q 144 -1 175 -1 q 81 0 113 0 q 19 -1 44 0 q -37 -4 -7 -1 q -35 26 -37 11 q -26 56 -33 42 q 8 71 -7 61 q 39 98 24 81 q 72 142 54 115 q 114 210 90 169 q 324 573 221 392 q 529 939 426 754 q 557 946 542 944 q 583 947 572 947 q 688 567 638 757 q 783 183 738 376 q 801 122 793 144 q 819 85 810 99 q 839 66 828 72 q 865 56 850 60 q 870 26 869 40 q 869 -4 871 11 q 791 -1 835 -1 q 715 0 747 0 q 639 -1 679 0 q 557 -4 599 -1 q 559 26 557 11 q 568 56 561 42 q 617 66 599 60 q 644 85 636 72 q 653 117 653 97 q 644 169 653 138 l 613 304 q 425 303 525 304 q 242 299 325 301 l 183 199 m 596 368 q 564 495 581 432 q 529 621 547 558 q 510 692 518 661 q 496 767 503 724 q 457 690 475 724 q 415 611 439 656 q 350 490 383 550 q 282 368 317 429 l 596 368 z "},"¢":{"ha":519,"x_min":33,"x_max":483,"o":"m 374 649 q 438 642 414 649 q 483 619 461 635 q 444 465 451 546 q 417 457 433 460 q 385 454 401 454 q 350 564 385 542 q 301 326 322 440 q 257 92 279 213 q 331 115 294 94 q 390 164 367 136 q 419 125 408 151 q 335 44 383 78 q 240 -3 286 11 q 226 -94 233 -47 q 210 -189 218 -140 q 173 -182 190 -187 q 144 -162 156 -176 l 174 -12 q 88 21 118 -10 q 45 98 57 51 q 36 201 33 144 q 50 317 39 258 q 82 422 60 371 q 136 517 104 474 q 210 591 168 560 q 300 638 251 622 l 342 854 q 379 849 363 854 q 408 828 396 843 q 388 736 397 781 q 368 649 378 692 l 374 649 m 286 571 q 224 506 251 557 q 183 389 196 456 q 170 304 175 346 q 166 226 165 263 q 174 159 167 189 q 197 113 182 129 l 286 571 z "},"ʼ":{"ha":275,"x_min":179,"x_max":317,"o":"m 310 929 q 276 817 294 881 q 236 663 258 754 q 206 665 219 663 q 179 676 192 668 q 199 822 190 750 q 210 963 207 893 q 251 974 228 965 q 289 992 274 982 q 310 969 304 985 q 310 929 317 953 z "}}}
